# Blender 4.1.1
# www.blender.org
mtllib floor.mtl
o Cube
v 10.000000 0.000000 -10.000000
v 10.000000 0.000000 10.000000
v -10.000000 0.000000 -10.000000
v -10.000000 0.000000 10.000000
v 0.000000 0.000000 10.000000
v 10.000000 0.000000 0.000000
v -10.000000 0.000000 0.000000
v 0.000000 0.000000 -10.000000
v 0.000000 0.000000 0.000000
v -5.000000 0.000000 10.000000
v 10.000000 0.000000 5.000000
v -10.000000 0.000000 -5.000000
v 5.000000 0.000000 -10.000000
v 5.000000 0.000000 10.000000
v 10.000000 0.000000 -5.000000
v -10.000000 0.000000 5.000000
v -5.000000 0.000000 -10.000000
v 0.000000 0.000000 5.000000
v 0.000000 0.000000 -5.000000
v 5.000000 0.000000 0.000000
v -5.000000 0.000000 0.000000
v -5.000000 0.000000 -5.000000
v 5.000000 0.000000 -5.000000
v 5.000000 0.000000 5.000000
v -5.000000 0.000000 5.000000
v -7.500000 0.000000 10.000000
v 10.000000 0.000000 7.500000
v -10.000000 0.000000 -7.500000
v 7.500000 0.000000 -10.000000
v 2.500000 0.000000 10.000000
v 10.000000 0.000000 -2.500000
v -10.000000 0.000000 2.500000
v -2.500000 0.000000 -10.000000
v 0.000000 0.000000 7.500000
v 0.000000 0.000000 -2.500000
v 7.500000 0.000000 0.000000
v -2.500000 0.000000 0.000000
v -2.500000 0.000000 10.000000
v 10.000000 0.000000 2.500000
v -10.000000 0.000000 -2.500000
v 2.500000 0.000000 -10.000000
v 7.500000 0.000000 10.000000
v 10.000000 0.000000 -7.500000
v -10.000000 0.000000 7.500000
v -7.500000 0.000000 -10.000000
v 0.000000 0.000000 2.500000
v 0.000000 0.000000 -7.500000
v 2.500000 0.000000 0.000000
v -7.500000 0.000000 0.000000
v -5.000000 0.000000 -2.500000
v -5.000000 0.000000 -7.500000
v -2.500000 0.000000 -5.000000
v -7.500000 0.000000 -5.000000
v 5.000000 0.000000 -2.500000
v 5.000000 0.000000 -7.500000
v 7.500000 0.000000 -5.000000
v 2.500000 0.000000 -5.000000
v 5.000000 0.000000 7.500000
v 5.000000 0.000000 2.500000
v 7.500000 0.000000 5.000000
v 2.500000 0.000000 5.000000
v -5.000000 0.000000 7.500000
v -5.000000 0.000000 2.500000
v -2.500000 0.000000 5.000000
v -7.500000 0.000000 5.000000
v -7.500000 0.000000 2.500000
v -2.500000 0.000000 2.500000
v -2.500000 0.000000 7.500000
v 2.500000 0.000000 2.500000
v 7.500000 0.000000 2.500000
v 7.500000 0.000000 7.500000
v 2.500000 0.000000 -7.500000
v 7.500000 0.000000 -7.500000
v 7.500000 0.000000 -2.500000
v -7.500000 0.000000 -7.500000
v -2.500000 0.000000 -7.500000
v -2.500000 0.000000 -2.500000
v -7.500000 0.000000 -2.500000
v 2.500000 0.000000 -2.500000
v 2.500000 0.000000 7.500000
v -7.500000 0.000000 7.500000
vn -0.0000 1.0000 -0.0000
vt 0.125075 0.874925
vt 0.125075 0.999900
vt 0.000100 0.999900
vt 0.000100 0.874925
vt 0.125075 0.375025
vt 0.125075 0.500000
vt 0.000100 0.500000
vt 0.000100 0.375025
vt 0.624975 0.375025
vt 0.624975 0.500000
vt 0.500000 0.500000
vt 0.500000 0.375025
vt 0.624975 0.874925
vt 0.624975 0.999900
vt 0.500000 0.999900
vt 0.500000 0.874925
vt 0.624975 0.624975
vt 0.624975 0.749950
vt 0.500000 0.749950
vt 0.500000 0.624975
vt 0.874925 0.624975
vt 0.874925 0.749950
vt 0.749950 0.749950
vt 0.749950 0.624975
vt 0.874925 0.874925
vt 0.874925 0.999900
vt 0.749950 0.999900
vt 0.749950 0.874925
vt 0.624975 0.125075
vt 0.624975 0.250050
vt 0.500000 0.250050
vt 0.500000 0.125075
vt 0.874925 0.125075
vt 0.874925 0.250050
vt 0.749950 0.250050
vt 0.749950 0.125075
vt 0.874925 0.375025
vt 0.874925 0.500000
vt 0.749950 0.500000
vt 0.749950 0.375025
vt 0.125075 0.125075
vt 0.125075 0.250050
vt 0.000100 0.250050
vt 0.000100 0.125075
vt 0.375025 0.125075
vt 0.375025 0.250050
vt 0.250050 0.250050
vt 0.250050 0.125075
vt 0.375025 0.375025
vt 0.375025 0.500000
vt 0.250050 0.500000
vt 0.250050 0.375025
vt 0.125075 0.624975
vt 0.125075 0.749950
vt 0.000100 0.749950
vt 0.000100 0.624975
vt 0.375025 0.624975
vt 0.375025 0.749950
vt 0.250050 0.749950
vt 0.250050 0.624975
vt 0.375025 0.874925
vt 0.375025 0.999900
vt 0.250050 0.999900
vt 0.250050 0.874925
vt 0.375025 0.000100
vt 0.250050 0.000100
vt 0.500000 0.000100
vt 0.125075 0.000100
vt 0.000100 0.000100
vt 0.999900 0.250050
vt 0.999900 0.375025
vt 0.999900 0.500000
vt 0.874925 0.000100
vt 0.749950 0.000100
vt 0.999900 0.000100
vt 0.999900 0.125075
vt 0.624975 0.000100
vt 0.999900 0.749950
vt 0.999900 0.874925
vt 0.999900 0.999900
vt 0.999900 0.624975
s 0
usemtl Material
f 81/1/1 44/2/1 4/3/1 26/4/1
f 80/5/1 34/6/1 5/7/1 30/8/1
f 79/9/1 35/10/1 9/11/1 48/12/1
f 78/13/1 40/14/1 7/15/1 49/16/1
f 77/17/1 50/18/1 21/19/1 37/20/1
f 76/21/1 51/22/1 22/23/1 52/24/1
f 75/25/1 28/26/1 12/27/1 53/28/1
f 74/29/1 54/30/1 20/31/1 36/32/1
f 73/33/1 55/34/1 23/35/1 56/36/1
f 72/37/1 47/38/1 19/39/1 57/40/1
f 71/41/1 58/42/1 14/43/1 42/44/1
f 70/45/1 59/46/1 24/47/1 60/48/1
f 69/49/1 46/50/1 18/51/1 61/52/1
f 68/53/1 62/54/1 10/55/1 38/56/1
f 67/57/1 63/58/1 25/59/1 64/60/1
f 66/61/1 32/62/1 16/63/1 65/64/1
f 63/58/1 66/61/1 65/64/1 25/59/1
f 21/19/1 49/16/1 66/61/1 63/58/1
f 49/16/1 7/15/1 32/62/1 66/61/1
f 46/50/1 67/57/1 64/60/1 18/51/1
f 9/11/1 37/20/1 67/57/1 46/50/1
f 37/20/1 21/19/1 63/58/1 67/57/1
f 34/6/1 68/53/1 38/56/1 5/7/1
f 18/51/1 64/60/1 68/53/1 34/6/1
f 64/60/1 25/59/1 62/54/1 68/53/1
f 59/46/1 69/49/1 61/52/1 24/47/1
f 20/31/1 48/12/1 69/49/1 59/46/1
f 48/12/1 9/11/1 46/50/1 69/49/1
f 39/65/1 70/45/1 60/48/1 11/66/1
f 6/67/1 36/32/1 70/45/1 39/65/1
f 36/32/1 20/31/1 59/46/1 70/45/1
f 27/68/1 71/41/1 42/44/1 2/69/1
f 11/66/1 60/48/1 71/41/1 27/68/1
f 60/48/1 24/47/1 58/42/1 71/41/1
f 55/34/1 72/37/1 57/40/1 23/35/1
f 13/70/1 41/71/1 72/37/1 55/34/1
f 41/71/1 8/72/1 47/38/1 72/37/1
f 43/73/1 73/33/1 56/36/1 15/74/1
f 1/75/1 29/76/1 73/33/1 43/73/1
f 29/76/1 13/70/1 55/34/1 73/33/1
f 31/77/1 74/29/1 36/32/1 6/67/1
f 15/74/1 56/36/1 74/29/1 31/77/1
f 56/36/1 23/35/1 54/30/1 74/29/1
f 51/22/1 75/25/1 53/28/1 22/23/1
f 17/78/1 45/79/1 75/25/1 51/22/1
f 45/79/1 3/80/1 28/26/1 75/25/1
f 47/38/1 76/21/1 52/24/1 19/39/1
f 8/72/1 33/81/1 76/21/1 47/38/1
f 33/81/1 17/78/1 51/22/1 76/21/1
f 35/10/1 77/17/1 37/20/1 9/11/1
f 19/39/1 52/24/1 77/17/1 35/10/1
f 52/24/1 22/23/1 50/18/1 77/17/1
f 50/18/1 78/13/1 49/16/1 21/19/1
f 22/23/1 53/28/1 78/13/1 50/18/1
f 53/28/1 12/27/1 40/14/1 78/13/1
f 54/30/1 79/9/1 48/12/1 20/31/1
f 23/35/1 57/40/1 79/9/1 54/30/1
f 57/40/1 19/39/1 35/10/1 79/9/1
f 58/42/1 80/5/1 30/8/1 14/43/1
f 24/47/1 61/52/1 80/5/1 58/42/1
f 61/52/1 18/51/1 34/6/1 80/5/1
f 62/54/1 81/1/1 26/4/1 10/55/1
f 25/59/1 65/64/1 81/1/1 62/54/1
f 65/64/1 16/63/1 44/2/1 81/1/1
