# Blender 4.1.1
# www.blender.org
mtllib player.mtl
o Sphere
v -0.058527 0.300002 -0.294236
v -0.054072 0.185197 -0.271838
v -0.022397 0.022838 -0.112599
v 0.058527 0.300002 -0.294236
v 0.054072 0.185197 -0.271838
v 0.041385 0.087870 -0.208056
v 0.022397 0.022838 -0.112599
v 0.063782 0.022838 -0.095457
v 0.095457 0.022838 -0.063782
v 0.294236 0.300002 -0.058527
v 0.271838 0.185197 -0.054072
v 0.208056 0.087870 -0.041385
v 0.112599 0.022838 -0.022397
v 0.294236 0.300002 0.058527
v 0.271838 0.185197 0.054072
v 0.208056 0.087870 0.041385
v 0.112599 0.022838 0.022397
v 0.095457 0.022838 0.063782
v 0.063782 0.022838 0.095457
v 0.058527 0.300002 0.294235
v 0.054072 0.185197 0.271838
v 0.041385 0.087870 0.208056
v 0.022397 0.022838 0.112599
v -0.000000 0.000002 -0.000000
v -0.058527 0.300002 0.294235
v -0.054072 0.185197 0.271838
v -0.041385 0.087870 0.208056
v -0.022397 0.022838 0.112599
v -0.063782 0.022838 0.095457
v -0.095457 0.022838 0.063782
v -0.294236 0.300002 0.058527
v -0.271838 0.185197 0.054072
v -0.208056 0.087870 0.041385
v -0.112599 0.022838 0.022397
v -0.294236 0.300002 -0.058527
v -0.271838 0.185197 -0.054072
v -0.208056 0.087870 -0.041385
v -0.112599 0.022838 -0.022397
v -0.095457 0.022838 -0.063782
v -0.063782 0.022838 -0.095457
v -0.041385 0.087870 -0.208056
v -0.054072 1.614807 -0.271838
v -0.058527 1.500002 -0.294236
v 0.022397 1.777166 -0.112599
v 0.041385 1.712134 -0.208056
v 0.054072 1.614807 -0.271838
v 0.058527 1.500002 -0.294236
v 0.063782 1.777166 -0.095457
v 0.095457 1.777166 -0.063782
v 0.112599 1.777166 -0.022397
v 0.208056 1.712134 -0.041385
v 0.271838 1.614807 -0.054072
v 0.294235 1.500002 -0.058527
v 0.112599 1.777166 0.022397
v 0.208056 1.712134 0.041385
v 0.271838 1.614807 0.054072
v 0.294236 1.500002 0.058527
v 0.095457 1.777166 0.063782
v 0.063782 1.777166 0.095457
v 0.022397 1.777166 0.112599
v 0.041385 1.712134 0.208056
v 0.054072 1.614807 0.271838
v 0.058527 1.500002 0.294235
v -0.000000 1.800002 -0.000000
v -0.022397 1.777166 0.112599
v -0.041385 1.712134 0.208056
v -0.054072 1.614807 0.271838
v -0.058527 1.500002 0.294235
v -0.063782 1.777166 0.095457
v -0.095457 1.777166 0.063782
v -0.112599 1.777166 0.022397
v -0.208056 1.712134 0.041385
v -0.271838 1.614807 0.054072
v -0.294236 1.500002 0.058527
v -0.112599 1.777166 -0.022398
v -0.208056 1.712134 -0.041385
v -0.271838 1.614807 -0.054072
v -0.294236 1.500002 -0.058527
v -0.095457 1.777166 -0.063782
v -0.063782 1.777166 -0.095457
v -0.022397 1.777166 -0.112599
v -0.041385 1.712134 -0.208056
vn -0.0000 -0.9800 -0.1988
vn -0.0000 -0.5481 -0.8364
vn -0.0000 -0.8264 -0.5630
vn -0.0000 -0.1915 -0.9815
vn 0.0761 -0.9800 -0.1836
vn 0.1405 -0.9800 -0.1405
vn 0.1836 -0.9800 -0.0761
vn 0.1988 -0.9800 -0.0000
vn 0.8364 -0.5481 -0.0000
vn 0.5630 -0.8264 -0.0000
vn 0.9815 -0.1915 -0.0000
vn 0.1836 -0.9800 0.0761
vn 0.1405 -0.9800 0.1405
vn 0.0761 -0.9800 0.1836
vn -0.0000 -0.5481 0.8364
vn -0.0000 -0.8264 0.5630
vn -0.0000 -0.1915 0.9815
vn -0.0000 -0.9800 0.1988
vn -0.0761 -0.9800 0.1836
vn -0.1405 -0.9800 0.1405
vn -0.1836 -0.9800 0.0761
vn -0.5630 -0.8264 -0.0000
vn -0.9815 -0.1915 -0.0000
vn -0.1988 -0.9800 -0.0000
vn -0.8364 -0.5481 -0.0000
vn -0.1836 -0.9800 -0.0761
vn -0.0000 -0.0000 -1.0000
vn -0.0000 -0.0000 1.0000
vn -0.1405 -0.9800 -0.1405
vn -0.0761 -0.9800 -0.1836
vn 1.0000 -0.0000 -0.0000
vn -1.0000 -0.0000 -0.0000
vn -0.0000 0.9800 -0.1988
vn -0.0000 0.1915 -0.9815
vn -0.0000 0.8264 -0.5630
vn -0.0000 0.5481 -0.8364
vn 0.0761 0.9800 -0.1836
vn 0.1405 0.9800 -0.1405
vn 0.1836 0.9800 -0.0761
vn 0.9815 0.1915 -0.0000
vn 0.5630 0.8264 -0.0000
vn 0.8364 0.5481 -0.0000
vn 0.1988 0.9800 -0.0000
vn 0.1836 0.9800 0.0761
vn 0.1405 0.9800 0.1405
vn 0.0761 0.9800 0.1836
vn -0.0000 0.1915 0.9815
vn -0.0000 0.8264 0.5630
vn -0.0000 0.5481 0.8364
vn -0.0000 0.9800 0.1988
vn -0.0761 0.9800 0.1836
vn -0.1405 0.9800 0.1405
vn -0.1836 0.9800 0.0761
vn -0.9815 0.1915 -0.0000
vn -0.5630 0.8264 -0.0000
vn -0.8364 0.5481 -0.0000
vn -0.1988 0.9800 -0.0000
vn -0.1836 0.9800 -0.0761
vn -0.1405 0.9800 -0.1405
vn -0.0761 0.9800 -0.1836
vt 0.338624 0.091206
vt 0.381071 0.130207
vt 0.365051 0.140711
vt 0.409281 0.169016
vt 0.432182 0.208682
vt 0.394501 0.222481
vt 0.381531 0.182178
vt 0.451492 0.256112
vt 0.402326 0.266158
vt 0.347732 0.145642
vt 0.330016 0.146179
vt 0.312456 0.141101
vt 0.296346 0.130850
vt 0.295459 0.182818
vt 0.284358 0.223456
vt 0.244594 0.210062
vt 0.267747 0.169000
vt 0.275093 0.266576
vt 0.226719 0.257354
vt 0.282839 0.114720
vt 0.271987 0.092137
vt 0.270970 0.062762
vt 0.190571 0.069258
vt 0.124883 0.108379
vt 0.070016 0.033572
vt 0.179553 0.001319
vt 0.283183 0.028242
vt 0.074429 0.162461
vt 0.000083 0.121168
vt 0.318301 0.009603
vt 0.358153 0.009202
vt 0.393809 0.027216
vt 0.498784 0.000083
vt 0.488295 0.067996
vt 0.406386 0.061847
vt 0.606982 0.032380
vt 0.686976 0.112853
vt 0.606839 0.163993
vt 0.556923 0.106587
vt 0.405526 0.091430
vt 0.459644 0.746797
vt 0.411659 0.737873
vt 0.079362 0.841152
vt 0.000083 0.891661
vt 0.394654 0.114142
vt 0.284299 0.737172
vt 0.235570 0.747265
vt 0.684107 0.885091
vt 0.608720 0.838743
vt 0.390164 0.874124
vt 0.347479 0.913970
vt 0.373912 0.863472
vt 0.442196 0.793533
vt 0.402829 0.781096
vt 0.419316 0.834624
vt 0.390951 0.821671
vt 0.356201 0.858408
vt 0.338313 0.858956
vt 0.320787 0.863928
vt 0.293445 0.781098
vt 0.254907 0.793851
vt 0.304359 0.821910
vt 0.304541 0.874179
vt 0.275944 0.835495
vt 0.290842 0.890394
vt 0.279752 0.913258
vt 0.278654 0.942980
vt 0.128686 0.898760
vt 0.080097 0.970216
vt 0.196354 0.936657
vt 0.290859 0.980007
vt 0.184261 0.999917
vt 0.327625 0.998566
vt 0.368763 0.998122
vt 0.405043 0.978816
vt 0.610151 0.961186
vt 0.561500 0.893674
vt 0.511547 0.994052
vt 0.416077 0.941632
vt 0.497787 0.932953
vt 0.414146 0.912247
vt 0.403888 0.890381
s 0
usemtl Material.001
f 24/1/1 3/2/1 7/3/1
f 41/4/2 2/5/2 5/6/2 6/7/2
f 3/2/3 41/4/3 6/7/3 7/3/3
f 2/5/4 1/8/4 4/9/4 5/6/4
f 24/1/5 7/3/5 8/10/5
f 24/1/6 8/10/6 9/11/6
f 24/1/7 9/11/7 13/12/7
f 24/1/8 13/12/8 17/13/8
f 12/14/9 11/15/9 15/16/9 16/17/9
f 13/12/10 12/14/10 16/17/10 17/13/10
f 11/15/11 10/18/11 14/19/11 15/16/11
f 24/1/12 17/13/12 18/20/12
f 24/1/13 18/20/13 19/21/13
f 24/1/14 19/21/14 23/22/14
f 22/23/15 21/24/15 26/25/15 27/26/15
f 23/22/16 22/23/16 27/26/16 28/27/16
f 21/24/17 20/28/17 25/29/17 26/25/17
f 24/1/18 23/22/18 28/27/18
f 24/1/19 28/27/19 29/30/19
f 24/1/20 29/30/20 30/31/20
f 24/1/21 30/31/21 34/32/21
f 34/32/22 33/33/22 37/34/22 38/35/22
f 32/36/23 31/37/23 35/38/23 36/39/23
f 24/1/24 34/32/24 38/35/24
f 33/33/25 32/36/25 36/39/25 37/34/25
f 24/1/26 38/35/26 39/40/26
f 4/9/27 1/8/27 43/41/27 47/42/27
f 25/29/28 20/28/28 63/43/28 68/44/28
f 24/1/29 39/40/29 40/45/29
f 24/1/30 40/45/30 3/2/30
f 14/19/31 10/18/31 53/46/31 57/47/31
f 35/38/32 31/37/32 74/48/32 78/49/32
f 81/50/33 64/51/33 44/52/33
f 43/41/34 42/53/34 46/54/34 47/42/34
f 82/55/35 81/50/35 44/52/35 45/56/35
f 42/53/36 82/55/36 45/56/36 46/54/36
f 44/52/37 64/51/37 48/57/37
f 48/57/38 64/51/38 49/58/38
f 49/58/39 64/51/39 50/59/39
f 53/46/40 52/60/40 56/61/40 57/47/40
f 51/62/41 50/59/41 54/63/41 55/64/41
f 52/60/42 51/62/42 55/64/42 56/61/42
f 50/59/43 64/51/43 54/63/43
f 54/63/44 64/51/44 58/65/44
f 58/65/45 64/51/45 59/66/45
f 59/66/46 64/51/46 60/67/46
f 63/43/47 62/68/47 67/69/47 68/44/47
f 61/70/48 60/67/48 65/71/48 66/72/48
f 62/68/49 61/70/49 66/72/49 67/69/49
f 60/67/50 64/51/50 65/71/50
f 65/71/51 64/51/51 69/73/51
f 69/73/52 64/51/52 70/74/52
f 70/74/53 64/51/53 71/75/53
f 74/48/54 73/76/54 77/77/54 78/49/54
f 72/78/55 71/75/55 75/79/55 76/80/55
f 73/76/56 72/78/56 76/80/56 77/77/56
f 71/75/57 64/51/57 75/79/57
f 75/79/58 64/51/58 79/81/58
f 79/81/59 64/51/59 80/82/59
f 80/82/60 64/51/60 81/50/60
