# Blender 4.1.1
# www.blender.org
mtllib camera.mtl
o Cube
v 1.430981 1.000000 1.000000
v 1.430981 -1.000000 1.000000
v -1.430981 1.000000 1.000000
v -1.430981 -1.000000 1.000000
v 1.430981 1.000000 -1.000000
v 1.430981 -1.000000 -1.000000
v -1.430981 1.000000 -1.000000
v -1.430981 -1.000000 -1.000000
v 0.890239 0.622118 -1.000000
v 0.890239 -0.622118 -1.000000
v -0.890239 0.622118 -1.000000
v -0.890239 -0.622118 -1.000000
v 1.270552 0.887889 -1.892664
v 1.270552 -0.887889 -1.892664
v -1.270551 0.887889 -1.892664
v -1.270551 -0.887889 -1.892664
vn -0.0000 1.0000 -0.0000
vn -1.0000 -0.0000 -0.0000
vn -0.0000 -0.0000 -1.0000
vn -0.0000 -1.0000 -0.0000
vn -0.0000 -0.0000 1.0000
vn 1.0000 -0.0000 -0.0000
vn -0.0000 -0.9584 0.2853
vn -0.0000 0.9584 0.2853
vn -0.9200 -0.0000 0.3920
vn 0.9200 -0.0000 0.3920
vt 0.359291 0.363729
vt 0.359291 0.444710
vt 0.243409 0.444710
vt 0.243409 0.363729
vt 0.243409 0.606672
vt 0.162428 0.606672
vt 0.162428 0.525691
vt 0.243409 0.525691
vt 0.359291 0.525691
vt 0.265303 0.510390
vt 0.337396 0.510390
vt 0.359291 0.606672
vt 0.359291 0.687653
vt 0.243409 0.687653
vt 0.440272 0.525691
vt 0.440272 0.606672
vt 0.888853 0.366917
vt 0.856858 0.206715
vt 0.933827 0.155758
vt 0.979491 0.384400
vt 0.337396 0.460010
vt 0.265303 0.460010
vt 0.770352 0.779770
vt 0.698325 0.633620
vt 0.907464 0.530551
vt 0.979491 0.676701
vt 0.662254 0.529690
vt 0.838386 0.469321
vt 0.770928 0.131552
vt 0.811188 0.048486
s 0
usemtl Material
f 1/1/1 5/2/1 7/3/1 3/4/1
f 4/5/2 3/6/2 7/7/2 8/8/2
f 6/9/3 8/8/3 12/10/3 10/11/3
f 6/9/4 2/12/4 4/5/4 8/8/4
f 2/12/5 1/13/5 3/14/5 4/5/5
f 6/9/6 5/15/6 1/16/6 2/12/6
f 10/17/7 12/18/7 16/19/7 14/20/7
f 7/3/3 5/2/3 9/21/3 11/22/3
f 5/2/3 6/9/3 10/11/3 9/21/3
f 8/8/3 7/3/3 11/22/3 12/10/3
f 16/23/3 15/24/3 13/25/3 14/26/3
f 11/27/8 9/28/8 13/25/8 15/24/8
f 12/18/9 11/29/9 15/30/9 16/19/9
f 9/28/10 10/17/10 14/20/10 13/25/10
