# Blender 4.1.1
# www.blender.org
mtllib sound.mtl
o Cube
v -0.039814 0.161358 -0.161358
v -0.039814 -0.161358 -0.161358
v -0.039814 0.161358 0.161358
v -0.039814 -0.161358 0.161358
v -0.203628 0.161358 -0.161358
v -0.203628 -0.161358 -0.161358
v -0.203628 0.161358 0.161358
v -0.203628 -0.161358 0.161358
v 0.207311 0.327955 -0.327955
v 0.207311 -0.327955 -0.327955
v 0.207311 0.327955 0.327955
v 0.207311 -0.327955 0.327955
v 0.207311 0.249294 -0.249294
v 0.207311 -0.249294 -0.249294
v 0.207311 0.249294 0.249294
v 0.207311 -0.249294 0.249294
v 0.058677 0.146838 -0.146838
v 0.058677 -0.146838 -0.146838
v 0.058677 0.146838 0.146838
v 0.058677 -0.146838 0.146838
v 0.058677 0.089122 -0.089122
v 0.058677 -0.089122 -0.089122
v 0.058677 0.089122 0.089122
v 0.058677 -0.089122 0.089122
v 0.186171 0.048687 -0.048687
v 0.186171 -0.048687 -0.048687
v 0.186171 0.048687 0.048687
v 0.186171 -0.048687 0.048687
vn -0.0000 1.0000 -0.0000
vn -0.0000 -0.0000 1.0000
vn -1.0000 -0.0000 -0.0000
vn -0.0000 -1.0000 -0.0000
vn -0.5590 -0.0000 0.8292
vn -0.0000 -0.0000 -1.0000
vn 1.0000 -0.0000 -0.0000
vn -0.5590 -0.0000 -0.8292
vn -0.5590 -0.8292 -0.0000
vn -0.5590 0.8292 -0.0000
vn 0.5675 -0.0000 -0.8233
vn 0.5675 -0.8233 -0.0000
vn 0.5675 -0.0000 0.8233
vn 0.5675 0.8233 -0.0000
vn 0.3023 -0.9532 -0.0000
vn 0.3023 -0.0000 0.9532
vn 0.3023 0.9532 -0.0000
vn 0.3023 -0.0000 -0.9532
vt 0.340154 0.775997
vt 0.309174 0.737519
vt 0.307657 0.698437
vt 0.361727 0.654856
vt 0.238822 0.650172
vt 0.269802 0.688650
vt 0.271319 0.727732
vt 0.217249 0.771313
vt 0.121009 0.553884
vt 0.448622 0.540005
vt 0.130355 0.886164
vt 0.040193 0.967299
vt 0.040193 0.465660
vt 0.457967 0.872285
vt 0.965405 0.346894
vt 0.663956 0.346894
vt 0.746088 0.253667
vt 0.872176 0.264762
vt 0.538783 0.458870
vt 0.538783 0.960509
vt 0.883266 0.138673
vt 0.849144 0.237258
vt 0.855763 0.161706
vt 0.965399 0.045446
vt 0.663950 0.045446
vt 0.757179 0.127578
vt 0.590823 0.944110
vt 0.588644 0.746049
vt 0.675050 0.818617
vt 0.664453 0.858516
vt 0.780211 0.155082
vt 0.773592 0.230634
vt 0.714159 0.831642
vt 0.703562 0.871542
vt 0.789968 0.944110
vt 0.787789 0.746049
s 0
usemtl Material
f 1/1/1 5/2/1 7/3/1 3/4/1
f 4/5/2 3/4/2 7/3/2 8/6/2
f 8/6/3 7/3/3 5/2/3 6/7/3
f 6/7/4 2/8/4 4/5/4 8/6/4
f 3/4/5 4/5/5 12/9/5 11/10/5
f 6/7/6 5/2/6 1/1/6 2/8/6
f 12/9/7 10/11/7 14/12/7 16/13/7
f 2/8/8 1/1/8 9/14/8 10/11/8
f 4/5/9 2/8/9 10/11/9 12/9/9
f 1/1/10 3/4/10 11/10/10 9/14/10
f 15/15/11 16/16/11 20/17/11 19/18/11
f 11/10/7 12/9/7 16/13/7 15/19/7
f 9/14/7 11/10/7 15/19/7 13/20/7
f 10/11/7 9/14/7 13/20/7 14/12/7
f 17/21/7 19/18/7 23/22/7 21/23/7
f 13/24/12 15/15/12 19/18/12 17/21/12
f 14/25/13 13/24/13 17/21/13 18/26/13
f 16/16/14 14/25/14 18/26/14 20/17/14
f 24/27/15 22/28/15 26/29/15 28/30/15
f 18/26/7 17/21/7 21/23/7 22/31/7
f 20/17/7 18/26/7 22/31/7 24/32/7
f 19/18/7 20/17/7 24/32/7 23/22/7
f 26/29/7 25/33/7 27/34/7 28/30/7
f 23/35/16 24/27/16 28/30/16 27/34/16
f 21/36/17 23/35/17 27/34/17 25/33/17
f 22/28/18 21/36/18 25/33/18 26/29/18
