# Blender 4.1.1
# www.blender.org
mtllib level0.mtl
o Cube
v -2.628035 11.845929 -11.845929
v -2.628035 -11.845929 -11.845929
v -2.628035 11.845929 11.845929
v -2.628035 -11.845929 11.845929
v -26.319893 11.845929 -11.845929
v -26.319893 -11.845929 -11.845929
v -26.319893 11.845929 11.845929
v -26.319893 -11.845929 11.845929
v -2.628035 11.845929 0.000000
v -2.628035 0.000000 -11.845929
v -2.628035 -11.845929 0.000000
v -2.628035 0.000000 11.845929
v -14.473965 11.845929 11.845929
v -14.473965 -11.845929 11.845929
v -26.319893 0.000000 11.845929
v -26.319893 11.845929 0.000000
v -26.319893 -11.845929 0.000000
v -26.319893 0.000000 -11.845929
v -14.473965 11.845929 -11.845929
v -14.473965 -11.845929 -11.845929
v -14.473965 -11.845929 0.000000
v -14.473965 11.845929 0.000000
v -14.473965 0.000000 -11.845929
v -26.319893 0.000000 0.000000
v -14.473965 0.000000 11.845929
v -4.056306 -5.700990 0.000000
v -2.628035 11.845929 -5.922965
v -2.628035 -5.922965 -11.845929
v -2.628035 -11.845929 5.922965
v -2.628035 5.922965 11.845929
v -8.551000 11.845929 11.845929
v -20.396929 -11.845929 11.845929
v -26.319893 5.922965 11.845929
v -26.319893 11.845929 5.922965
v -26.319893 -11.845929 -5.922965
v -26.319893 5.922965 -11.845929
v -20.396929 11.845929 -11.845929
v -8.551000 -11.845929 -11.845929
v -2.628035 11.845929 5.922965
v -2.628035 5.922965 -11.845929
v -2.628035 -11.845929 -5.922965
v -2.628035 -5.922965 11.845929
v -20.396929 11.845929 11.845929
v -8.551000 -11.845929 11.845929
v -26.319893 -5.922965 11.845929
v -26.319893 11.845929 -5.922965
v -26.319893 -11.845929 5.922965
v -26.319893 -5.922965 -11.845929
v -8.551000 11.845929 -11.845929
v -20.396929 -11.845929 -11.845929
v -14.473965 -11.845929 -5.922965
v -14.473965 -11.845929 5.922965
v -20.396929 -11.845929 0.000000
v -8.551000 -11.845929 0.000000
v -14.473965 11.845929 -5.922965
v -14.473965 11.845929 5.922965
v -8.551000 11.845929 0.000000
v -20.396929 11.845929 0.000000
v -8.551000 0.000000 -11.845929
v -20.396929 0.000000 -11.845929
v -14.473965 5.922965 -11.845929
v -14.473965 -5.922965 -11.845929
v -26.319893 0.000000 -5.922965
v -26.319893 0.000000 5.922965
v -26.319893 5.922965 0.000000
v -26.438963 -4.365623 0.000000
v -20.396929 0.000000 11.845929
v -8.551000 0.000000 11.845929
v -14.473965 5.922965 11.845929
v -14.473965 -5.922965 11.845929
v -2.628035 0.000000 6.885863
v -2.628035 0.000000 -6.885863
v -2.628035 6.885863 0.000000
v -2.628035 -6.885863 -0.000000
v -2.628035 -4.869040 -4.869040
v -2.628035 4.869040 -4.869040
v -2.628035 4.869040 4.869040
v -8.551000 -5.922965 11.845929
v -8.551000 5.922965 11.845929
v -20.396929 5.922965 11.845929
v -26.319893 -5.922965 5.922965
v -26.319893 5.922965 5.922965
v -26.319893 5.922965 -5.922965
v -20.396929 -5.922965 -11.845929
v -20.396929 5.922965 -11.845929
v -8.551000 5.922965 -11.845929
v -20.396929 11.845929 5.922965
v -8.551000 11.845929 5.922965
v -8.551000 11.845929 -5.922965
v -8.551000 -11.845929 5.922965
v -20.396929 -11.845929 5.922965
v -20.396929 -11.845929 -5.922965
v -8.551000 -11.845929 -5.922965
v -20.396929 11.845929 -5.922965
v -8.551000 -5.922965 -11.845929
v -26.319893 -5.922965 -5.922965
v -20.396929 -5.922965 11.845929
v -2.628035 -4.869040 4.869040
v -2.628035 11.845929 -8.884447
v -2.628035 -8.884447 -11.845929
v -2.628035 -11.845929 8.884447
v -2.628035 8.884447 11.845929
v -5.589518 11.845929 11.845929
v -23.358412 -11.845929 11.845929
v -26.319893 8.884447 11.845929
v -26.319893 11.845929 8.884447
v -26.319893 -11.845929 -8.884447
v -26.319893 8.884447 -11.845929
v -23.358412 11.845929 -11.845929
v -5.589518 -11.845929 -11.845929
v -2.628035 11.845929 2.961482
v -2.628035 2.961482 -11.845929
v -2.628035 -11.845929 -2.961482
v -2.628035 -2.961482 11.845929
v -17.435448 11.845929 11.845929
v -11.512483 -11.845929 11.845929
v -26.319893 -2.961482 11.845929
v -26.319893 11.845929 -2.961482
v -26.319893 -11.845929 2.961482
v -26.319893 -2.961482 -11.845929
v -11.512483 11.845929 -11.845929
v -17.435448 -11.845929 -11.845929
v -14.473965 -11.845929 -8.884447
v -14.473965 -11.845929 2.961482
v -23.358412 -11.845929 0.000000
v -11.512483 -11.845929 0.000000
v -14.473965 11.845929 -8.884447
v -14.473965 11.845929 2.961482
v -5.589518 11.845929 0.000000
v -17.435448 11.845929 0.000000
v -5.589518 0.000000 -11.845929
v -17.435448 0.000000 -11.845929
v -14.473965 8.884447 -11.845929
v -14.473965 -2.961482 -11.845929
v -26.319893 0.000000 -8.884447
v -26.319893 0.000000 2.961482
v -26.319893 8.884447 0.000000
v -26.438963 -2.961482 0.000000
v -23.358412 0.000000 11.845929
v -11.512483 0.000000 11.845929
v -14.473965 8.884447 11.845929
v -14.473965 -2.961482 11.845929
v -2.628035 0.000000 8.884447
v -4.056306 -5.267028 -2.181674
v -2.628035 8.884447 0.000000
v -4.056306 5.700990 0.000000
v -2.628035 11.845929 -2.961482
v -2.628035 -2.961482 -11.845929
v -2.628035 -11.845929 2.961482
v -2.628035 2.961482 11.845929
v -11.512483 11.845929 11.845929
v -17.435448 -11.845929 11.845929
v -26.319893 2.961482 11.845929
v -26.319893 11.845929 2.961482
v -26.319893 -11.845929 -2.961482
v -26.319893 2.961482 -11.845929
v -17.435448 11.845929 -11.845929
v -11.512483 -11.845929 -11.845929
v -2.628035 11.845929 8.884447
v -2.628035 8.884447 -11.845929
v -2.628035 -11.845929 -8.884447
v -2.628035 -8.884447 11.845929
v -23.358412 11.845929 11.845929
v -5.589518 -11.845929 11.845929
v -26.319893 -8.884447 11.845929
v -26.319893 11.845929 -8.884447
v -26.319893 -11.845929 8.884447
v -26.319893 -8.884447 -11.845929
v -5.589518 11.845929 -11.845929
v -23.358412 -11.845929 -11.845929
v -14.473965 -11.845929 -2.961482
v -14.473965 -11.845929 8.884447
v -17.435448 -11.845929 0.000000
v -5.589518 -11.845929 0.000000
v -14.473965 11.845929 -2.961482
v -14.473965 11.845929 8.884447
v -11.512483 11.845929 0.000000
v -23.358412 11.845929 0.000000
v -11.512483 0.000000 -11.845929
v -23.358412 0.000000 -11.845929
v -14.473965 2.961482 -11.845929
v -14.473965 -8.884447 -11.845929
v -26.319893 0.000000 -2.961482
v -26.319893 0.000000 8.884447
v -26.319893 2.961482 0.000000
v -26.319893 -8.884447 0.000000
v -17.435448 0.000000 11.845929
v -5.589518 0.000000 11.845929
v -14.473965 2.961482 11.845929
v -14.473965 -8.884447 11.845929
v -2.628035 0.000000 -8.884447
v -4.056306 -0.000000 5.700990
v -2.628035 -8.884447 0.000000
v -2.628035 -6.361708 -2.635106
v -2.628035 -5.922965 -8.884447
v -2.628035 -2.635106 -6.361708
v -2.628035 -8.884447 -5.922965
v -2.628035 6.361708 -2.635106
v -2.628035 5.922965 -8.884447
v -2.628035 8.884447 -5.922965
v -2.628035 2.635106 -6.361708
v -2.628035 5.922965 8.884447
v -2.628035 6.361708 2.635106
v -2.628035 8.884447 5.922965
v -2.628035 2.635106 6.361708
v -11.512483 -5.922965 11.845929
v -5.589518 -5.922965 11.845929
v -8.551000 -2.961482 11.845929
v -8.551000 -8.884447 11.845929
v -11.512483 5.922965 11.845929
v -5.589518 5.922965 11.845929
v -8.551000 8.884447 11.845929
v -8.551000 2.961482 11.845929
v -23.358412 5.922965 11.845929
v -17.435448 5.922965 11.845929
v -20.396929 8.884447 11.845929
v -20.396929 2.961482 11.845929
v -26.438963 -4.365623 2.961482
v -26.319893 -5.922965 8.884447
v -26.319893 -2.961482 5.922965
v -26.319893 -8.884447 5.922965
v -26.319893 5.922965 2.961482
v -26.319893 5.922965 8.884447
v -26.319893 8.884447 5.922965
v -26.319893 2.961482 5.922965
v -26.319893 5.922965 -8.884447
v -26.319893 5.922965 -2.961482
v -26.319893 8.884447 -5.922965
v -26.319893 2.961482 -5.922965
v -17.435448 -5.922965 -11.845929
v -23.358412 -5.922965 -11.845929
v -20.396929 -2.961482 -11.845929
v -20.396929 -8.884447 -11.845929
v -17.435448 5.922965 -11.845929
v -23.358412 5.922965 -11.845929
v -20.396929 8.884447 -11.845929
v -20.396929 2.961482 -11.845929
v -5.589518 5.922965 -11.845929
v -11.512483 5.922965 -11.845929
v -8.551000 8.884447 -11.845929
v -8.551000 2.961482 -11.845929
v -20.396929 11.845929 2.961482
v -20.396929 11.845929 8.884447
v -17.435448 11.845929 5.922965
v -23.358412 11.845929 5.922965
v -8.551000 11.845929 2.961482
v -8.551000 11.845929 8.884447
v -5.589518 11.845929 5.922965
v -11.512483 11.845929 5.922965
v -8.551000 11.845929 -8.884447
v -8.551000 11.845929 -2.961482
v -5.589518 11.845929 -5.922965
v -11.512483 11.845929 -5.922965
v -8.551000 -11.845929 2.961482
v -8.551000 -11.845929 8.884447
v -11.512483 -11.845929 5.922965
v -5.589518 -11.845929 5.922965
v -20.396929 -11.845929 2.961482
v -20.396929 -11.845929 8.884447
v -23.358412 -11.845929 5.922965
v -17.435448 -11.845929 5.922965
v -20.396929 -11.845929 -8.884447
v -20.396929 -11.845929 -2.961482
v -23.358412 -11.845929 -5.922965
v -17.435448 -11.845929 -5.922965
v -8.551000 -11.845929 -8.884447
v -8.551000 -11.845929 -2.961482
v -11.512483 -11.845929 -5.922965
v -5.589518 -11.845929 -5.922965
v -20.396929 11.845929 -8.884447
v -20.396929 11.845929 -2.961482
v -17.435448 11.845929 -5.922965
v -23.358412 11.845929 -5.922965
v -5.589518 -5.922965 -11.845929
v -11.512483 -5.922965 -11.845929
v -8.551000 -2.961482 -11.845929
v -8.551000 -8.884447 -11.845929
v -26.319893 -5.922965 -8.884447
v -26.438963 -4.365623 -2.961482
v -26.319893 -2.961482 -5.922965
v -26.319893 -8.884447 -5.922965
v -23.358412 -5.922965 11.845929
v -17.435448 -5.922965 11.845929
v -20.396929 -2.961482 11.845929
v -20.396929 -8.884447 11.845929
v -2.628035 -5.922965 8.884447
v -2.628035 -6.361708 2.635106
v -2.628035 -2.635106 6.361708
v -2.628035 -8.884447 5.922965
v -2.628035 -8.884447 2.961482
v -2.628035 -2.961482 8.884447
v -17.435448 -8.884447 11.845929
v -17.435448 -2.961482 11.845929
v -23.358412 -2.961482 11.845929
v -26.319893 -8.884447 -2.961482
v -26.438963 -2.961482 -2.961482
v -26.319893 -2.961482 -8.884447
v -11.512483 -8.884447 -11.845929
v -11.512483 -2.961482 -11.845929
v -5.589518 -2.961482 -11.845929
v -23.358412 11.845929 -2.961482
v -17.435448 11.845929 -2.961482
v -17.435448 11.845929 -8.884447
v -5.589518 -11.845929 -2.961482
v -11.512483 -11.845929 -2.961482
v -11.512483 -11.845929 -8.884447
v -17.435448 -11.845929 -2.961482
v -23.358412 -11.845929 -2.961482
v -23.358412 -11.845929 -8.884447
v -17.435448 -11.845929 8.884447
v -23.358412 -11.845929 8.884447
v -23.358412 -11.845929 2.961482
v -5.589518 -11.845929 8.884447
v -11.512483 -11.845929 8.884447
v -11.512483 -11.845929 2.961482
v -11.512483 11.845929 -2.961482
v -5.589518 11.845929 -2.961482
v -5.589518 11.845929 -8.884447
v -11.512483 11.845929 8.884447
v -5.589518 11.845929 8.884447
v -5.589518 11.845929 2.961482
v -23.358412 11.845929 8.884447
v -17.435448 11.845929 8.884447
v -17.435448 11.845929 2.961482
v -11.512483 2.961482 -11.845929
v -11.512483 8.884447 -11.845929
v -5.589518 8.884447 -11.845929
v -23.358412 2.961482 -11.845929
v -23.358412 8.884447 -11.845929
v -17.435448 8.884447 -11.845929
v -23.358412 -8.884447 -11.845929
v -23.358412 -2.961482 -11.845929
v -17.435448 -2.961482 -11.845929
v -26.319893 2.961482 -2.961482
v -26.319893 8.884447 -2.961482
v -26.319893 8.884447 -8.884447
v -26.319893 2.961482 8.884447
v -26.319893 8.884447 8.884447
v -26.319893 8.884447 2.961482
v -26.319893 -8.884447 8.884447
v -26.319893 -2.961482 8.884447
v -26.438963 -2.961482 2.961482
v -17.435448 2.961482 11.845929
v -17.435448 8.884447 11.845929
v -23.358412 8.884447 11.845929
v -5.589518 2.961482 11.845929
v -5.589518 8.884447 11.845929
v -11.512483 8.884447 11.845929
v -5.589518 -8.884447 11.845929
v -5.589518 -2.961482 11.845929
v -11.512483 -2.961482 11.845929
v -2.628035 8.884447 2.961482
v -2.628035 8.884447 8.884447
v -2.628035 2.961482 -8.884447
v -2.628035 8.884447 -8.884447
v -2.628035 8.884447 -2.961482
v -2.628035 -8.884447 -8.884447
v -2.628035 -2.961482 -8.884447
v -2.628035 -8.884447 -2.961482
v -2.628035 2.961482 8.884447
v -11.512483 -8.884447 11.845929
v -11.512483 2.961482 11.845929
v -23.358412 2.961482 11.845929
v -26.319893 -8.884447 2.961482
v -26.319893 2.961482 2.961482
v -26.319893 2.961482 -8.884447
v -17.435448 -8.884447 -11.845929
v -17.435448 2.961482 -11.845929
v -5.589518 2.961482 -11.845929
v -23.358412 11.845929 2.961482
v -11.512483 11.845929 2.961482
v -11.512483 11.845929 -8.884447
v -5.589518 -11.845929 2.961482
v -17.435448 -11.845929 2.961482
v -17.435448 -11.845929 -8.884447
v -5.589518 -11.845929 -8.884447
v -23.358412 11.845929 -8.884447
v -5.589518 -8.884447 -11.845929
v -26.319893 -8.884447 -8.884447
v -23.358412 -8.884447 11.845929
v -2.628035 -8.884447 8.884447
v -4.056307 0.000000 6.885863
v -4.056307 6.885863 0.000000
v -4.056307 -6.361708 -2.635106
v -4.056307 -6.885863 -0.000000
v -4.056307 -2.635106 -6.361708
v -4.056307 0.000000 -6.885863
v -4.056307 6.361708 -2.635106
v -4.056307 2.635106 -6.361708
v -4.056307 4.869040 -4.869040
v -4.056307 6.361708 2.635106
v -4.056307 4.869040 4.869040
v -4.056307 2.635106 6.361708
v -4.056307 -6.361708 2.635106
v -4.056307 -4.869040 4.869040
v -4.056307 -2.635106 6.361708
v -4.056307 -4.869040 -4.869040
v -4.056306 -2.181674 -5.267028
v -4.056306 -0.000000 -5.700990
v -4.056306 5.267028 -2.181674
v -4.056306 2.181674 -5.267028
v -4.056306 4.031209 -4.031209
v -4.056306 5.267028 2.181674
v -4.056306 4.031209 4.031209
v -4.056306 2.181674 5.267028
v -4.056306 -5.267028 2.181674
v -4.056306 -4.031209 4.031209
v -4.056306 -2.181674 5.267028
v -4.056306 -4.031209 -4.031209
v 0.000000 2.181674 -5.267028
v 0.000000 4.031209 -4.031209
v 0.000000 5.267028 -2.181674
v 0.000000 5.700990 0.000000
v 0.000000 -2.181674 -5.267028
v 0.000000 -0.000000 -5.700990
v 0.000000 -5.267028 -2.181674
v 0.000000 -5.700990 0.000000
v 0.000000 -0.000000 5.700990
v 0.000000 5.267028 2.181674
v 0.000000 4.031209 4.031209
v 0.000000 2.181674 5.267028
v 0.000000 -5.267028 2.181674
v 0.000000 -4.031209 4.031209
v 0.000000 -2.181674 5.267028
v 0.000000 -4.031209 -4.031209
v 2.628035 11.845929 -11.845929
v 2.628035 -11.845929 -11.845929
v 2.628035 11.845929 11.845929
v 2.628035 -11.845929 11.845929
v 26.319893 11.845929 -11.845929
v 26.319893 -11.845929 -11.845929
v 26.319893 11.845929 11.845929
v 26.319893 -11.845929 11.845929
v 2.628035 11.845929 0.000000
v 2.628035 0.000000 -11.845929
v 2.628035 -11.845929 0.000000
v 2.628035 0.000000 11.845929
v 14.473965 11.845929 11.845929
v 14.473965 -11.845929 11.845929
v 26.319893 0.000000 11.845929
v 26.319893 11.845929 0.000000
v 26.319893 -11.845929 0.000000
v 26.319893 0.000000 -11.845929
v 14.473965 11.845929 -11.845929
v 14.473965 -11.845929 -11.845929
v 14.473965 -11.845929 0.000000
v 14.473965 11.845929 0.000000
v 14.473965 0.000000 -11.845929
v 26.319893 0.000000 0.000000
v 14.473965 0.000000 11.845929
v 4.056306 -5.700990 0.000000
v 2.628035 11.845929 -5.922965
v 2.628035 -5.922965 -11.845929
v 2.628035 -11.845929 5.922965
v 2.628035 5.922965 11.845929
v 8.551000 11.845929 11.845929
v 20.396929 -11.845929 11.845929
v 26.319893 5.922965 11.845929
v 26.319893 11.845929 5.922965
v 26.319893 -11.845929 -5.922965
v 26.319893 5.922965 -11.845929
v 20.396929 11.845929 -11.845929
v 8.551000 -11.845929 -11.845929
v 2.628035 11.845929 5.922965
v 2.628035 5.922965 -11.845929
v 2.628035 -11.845929 -5.922965
v 2.628035 -5.922965 11.845929
v 20.396929 11.845929 11.845929
v 8.551000 -11.845929 11.845929
v 26.319893 -5.922965 11.845929
v 26.319893 11.845929 -5.922965
v 26.319893 -11.845929 5.922965
v 26.319893 -5.922965 -11.845929
v 8.551000 11.845929 -11.845929
v 20.396929 -11.845929 -11.845929
v 14.473965 -11.845929 -5.922965
v 14.473965 -11.845929 5.922965
v 20.396929 -11.845929 0.000000
v 8.551000 -11.845929 0.000000
v 14.473965 11.845929 -5.922965
v 14.473965 11.845929 5.922965
v 8.551000 11.845929 0.000000
v 20.396929 11.845929 0.000000
v 8.551000 0.000000 -11.845929
v 20.396929 0.000000 -11.845929
v 14.473965 5.922965 -11.845929
v 14.473965 -5.922965 -11.845929
v 26.319893 0.000000 -5.922965
v 26.319893 0.000000 5.922965
v 26.319893 5.922965 0.000000
v 26.319893 -4.365623 0.000000
v 20.396929 0.000000 11.845929
v 8.551000 0.000000 11.845929
v 14.473965 5.922965 11.845929
v 14.473965 -5.922965 11.845929
v 2.628035 0.000000 6.885863
v 2.628035 0.000000 -6.885863
v 2.628035 6.885863 0.000000
v 2.628035 -6.885863 -0.000000
v 2.628035 -4.869040 -4.869040
v 2.628035 4.869040 -4.869040
v 2.628035 4.869040 4.869040
v 8.551000 -5.922965 11.845929
v 8.551000 5.922965 11.845929
v 20.396929 5.922965 11.845929
v 26.319893 -5.922965 5.922965
v 26.319893 5.922965 5.922965
v 26.319893 5.922965 -5.922965
v 20.396929 -5.922965 -11.845929
v 20.396929 5.922965 -11.845929
v 8.551000 5.922965 -11.845929
v 20.396929 11.845929 5.922965
v 8.551000 11.845929 5.922965
v 8.551000 11.845929 -5.922965
v 8.551000 -11.845929 5.922965
v 20.396929 -11.845929 5.922965
v 20.396929 -11.845929 -5.922965
v 8.551000 -11.845929 -5.922965
v 20.396929 11.845929 -5.922965
v 8.551000 -5.922965 -11.845929
v 26.319893 -5.922965 -5.922965
v 20.396929 -5.922965 11.845929
v 2.628035 -4.869040 4.869040
v 2.628035 11.845929 -8.884447
v 2.628035 -8.884447 -11.845929
v 2.628035 -11.845929 8.884447
v 2.628035 8.884447 11.845929
v 5.589518 11.845929 11.845929
v 23.358412 -11.845929 11.845929
v 26.319893 8.884447 11.845929
v 26.319893 11.845929 8.884447
v 26.319893 -11.845929 -8.884447
v 26.319893 8.884447 -11.845929
v 23.358412 11.845929 -11.845929
v 5.589518 -11.845929 -11.845929
v 2.628035 11.845929 2.961482
v 2.628035 2.961482 -11.845929
v 2.628035 -11.845929 -2.961482
v 2.628035 -2.961482 11.845929
v 17.435448 11.845929 11.845929
v 11.512483 -11.845929 11.845929
v 26.319893 -2.961482 11.845929
v 26.319893 11.845929 -2.961482
v 26.319893 -11.845929 2.961482
v 26.319893 -2.961482 -11.845929
v 11.512483 11.845929 -11.845929
v 17.435448 -11.845929 -11.845929
v 14.473965 -11.845929 -8.884447
v 14.473965 -11.845929 2.961482
v 23.358412 -11.845929 0.000000
v 11.512483 -11.845929 0.000000
v 14.473965 11.845929 -8.884447
v 14.473965 11.845929 2.961482
v 5.589518 11.845929 0.000000
v 17.435448 11.845929 0.000000
v 5.589518 0.000000 -11.845929
v 17.435448 0.000000 -11.845929
v 14.473965 8.884447 -11.845929
v 14.473965 -2.961482 -11.845929
v 26.319893 0.000000 -8.884447
v 26.319893 0.000000 2.961482
v 26.319893 8.884447 0.000000
v 26.319893 -2.961482 0.000000
v 23.358412 0.000000 11.845929
v 11.512483 0.000000 11.845929
v 14.473965 8.884447 11.845929
v 14.473965 -2.961482 11.845929
v 2.628035 0.000000 8.884447
v 4.056306 -5.267028 -2.181674
v 2.628035 8.884447 0.000000
v 4.056306 5.700990 0.000000
v 2.628035 11.845929 -2.961482
v 2.628035 -2.961482 -11.845929
v 2.628035 -11.845929 2.961482
v 2.628035 2.961482 11.845929
v 11.512483 11.845929 11.845929
v 17.435448 -11.845929 11.845929
v 26.319893 2.961482 11.845929
v 26.319893 11.845929 2.961482
v 26.319893 -11.845929 -2.961482
v 26.319893 2.961482 -11.845929
v 17.435448 11.845929 -11.845929
v 11.512483 -11.845929 -11.845929
v 2.628035 11.845929 8.884447
v 2.628035 8.884447 -11.845929
v 2.628035 -11.845929 -8.884447
v 2.628035 -8.884447 11.845929
v 23.358412 11.845929 11.845929
v 5.589518 -11.845929 11.845929
v 26.319893 -8.884447 11.845929
v 26.319893 11.845929 -8.884447
v 26.319893 -11.845929 8.884447
v 26.319893 -8.884447 -11.845929
v 5.589518 11.845929 -11.845929
v 23.358412 -11.845929 -11.845929
v 14.473965 -11.845929 -2.961482
v 14.473965 -11.845929 8.884447
v 17.435448 -11.845929 0.000000
v 5.589518 -11.845929 0.000000
v 14.473965 11.845929 -2.961482
v 14.473965 11.845929 8.884447
v 11.512483 11.845929 0.000000
v 23.358412 11.845929 0.000000
v 11.512483 0.000000 -11.845929
v 23.358412 0.000000 -11.845929
v 14.473965 2.961482 -11.845929
v 14.473965 -8.884447 -11.845929
v 26.319893 0.000000 -2.961482
v 26.319893 0.000000 8.884447
v 26.319893 2.961482 0.000000
v 26.319893 -8.884447 0.000000
v 17.435448 0.000000 11.845929
v 5.589518 0.000000 11.845929
v 14.473965 2.961482 11.845929
v 14.473965 -8.884447 11.845929
v 2.628035 0.000000 -8.884447
v 4.056306 -0.000000 5.700990
v 2.628035 -8.884447 0.000000
v 2.628035 -6.361708 -2.635106
v 2.628035 -5.922965 -8.884447
v 2.628035 -2.635106 -6.361708
v 2.628035 -8.884447 -5.922965
v 2.628035 6.361708 -2.635106
v 2.628035 5.922965 -8.884447
v 2.628035 8.884447 -5.922965
v 2.628035 2.635106 -6.361708
v 2.628035 5.922965 8.884447
v 2.628035 6.361708 2.635106
v 2.628035 8.884447 5.922965
v 2.628035 2.635106 6.361708
v 11.512483 -5.922965 11.845929
v 5.589518 -5.922965 11.845929
v 8.551000 -2.961482 11.845929
v 8.551000 -8.884447 11.845929
v 11.512483 5.922965 11.845929
v 5.589518 5.922965 11.845929
v 8.551000 8.884447 11.845929
v 8.551000 2.961482 11.845929
v 23.358412 5.922965 11.845929
v 17.435448 5.922965 11.845929
v 20.396929 8.884447 11.845929
v 20.396929 2.961482 11.845929
v 26.319893 -4.365623 2.961482
v 26.319893 -5.922965 8.884447
v 26.319893 -2.961482 5.922965
v 26.319893 -8.884447 5.922965
v 26.319893 5.922965 2.961482
v 26.319893 5.922965 8.884447
v 26.319893 8.884447 5.922965
v 26.319893 2.961482 5.922965
v 26.319893 5.922965 -8.884447
v 26.319893 5.922965 -2.961482
v 26.319893 8.884447 -5.922965
v 26.319893 2.961482 -5.922965
v 17.435448 -5.922965 -11.845929
v 23.358412 -5.922965 -11.845929
v 20.396929 -2.961482 -11.845929
v 20.396929 -8.884447 -11.845929
v 17.435448 5.922965 -11.845929
v 23.358412 5.922965 -11.845929
v 20.396929 8.884447 -11.845929
v 20.396929 2.961482 -11.845929
v 5.589518 5.922965 -11.845929
v 11.512483 5.922965 -11.845929
v 8.551000 8.884447 -11.845929
v 8.551000 2.961482 -11.845929
v 20.396929 11.845929 2.961482
v 20.396929 11.845929 8.884447
v 17.435448 11.845929 5.922965
v 23.358412 11.845929 5.922965
v 8.551000 11.845929 2.961482
v 8.551000 11.845929 8.884447
v 5.589518 11.845929 5.922965
v 11.512483 11.845929 5.922965
v 8.551000 11.845929 -8.884447
v 8.551000 11.845929 -2.961482
v 5.589518 11.845929 -5.922965
v 11.512483 11.845929 -5.922965
v 8.551000 -11.845929 2.961482
v 8.551000 -11.845929 8.884447
v 11.512483 -11.845929 5.922965
v 5.589518 -11.845929 5.922965
v 20.396929 -11.845929 2.961482
v 20.396929 -11.845929 8.884447
v 23.358412 -11.845929 5.922965
v 17.435448 -11.845929 5.922965
v 20.396929 -11.845929 -8.884447
v 20.396929 -11.845929 -2.961482
v 23.358412 -11.845929 -5.922965
v 17.435448 -11.845929 -5.922965
v 8.551000 -11.845929 -8.884447
v 8.551000 -11.845929 -2.961482
v 11.512483 -11.845929 -5.922965
v 5.589518 -11.845929 -5.922965
v 20.396929 11.845929 -8.884447
v 20.396929 11.845929 -2.961482
v 17.435448 11.845929 -5.922965
v 23.358412 11.845929 -5.922965
v 5.589518 -5.922965 -11.845929
v 11.512483 -5.922965 -11.845929
v 8.551000 -2.961482 -11.845929
v 8.551000 -8.884447 -11.845929
v 26.319893 -5.922965 -8.884447
v 26.319893 -4.365623 -2.961482
v 26.319893 -2.961482 -5.922965
v 26.319893 -8.884447 -5.922965
v 23.358412 -5.922965 11.845929
v 17.435448 -5.922965 11.845929
v 20.396929 -2.961482 11.845929
v 20.396929 -8.884447 11.845929
v 2.628035 -5.922965 8.884447
v 2.628035 -6.361708 2.635106
v 2.628035 -2.635106 6.361708
v 2.628035 -8.884447 5.922965
v 2.628035 -8.884447 2.961482
v 2.628035 -2.961482 8.884447
v 17.435448 -8.884447 11.845929
v 17.435448 -2.961482 11.845929
v 23.358412 -2.961482 11.845929
v 26.319893 -8.884447 -2.961482
v 26.319893 -2.961482 -2.961482
v 26.319893 -2.961482 -8.884447
v 11.512483 -8.884447 -11.845929
v 11.512483 -2.961482 -11.845929
v 5.589518 -2.961482 -11.845929
v 23.358412 11.845929 -2.961482
v 17.435448 11.845929 -2.961482
v 17.435448 11.845929 -8.884447
v 5.589518 -11.845929 -2.961482
v 11.512483 -11.845929 -2.961482
v 11.512483 -11.845929 -8.884447
v 17.435448 -11.845929 -2.961482
v 23.358412 -11.845929 -2.961482
v 23.358412 -11.845929 -8.884447
v 17.435448 -11.845929 8.884447
v 23.358412 -11.845929 8.884447
v 23.358412 -11.845929 2.961482
v 5.589518 -11.845929 8.884447
v 11.512483 -11.845929 8.884447
v 11.512483 -11.845929 2.961482
v 11.512483 11.845929 -2.961482
v 5.589518 11.845929 -2.961482
v 5.589518 11.845929 -8.884447
v 11.512483 11.845929 8.884447
v 5.589518 11.845929 8.884447
v 5.589518 11.845929 2.961482
v 23.358412 11.845929 8.884447
v 17.435448 11.845929 8.884447
v 17.435448 11.845929 2.961482
v 11.512483 2.961482 -11.845929
v 11.512483 8.884447 -11.845929
v 5.589518 8.884447 -11.845929
v 23.358412 2.961482 -11.845929
v 23.358412 8.884447 -11.845929
v 17.435448 8.884447 -11.845929
v 23.358412 -8.884447 -11.845929
v 23.358412 -2.961482 -11.845929
v 17.435448 -2.961482 -11.845929
v 26.319893 2.961482 -2.961482
v 26.319893 8.884447 -2.961482
v 26.319893 8.884447 -8.884447
v 26.319893 2.961482 8.884447
v 26.319893 8.884447 8.884447
v 26.319893 8.884447 2.961482
v 26.319893 -8.884447 8.884447
v 26.319893 -2.961482 8.884447
v 26.319893 -2.961482 2.961482
v 17.435448 2.961482 11.845929
v 17.435448 8.884447 11.845929
v 23.358412 8.884447 11.845929
v 5.589518 2.961482 11.845929
v 5.589518 8.884447 11.845929
v 11.512483 8.884447 11.845929
v 5.589518 -8.884447 11.845929
v 5.589518 -2.961482 11.845929
v 11.512483 -2.961482 11.845929
v 2.628035 8.884447 2.961482
v 2.628035 8.884447 8.884447
v 2.628035 2.961482 -8.884447
v 2.628035 8.884447 -8.884447
v 2.628035 8.884447 -2.961482
v 2.628035 -8.884447 -8.884447
v 2.628035 -2.961482 -8.884447
v 2.628035 -8.884447 -2.961482
v 2.628035 2.961482 8.884447
v 11.512483 -8.884447 11.845929
v 11.512483 2.961482 11.845929
v 23.358412 2.961482 11.845929
v 26.319893 -8.884447 2.961482
v 26.319893 2.961482 2.961482
v 26.319893 2.961482 -8.884447
v 17.435448 -8.884447 -11.845929
v 17.435448 2.961482 -11.845929
v 5.589518 2.961482 -11.845929
v 23.358412 11.845929 2.961482
v 11.512483 11.845929 2.961482
v 11.512483 11.845929 -8.884447
v 5.589518 -11.845929 2.961482
v 17.435448 -11.845929 2.961482
v 17.435448 -11.845929 -8.884447
v 5.589518 -11.845929 -8.884447
v 23.358412 11.845929 -8.884447
v 5.589518 -8.884447 -11.845929
v 26.319893 -8.884447 -8.884447
v 23.358412 -8.884447 11.845929
v 2.628035 -8.884447 8.884447
v 4.056307 0.000000 6.885863
v 4.056307 6.885863 0.000000
v 4.056307 -6.361708 -2.635106
v 4.056307 -6.885863 -0.000000
v 4.056307 -2.635106 -6.361708
v 4.056307 0.000000 -6.885863
v 4.056307 6.361708 -2.635106
v 4.056307 2.635106 -6.361708
v 4.056307 4.869040 -4.869040
v 4.056307 6.361708 2.635106
v 4.056307 4.869040 4.869040
v 4.056307 2.635106 6.361708
v 4.056307 -6.361708 2.635106
v 4.056307 -4.869040 4.869040
v 4.056307 -2.635106 6.361708
v 4.056307 -4.869040 -4.869040
v 4.056306 -2.181674 -5.267028
v 4.056306 -0.000000 -5.700990
v 4.056306 5.267028 -2.181674
v 4.056306 2.181674 -5.267028
v 4.056306 4.031209 -4.031209
v 4.056306 5.267028 2.181674
v 4.056306 4.031209 4.031209
v 4.056306 2.181674 5.267028
v 4.056306 -5.267028 2.181674
v 4.056306 -4.031209 4.031209
v 4.056306 -2.181674 5.267028
v 4.056306 -4.031209 -4.031209
v -0.059533 -4.365623 0.000000
v -0.059533 -2.961482 -2.961482
v -0.059533 -4.365623 -2.961482
v -0.059533 -2.961482 0.000000
v -0.059536 -4.365623 2.961482
v -0.059533 -2.961482 2.961482
v 13.130180 -4.365623 0.000000
v 13.130180 -2.961482 -2.961482
v 13.130180 -4.365623 -2.961482
v 13.130180 -2.961482 0.000000
v 13.130180 -2.961482 2.961482
v 13.130178 -4.365623 2.961482
v 19.725037 -4.365623 0.000000
v 19.725037 -2.961482 -2.961482
v 19.725037 -4.365623 -2.961482
v 19.725037 -2.961482 0.000000
v 19.725037 -2.961482 2.961482
v 19.725037 -4.365623 2.961482
v 6.535321 -4.365623 2.961482
v 6.535324 -4.365623 0.000000
v 6.535324 -2.961482 -2.961482
v 6.535324 -4.365623 -2.961482
v 6.535324 -2.961482 0.000000
v 6.535324 -2.961482 2.961482
v -13.249249 -4.365623 2.961482
v -13.249249 -4.365623 0.000000
v -13.249249 -2.961482 -2.961482
v -13.249249 -4.365623 -2.961482
v -13.249249 -2.961482 0.000000
v -13.249249 -2.961482 2.961482
v -6.654391 -4.365623 0.000000
v -6.654391 -2.961482 -2.961482
v -6.654391 -4.365623 -2.961482
v -6.654391 -2.961482 0.000000
v -6.654391 -2.961482 2.961482
v -6.654393 -4.365623 2.961482
v -19.844105 -4.365623 2.961482
v -19.844105 -4.365623 0.000000
v -19.844105 -2.961482 -2.961482
v -19.844105 -4.365623 -2.961482
v -19.844105 -2.961482 0.000000
v -19.844105 -2.961482 2.961482
v -23.141535 -4.365623 2.961482
v -23.141535 -4.365623 0.000000
v -23.141535 -2.961482 -2.961482
v -23.141535 -4.365623 -2.961482
v -23.141535 -2.961482 0.000000
v -23.141535 -2.961482 2.961482
v -16.612625 -4.365623 0.000000
v -16.612625 -2.961482 -2.961482
v -16.612625 -4.365623 -2.961482
v -16.612625 -2.961482 0.000000
v -16.612625 -2.961482 2.961482
v -16.612625 -4.365623 2.961482
v -9.951820 -4.365623 2.961482
v -9.951819 -4.365623 0.000000
v -9.951819 -2.961482 -2.961482
v -9.951819 -4.365623 -2.961482
v -9.951819 -2.961482 0.000000
v -9.951819 -2.961482 2.961482
v -3.356962 -4.365623 0.000000
v -3.356962 -2.961482 -2.961482
v -3.356962 -4.365623 -2.961482
v -3.356962 -2.961482 0.000000
v -3.356962 -2.961482 2.961482
v -3.356964 -4.365623 2.961482
v 3.237893 -4.365623 2.961482
v 3.237895 -4.365623 0.000000
v 3.237895 -2.961482 -2.961482
v 3.237895 -4.365623 -2.961482
v 3.237895 -2.961482 0.000000
v 3.237895 -2.961482 2.961482
v 9.832751 -4.365623 0.000000
v 9.832751 -2.961482 -2.961482
v 9.832751 -4.365623 -2.961482
v 9.832751 -2.961482 0.000000
v 9.832751 -2.961482 2.961482
v 9.832750 -4.365623 2.961482
v 16.427607 -4.365623 2.961482
v 16.427607 -4.365623 0.000000
v 16.427607 -2.961482 -2.961482
v 16.427607 -4.365623 -2.961482
v 16.427607 -2.961482 0.000000
v 16.427607 -2.961482 2.961482
v 23.022465 -4.365623 0.000000
v 23.022465 -2.961482 -2.961482
v 23.022465 -4.365623 -2.961482
v 23.022465 -2.961482 0.000000
v 23.022465 -2.961482 2.961482
v 23.022465 -4.365623 2.961482
vn -1.0000 -0.0000 -0.0000
vn -0.0000 -0.0000 -1.0000
vn 1.0000 -0.0000 -0.0000
vn -0.0000 -0.0000 1.0000
vn -0.0000 -1.0000 -0.0000
vn -0.0000 1.0000 -0.0000
vn 0.9998 -0.0201 -0.0000
vn 0.9999 -0.0151 -0.0050
vn 0.9999 0.0106 -0.0040
vn 0.9999 0.0132 -0.0000
vn -0.0000 0.9239 -0.3827
vn -0.0000 -0.9239 0.3827
vn -0.0000 0.3827 0.9239
vn -0.0000 0.7071 0.7071
vn 0.9999 -0.0050 -0.0151
vn 0.9999 0.0052 -0.0122
vn 1.0000 0.0040 -0.0040
vn 1.0000 -0.0050 -0.0050
vn 1.0000 -0.0050 0.0050
vn 0.9999 -0.0151 0.0050
vn 0.9996 -0.0201 0.0201
vn 0.9999 -0.0050 0.0151
vn 0.9999 0.0052 0.0122
vn 0.9997 0.0125 0.0212
vn 0.9999 0.0106 0.0040
vn 1.0000 0.0040 0.0040
vn -0.0000 0.7071 -0.7071
vn -0.0000 -0.3827 -0.9239
vn -0.0000 0.9239 0.3827
vn 0.9997 0.0263 -0.0000
vn 0.9992 -0.0402 -0.0000
vn 0.9996 -0.0201 -0.0201
vn 0.9997 0.0125 -0.0212
vn -0.0000 -0.7071 -0.7071
vn -0.0000 -0.9239 -0.3827
vn -0.0000 0.3827 -0.9239
vn -0.0000 -0.3827 0.9239
vn -0.0000 -0.7071 0.7071
vt 0.032617 0.032617
vt 0.000000 0.032617
vt 0.000000 0.000000
vt 0.032617 0.000000
vt 0.548992 0.228319
vt 0.548992 0.260936
vt 0.521872 0.260936
vt 0.521872 0.228319
vt 0.293553 0.228319
vt 0.293553 0.260936
vt 0.260936 0.260936
vt 0.260936 0.228319
vt 0.244080 0.750191
vt 0.244080 0.782808
vt 0.216960 0.782808
vt 0.216960 0.750191
vt 0.461041 0.554489
vt 0.433921 0.554489
vt 0.433921 0.521872
vt 0.461041 0.521872
vt 0.865679 0.228319
vt 0.883801 0.228319
vt 0.883801 0.260936
vt 0.865679 0.260936
vt 0.865679 0.097851
vt 0.883801 0.097851
vt 0.883801 0.130468
vt 0.865679 0.130468
vt 0.793195 0.097851
vt 0.811316 0.097851
vt 0.811316 0.130468
vt 0.793195 0.130468
vt 0.793195 0.228319
vt 0.811316 0.228319
vt 0.811316 0.260936
vt 0.793195 0.260936
vt 0.461041 0.684957
vt 0.433921 0.684957
vt 0.433921 0.652340
vt 0.461041 0.652340
vt 0.569521 0.684957
vt 0.542401 0.684957
vt 0.542401 0.652340
vt 0.569521 0.652340
vt 0.569521 0.554489
vt 0.542401 0.554489
vt 0.542401 0.521872
vt 0.569521 0.521872
vt 0.352561 0.750191
vt 0.352561 0.782808
vt 0.325441 0.782808
vt 0.325441 0.750191
vt 0.352561 0.619723
vt 0.352561 0.652340
vt 0.325441 0.652340
vt 0.325441 0.619723
vt 0.244080 0.619723
vt 0.244080 0.652340
vt 0.216960 0.652340
vt 0.216960 0.619723
vt 0.424021 0.228319
vt 0.424021 0.260936
vt 0.391404 0.260936
vt 0.391404 0.228319
vt 0.424021 0.097851
vt 0.424021 0.130468
vt 0.391404 0.130468
vt 0.391404 0.097851
vt 0.293553 0.097851
vt 0.293553 0.130468
vt 0.260936 0.130468
vt 0.260936 0.097851
vt 0.657472 0.228319
vt 0.657472 0.260936
vt 0.630352 0.260936
vt 0.630352 0.228319
vt 0.657472 0.097851
vt 0.657472 0.130468
vt 0.630352 0.130468
vt 0.630352 0.097851
vt 0.548992 0.097851
vt 0.548992 0.130468
vt 0.521872 0.130468
vt 0.521872 0.097851
vt 0.032617 0.163085
vt 0.000000 0.163085
vt 0.000000 0.130468
vt 0.032617 0.130468
vt 0.646558 0.888000
vt 0.630828 0.888000
vt 0.630828 0.867076
vt 0.646558 0.867076
vt 0.163085 0.032617
vt 0.130468 0.032617
vt 0.130468 0.000000
vt 0.163085 0.000000
vt 0.646558 0.782808
vt 0.662289 0.782808
vt 0.662289 0.810146
vt 0.646558 0.810146
vt 0.228319 0.097851
vt 0.200534 0.101446
vt 0.184094 0.076842
vt 0.228319 0.065234
vt 0.228319 0.032617
vt 0.195702 0.032617
vt 0.195702 0.000000
vt 0.228319 0.000000
vt 0.163085 0.228319
vt 0.130468 0.228319
vt 0.130468 0.206307
vt 0.159490 0.200534
vt 0.228319 0.228319
vt 0.195702 0.228319
vt 0.184094 0.184094
vt 0.228319 0.195702
vt 0.228319 0.163085
vt 0.200534 0.159490
vt 0.206307 0.130468
vt 0.228319 0.130468
vt 0.032617 0.228319
vt 0.000000 0.228319
vt 0.000000 0.195702
vt 0.032617 0.195702
vt 0.097851 0.228319
vt 0.065234 0.228319
vt 0.076842 0.184094
vt 0.101446 0.200534
vt 0.867841 0.570134
vt 0.883572 0.570134
vt 0.883572 0.599725
vt 0.867841 0.599725
vt 0.603232 0.097851
vt 0.603232 0.130468
vt 0.576112 0.130468
vt 0.576112 0.097851
vt 0.603232 0.032617
vt 0.603232 0.065234
vt 0.576112 0.065234
vt 0.576112 0.032617
vt 0.548992 0.032617
vt 0.548992 0.065234
vt 0.521872 0.065234
vt 0.521872 0.032617
vt 0.711712 0.097851
vt 0.711712 0.130468
vt 0.684592 0.130468
vt 0.684592 0.097851
vt 0.711712 0.032617
vt 0.711712 0.065234
vt 0.684592 0.065234
vt 0.684592 0.032617
vt 0.657472 0.032617
vt 0.657472 0.065234
vt 0.630352 0.065234
vt 0.630352 0.032617
vt 0.711712 0.228319
vt 0.711712 0.260936
vt 0.684592 0.260936
vt 0.684592 0.228319
vt 0.711712 0.163085
vt 0.711712 0.195702
vt 0.684592 0.195702
vt 0.684592 0.163085
vt 0.657472 0.163085
vt 0.657472 0.195702
vt 0.630352 0.195702
vt 0.630352 0.163085
vt 0.358787 0.032617
vt 0.358787 0.065234
vt 0.326170 0.065234
vt 0.326170 0.032617
vt 0.293553 0.032617
vt 0.293553 0.065234
vt 0.260936 0.065234
vt 0.260936 0.032617
vt 0.489255 0.097851
vt 0.489255 0.130468
vt 0.456638 0.130468
vt 0.456638 0.097851
vt 0.489255 0.032617
vt 0.489255 0.065234
vt 0.456638 0.065234
vt 0.456638 0.032617
vt 0.424021 0.032617
vt 0.424021 0.065234
vt 0.391404 0.065234
vt 0.391404 0.032617
vt 0.489255 0.228319
vt 0.489255 0.260936
vt 0.456638 0.260936
vt 0.456638 0.228319
vt 0.489255 0.163085
vt 0.489255 0.195702
vt 0.456638 0.195702
vt 0.456638 0.163085
vt 0.424021 0.163085
vt 0.424021 0.195702
vt 0.391404 0.195702
vt 0.391404 0.163085
vt 0.298321 0.619723
vt 0.298321 0.652340
vt 0.271200 0.652340
vt 0.271200 0.619723
vt 0.298321 0.554489
vt 0.298321 0.587106
vt 0.271200 0.587106
vt 0.271200 0.554489
vt 0.244080 0.554489
vt 0.244080 0.587106
vt 0.216960 0.587106
vt 0.216960 0.554489
vt 0.406801 0.619723
vt 0.406801 0.652340
vt 0.379681 0.652340
vt 0.379681 0.619723
vt 0.406801 0.554489
vt 0.406801 0.587106
vt 0.379681 0.587106
vt 0.379681 0.554489
vt 0.352561 0.554489
vt 0.352561 0.587106
vt 0.325441 0.587106
vt 0.325441 0.554489
vt 0.406801 0.750191
vt 0.406801 0.782808
vt 0.379681 0.782808
vt 0.379681 0.750191
vt 0.406801 0.684957
vt 0.406801 0.717574
vt 0.379681 0.717574
vt 0.379681 0.684957
vt 0.352561 0.684957
vt 0.352561 0.717574
vt 0.325441 0.717574
vt 0.325441 0.684957
vt 0.569521 0.619723
vt 0.542401 0.619723
vt 0.542401 0.587106
vt 0.569521 0.587106
vt 0.623761 0.619723
vt 0.596641 0.619723
vt 0.596641 0.587106
vt 0.623761 0.587106
vt 0.623761 0.554489
vt 0.596641 0.554489
vt 0.596641 0.521872
vt 0.623761 0.521872
vt 0.569521 0.750191
vt 0.542401 0.750191
vt 0.542401 0.717574
vt 0.569521 0.717574
vt 0.623761 0.750191
vt 0.596641 0.750191
vt 0.596641 0.717574
vt 0.623761 0.717574
vt 0.623761 0.684957
vt 0.596641 0.684957
vt 0.596641 0.652340
vt 0.623761 0.652340
vt 0.461041 0.750191
vt 0.433921 0.750191
vt 0.433921 0.717574
vt 0.461041 0.717574
vt 0.515281 0.750191
vt 0.488161 0.750191
vt 0.488161 0.717574
vt 0.515281 0.717574
vt 0.515281 0.684957
vt 0.488161 0.684957
vt 0.488161 0.652340
vt 0.515281 0.652340
vt 0.793195 0.163085
vt 0.811316 0.163085
vt 0.811316 0.195702
vt 0.793195 0.195702
vt 0.756953 0.163085
vt 0.775074 0.163085
vt 0.775074 0.195702
vt 0.756953 0.195702
vt 0.756953 0.228319
vt 0.775074 0.228319
vt 0.775074 0.260936
vt 0.756953 0.260936
vt 0.793195 0.032617
vt 0.811316 0.032617
vt 0.811316 0.065234
vt 0.793195 0.065234
vt 0.756953 0.032617
vt 0.775074 0.032617
vt 0.775074 0.065234
vt 0.756953 0.065234
vt 0.756953 0.097851
vt 0.775074 0.097851
vt 0.775074 0.130468
vt 0.756953 0.130468
vt 0.865680 0.032617
vt 0.883801 0.032617
vt 0.883801 0.065234
vt 0.865679 0.065234
vt 0.829437 0.032617
vt 0.847558 0.032617
vt 0.847558 0.065234
vt 0.829437 0.065234
vt 0.829437 0.097851
vt 0.847558 0.097851
vt 0.847558 0.130468
vt 0.829437 0.130468
vt 0.865679 0.163085
vt 0.883801 0.163085
vt 0.883801 0.195702
vt 0.865679 0.195702
vt 0.829437 0.163085
vt 0.847558 0.163085
vt 0.847558 0.195702
vt 0.829437 0.195702
vt 0.829437 0.228319
vt 0.847558 0.228319
vt 0.847558 0.260936
vt 0.829437 0.260936
vt 0.461041 0.619723
vt 0.433921 0.619723
vt 0.433921 0.587106
vt 0.461041 0.587106
vt 0.515281 0.619723
vt 0.488161 0.619723
vt 0.488161 0.587106
vt 0.515281 0.587106
vt 0.515281 0.554489
vt 0.488161 0.554489
vt 0.488161 0.521872
vt 0.515281 0.521872
vt 0.298321 0.750191
vt 0.298321 0.782808
vt 0.271200 0.782808
vt 0.271200 0.750191
vt 0.298321 0.684957
vt 0.298321 0.717574
vt 0.271200 0.717574
vt 0.271200 0.684957
vt 0.244080 0.684957
vt 0.244080 0.717574
vt 0.216960 0.717574
vt 0.216960 0.684957
vt 0.358787 0.228319
vt 0.358787 0.260936
vt 0.326170 0.260936
vt 0.326170 0.228319
vt 0.358787 0.163085
vt 0.358787 0.195702
vt 0.326170 0.195702
vt 0.343322 0.163085
vt 0.293553 0.163085
vt 0.293553 0.195702
vt 0.260936 0.195702
vt 0.260936 0.163085
vt 0.603232 0.228319
vt 0.603232 0.260936
vt 0.576112 0.260936
vt 0.576112 0.228319
vt 0.603232 0.163085
vt 0.603232 0.195702
vt 0.576112 0.195702
vt 0.576112 0.163085
vt 0.548992 0.163085
vt 0.548992 0.195702
vt 0.521872 0.195702
vt 0.521872 0.163085
vt 0.032617 0.097851
vt 0.000000 0.097851
vt 0.000000 0.065234
vt 0.032617 0.065234
vt 0.630828 0.839737
vt 0.646558 0.839737
vt 0.097851 0.032617
vt 0.065234 0.032617
vt 0.065234 0.000000
vt 0.097851 0.000000
vt 0.101446 0.060402
vt 0.076842 0.076842
vt 0.130468 0.054629
vt 0.867841 0.542796
vt 0.883572 0.542796
vt 0.678020 0.867076
vt 0.662289 0.867076
vt 0.662289 0.839737
vt 0.678020 0.839737
vt 0.883572 0.627064
vt 0.867841 0.627064
vt 0.054629 0.130468
vt 0.060402 0.101446
vt 0.343322 0.130468
vt 0.358787 0.130468
vt 0.829437 0.000000
vt 0.847558 0.000000
vt 0.811316 -0.000000
vt 0.865680 0.000000
vt 0.883801 0.000000
vt 0.738832 0.065234
vt 0.738832 0.097851
vt 0.738832 0.130468
vt 0.756953 -0.000000
vt 0.775074 -0.000000
vt 0.738832 -0.000000
vt 0.738832 0.032617
vt 0.793195 -0.000000
vt 0.738832 0.195702
vt 0.738832 0.228319
vt 0.738832 0.260936
vt 0.738832 0.163085
vt 0.515281 0.782808
vt 0.488161 0.782808
vt 0.542401 0.782808
vt 0.461041 0.782808
vt 0.433921 0.782808
vt 0.650881 0.717574
vt 0.650881 0.684957
vt 0.650881 0.652340
vt 0.623761 0.782808
vt 0.596641 0.782808
vt 0.650881 0.782808
vt 0.650881 0.750191
vt 0.569521 0.782808
vt 0.650881 0.587106
vt 0.650881 0.554489
vt 0.650881 0.521872
vt 0.650881 0.619723
vt 0.433921 0.684957
vt 0.433921 0.717574
vt 0.433921 0.652340
vt 0.433921 0.750191
vt 0.433921 0.782808
vt 0.379681 0.521872
vt 0.352561 0.521872
vt 0.325441 0.521872
vt 0.433921 0.554489
vt 0.433921 0.587106
vt 0.433921 0.521872
vt 0.406801 0.521872
vt 0.433921 0.619723
vt 0.271200 0.521872
vt 0.244080 0.521872
vt 0.216960 0.521872
vt 0.298321 0.521872
vt 0.521872 0.163085
vt 0.521872 0.195702
vt 0.521872 0.130468
vt 0.521872 0.228319
vt 0.521872 0.260936
vt 0.456638 0.000000
vt 0.424021 0.000000
vt 0.391404 0.000000
vt 0.521872 0.032617
vt 0.521872 0.065234
vt 0.521872 0.000000
vt 0.489255 0.000000
vt 0.521872 0.097851
vt 0.326170 0.000000
vt 0.293553 0.000000
vt 0.260936 0.000000
vt 0.358787 0.000000
vt 0.358787 0.097851
vt 0.343322 0.097851
vt 0.738832 0.163085
vt 0.738832 0.195702
vt 0.738832 0.130468
vt 0.738832 0.228319
vt 0.684592 0.000000
vt 0.657472 0.000000
vt 0.630352 0.000000
vt 0.738832 0.032617
vt 0.738832 0.065234
vt 0.738832 0.000000
vt 0.711712 0.000000
vt 0.738832 0.097851
vt 0.576112 0.000000
vt 0.548992 -0.000000
vt 0.521872 -0.000000
vt 0.603232 0.000000
vt 0.678020 0.810146
vt 0.883572 0.647988
vt 0.867841 0.647988
vt 0.725211 0.782808
vt 0.740942 0.782808
vt 0.740942 0.803732
vt 0.725211 0.803732
vt 0.097851 0.260936
vt 0.065234 0.260936
vt 0.130468 0.260936
vt 0.032617 0.260936
vt 0.000000 0.260936
vt 0.260936 0.195702
vt 0.260936 0.163085
vt 0.260936 0.130468
vt 0.228319 0.260936
vt 0.195702 0.260936
vt 0.260936 0.260936
vt 0.260936 0.228319
vt 0.163085 0.260936
vt 0.260936 0.065234
vt 0.260936 0.032617
vt 0.260936 0.000000
vt 0.260936 0.097851
vt 0.678020 0.782808
vt 0.630828 0.810146
vt 0.630828 0.782808
vt 0.159490 0.060402
vt 0.867841 0.521872
vt 0.883572 0.521872
vt 0.060402 0.159490
vt 0.137440 0.899324
vt 0.126589 0.892074
vt 0.135965 0.869439
vt 0.148764 0.871985
vt 0.089177 0.782808
vt 0.086631 0.795607
vt 0.062132 0.795607
vt 0.059586 0.782808
vt 0.116516 0.794132
vt 0.109266 0.804983
vt 0.011324 0.815056
vt 0.022175 0.822306
vt 0.012799 0.844940
vt 0.000000 0.842394
vt 0.032248 0.920248
vt 0.039498 0.909397
vt 0.062132 0.918773
vt 0.059586 0.931572
vt 0.148764 0.842394
vt 0.135965 0.844940
vt 0.126589 0.822306
vt 0.137440 0.815056
vt 0.000000 0.871985
vt 0.012799 0.869439
vt 0.022175 0.892074
vt 0.011324 0.899324
vt 0.039498 0.804983
vt 0.032248 0.794132
vt 0.089177 0.931572
vt 0.086631 0.918773
vt 0.109266 0.909397
vt 0.116516 0.920248
vt 0.538426 0.872158
vt 0.538426 0.827483
vt 0.561060 0.827483
vt 0.561060 0.872158
vt 0.434011 0.782808
vt 0.434011 0.827483
vt 0.409512 0.827483
vt 0.409512 0.782808
vt 0.386878 0.869899
vt 0.342203 0.869899
vt 0.342203 0.847265
vt 0.386878 0.847265
vt 0.491292 0.872158
vt 0.491292 0.827483
vt 0.513927 0.827483
vt 0.513927 0.872158
vt 0.456645 0.782808
vt 0.456645 0.827483
vt 0.342203 0.822766
vt 0.386878 0.822766
vt 0.583694 0.872158
vt 0.583694 0.827483
vt 0.608193 0.827483
vt 0.608193 0.872158
vt 0.342203 0.800131
vt 0.386878 0.800131
vt 0.630828 0.827483
vt 0.630828 0.872158
vt 0.386878 0.827483
vt 0.386878 0.782808
vt 0.473969 0.872158
vt 0.473969 0.827483
vt 0.473969 0.782808
vt 0.473969 0.827483
vt 0.342203 0.782808
vt 0.386878 0.782808
vt 0.386878 0.887223
vt 0.342203 0.887223
vt 0.293553 0.293553
vt 0.260936 0.293553
vt 0.260936 0.260936
vt 0.293553 0.260936
vt 0.678001 0.554489
vt 0.650881 0.554489
vt 0.650881 0.521872
vt 0.678001 0.521872
vt 0.228319 0.293553
vt 0.228319 0.260936
vt 0.260936 0.260936
vt 0.260936 0.293553
vt 0.548992 0.293553
vt 0.521872 0.293553
vt 0.548992 0.260936
vt 0.027120 0.750191
vt 0.027120 0.782808
vt 0.000000 0.782808
vt 0.000000 0.750191
vt 0.865679 0.293553
vt 0.865679 0.260936
vt 0.883801 0.260936
vt 0.883801 0.293553
vt 0.865679 0.424021
vt 0.865679 0.391404
vt 0.883801 0.391404
vt 0.883800 0.424021
vt 0.793195 0.424021
vt 0.793195 0.391404
vt 0.811316 0.391404
vt 0.811316 0.424021
vt 0.793195 0.293553
vt 0.793195 0.260936
vt 0.811316 0.260936
vt 0.811316 0.293553
vt 0.027120 0.619723
vt 0.027120 0.652340
vt 0.000000 0.652340
vt 0.000000 0.619723
vt 0.135600 0.619723
vt 0.135600 0.652340
vt 0.108480 0.652340
vt 0.108480 0.619723
vt 0.135600 0.750191
vt 0.135600 0.782808
vt 0.108480 0.782808
vt 0.108480 0.750191
vt 0.657472 0.293553
vt 0.630352 0.293553
vt 0.630352 0.260936
vt 0.657472 0.260936
vt 0.657472 0.424021
vt 0.630352 0.424021
vt 0.630352 0.391404
vt 0.657472 0.391404
vt 0.548992 0.424021
vt 0.521872 0.424021
vt 0.521872 0.391404
vt 0.548992 0.391404
vt 0.228319 0.424021
vt 0.228319 0.391404
vt 0.260936 0.391404
vt 0.260936 0.424021
vt 0.097851 0.424021
vt 0.097851 0.391404
vt 0.130468 0.391404
vt 0.130468 0.424021
vt 0.097851 0.293553
vt 0.097851 0.260936
vt 0.130468 0.260936
vt 0.130468 0.293553
vt 0.786481 0.554489
vt 0.759361 0.554489
vt 0.759361 0.521872
vt 0.786481 0.521872
vt 0.786481 0.684957
vt 0.759361 0.684957
vt 0.759361 0.652340
vt 0.786481 0.652340
vt 0.678001 0.684957
vt 0.650881 0.684957
vt 0.650881 0.652340
vt 0.678001 0.652340
vt 0.424021 0.293553
vt 0.391404 0.293553
vt 0.391404 0.260936
vt 0.424021 0.260936
vt 0.867841 0.879295
vt 0.867841 0.858371
vt 0.883572 0.858372
vt 0.883572 0.879295
vt 0.293553 0.424021
vt 0.260936 0.424021
vt 0.260936 0.391404
vt 0.293553 0.391404
vt 0.693750 0.782808
vt 0.693750 0.810146
vt 0.678020 0.810146
vt 0.678020 0.782808
vt 0.358787 0.489255
vt 0.326170 0.489255
vt 0.337778 0.445030
vt 0.362382 0.461470
vt 0.293553 0.489255
vt 0.260936 0.489255
vt 0.260936 0.456638
vt 0.293553 0.456638
vt 0.489255 0.424021
vt 0.461470 0.420426
vt 0.467243 0.391404
vt 0.489255 0.391404
vt 0.489255 0.489255
vt 0.456638 0.489255
vt 0.445030 0.445030
vt 0.489255 0.456638
vt 0.424021 0.489255
vt 0.391404 0.489255
vt 0.391404 0.467243
vt 0.420426 0.461470
vt 0.489255 0.293553
vt 0.456638 0.293553
vt 0.456638 0.260936
vt 0.489255 0.260936
vt 0.489255 0.358787
vt 0.461470 0.362382
vt 0.445030 0.337778
vt 0.489255 0.326170
vt 0.883572 0.696250
vt 0.883572 0.725841
vt 0.867842 0.725841
vt 0.867842 0.696250
vt 0.732241 0.684957
vt 0.705121 0.684957
vt 0.705121 0.652340
vt 0.732241 0.652340
vt 0.732241 0.750191
vt 0.705121 0.750191
vt 0.705121 0.717574
vt 0.732241 0.717574
vt 0.678001 0.750191
vt 0.650881 0.750191
vt 0.650881 0.717574
vt 0.678001 0.717574
vt 0.840721 0.684957
vt 0.813601 0.684957
vt 0.813601 0.652340
vt 0.840721 0.652340
vt 0.840721 0.750191
vt 0.813601 0.750191
vt 0.813601 0.717574
vt 0.840721 0.717574
vt 0.786481 0.750191
vt 0.759361 0.750191
vt 0.759361 0.717574
vt 0.786481 0.717574
vt 0.840721 0.554489
vt 0.813601 0.554489
vt 0.813601 0.521872
vt 0.840721 0.521872
vt 0.840721 0.619723
vt 0.813601 0.619723
vt 0.813601 0.587106
vt 0.840721 0.587106
vt 0.786481 0.619723
vt 0.759361 0.619723
vt 0.759361 0.587106
vt 0.786481 0.587106
vt 0.883801 0.036317
vt 0.883801 0.000000
vt 0.910921 0.000000
vt 0.910921 0.036317
vt 0.032617 0.358787
vt 0.032617 0.326170
vt 0.065234 0.326170
vt 0.065234 0.358787
vt 0.032617 0.293553
vt 0.032617 0.260936
vt 0.065234 0.260936
vt 0.065234 0.293553
vt 0.097851 0.489255
vt 0.097851 0.456638
vt 0.130468 0.456638
vt 0.130468 0.489255
vt 0.032617 0.489255
vt 0.032617 0.456638
vt 0.065234 0.456638
vt 0.065234 0.489255
vt 0.032617 0.424021
vt 0.032617 0.391404
vt 0.065234 0.391404
vt 0.065234 0.424021
vt 0.228319 0.489255
vt 0.228319 0.456638
vt 0.260936 0.456638
vt 0.260936 0.489255
vt 0.163085 0.489255
vt 0.163085 0.456638
vt 0.195702 0.456638
vt 0.195702 0.489255
vt 0.163085 0.424021
vt 0.163085 0.391404
vt 0.195702 0.391404
vt 0.195702 0.424021
vt 0.603232 0.424021
vt 0.576112 0.424021
vt 0.576112 0.391404
vt 0.603232 0.391404
vt 0.603232 0.489255
vt 0.576112 0.489255
vt 0.576112 0.456638
vt 0.603232 0.456638
vt 0.548992 0.489255
vt 0.521872 0.489255
vt 0.521872 0.456638
vt 0.548992 0.456638
vt 0.711712 0.424021
vt 0.684592 0.424021
vt 0.684592 0.391404
vt 0.711712 0.391404
vt 0.711712 0.489255
vt 0.684592 0.489255
vt 0.684592 0.456638
vt 0.711712 0.456638
vt 0.657472 0.489255
vt 0.630352 0.489255
vt 0.630352 0.456638
vt 0.657472 0.456638
vt 0.711712 0.293553
vt 0.684592 0.293553
vt 0.684592 0.260936
vt 0.711712 0.260936
vt 0.711712 0.358787
vt 0.684592 0.358787
vt 0.684592 0.326170
vt 0.711712 0.326170
vt 0.657472 0.358787
vt 0.630352 0.358787
vt 0.630352 0.326170
vt 0.657472 0.326170
vt 0.135600 0.684957
vt 0.135600 0.717574
vt 0.108480 0.717574
vt 0.108480 0.684957
vt 0.189840 0.684957
vt 0.189840 0.717574
vt 0.162720 0.717574
vt 0.162720 0.684957
vt 0.189840 0.750191
vt 0.189840 0.782808
vt 0.162720 0.782808
vt 0.162720 0.750191
vt 0.135600 0.554489
vt 0.135600 0.587106
vt 0.108480 0.587106
vt 0.108480 0.554489
vt 0.189840 0.554489
vt 0.189840 0.587106
vt 0.162720 0.587106
vt 0.162720 0.554489
vt 0.189840 0.619723
vt 0.189840 0.652340
vt 0.162720 0.652340
vt 0.162720 0.619723
vt 0.027120 0.554489
vt 0.027120 0.587106
vt 0.000000 0.587106
vt 0.000000 0.554489
vt 0.081360 0.554489
vt 0.081360 0.587106
vt 0.054240 0.587106
vt 0.054240 0.554489
vt 0.081360 0.619723
vt 0.081360 0.652340
vt 0.054240 0.652340
vt 0.054240 0.619723
vt 0.793195 0.358787
vt 0.793195 0.326170
vt 0.811316 0.326170
vt 0.811316 0.358787
vt 0.756953 0.358787
vt 0.756953 0.326170
vt 0.775074 0.326170
vt 0.775074 0.358787
vt 0.756953 0.293553
vt 0.756953 0.260936
vt 0.775074 0.260936
vt 0.775074 0.293553
vt 0.793195 0.489255
vt 0.793195 0.456638
vt 0.811316 0.456638
vt 0.811316 0.489255
vt 0.756953 0.489255
vt 0.756953 0.456638
vt 0.775074 0.456638
vt 0.775074 0.489255
vt 0.756953 0.424021
vt 0.756953 0.391404
vt 0.775074 0.391404
vt 0.775074 0.424021
vt 0.865679 0.489255
vt 0.865679 0.456638
vt 0.883800 0.456638
vt 0.883800 0.489255
vt 0.829437 0.489255
vt 0.829437 0.456638
vt 0.847558 0.456638
vt 0.847558 0.489255
vt 0.829437 0.424021
vt 0.829437 0.391404
vt 0.847558 0.391404
vt 0.847558 0.424021
vt 0.865679 0.358787
vt 0.865679 0.326170
vt 0.883801 0.326170
vt 0.883801 0.358787
vt 0.829437 0.358787
vt 0.829437 0.326170
vt 0.847558 0.326170
vt 0.847558 0.358787
vt 0.829437 0.293553
vt 0.829437 0.260936
vt 0.847558 0.260936
vt 0.847558 0.293553
vt 0.027120 0.684957
vt 0.027120 0.717574
vt 0.000000 0.717574
vt 0.000000 0.684957
vt 0.081360 0.684957
vt 0.081360 0.717574
vt 0.054240 0.717574
vt 0.054240 0.684957
vt 0.081360 0.750191
vt 0.081360 0.782808
vt 0.054240 0.782808
vt 0.054240 0.750191
vt 0.603232 0.293553
vt 0.576112 0.293553
vt 0.576112 0.260936
vt 0.603232 0.260936
vt 0.603232 0.358787
vt 0.576112 0.358787
vt 0.576112 0.326170
vt 0.603232 0.326170
vt 0.548992 0.358787
vt 0.521872 0.358787
vt 0.521872 0.326170
vt 0.548992 0.326170
vt 0.228319 0.358787
vt 0.228319 0.326170
vt 0.260936 0.326170
vt 0.260936 0.358787
vt 0.163085 0.358787
vt 0.163085 0.343322
vt 0.195702 0.326170
vt 0.195702 0.358787
vt 0.163085 0.293553
vt 0.163085 0.260936
vt 0.195702 0.260936
vt 0.195702 0.293553
vt 0.732241 0.554489
vt 0.705121 0.554489
vt 0.705121 0.521872
vt 0.732241 0.521872
vt 0.732241 0.619723
vt 0.705121 0.619723
vt 0.705121 0.587106
vt 0.732241 0.587106
vt 0.678001 0.619723
vt 0.650881 0.619723
vt 0.650881 0.587106
vt 0.678001 0.587106
vt 0.358787 0.293553
vt 0.326170 0.293553
vt 0.326170 0.260936
vt 0.358787 0.260936
vt 0.867841 0.831033
vt 0.883572 0.831033
vt 0.293553 0.358787
vt 0.260936 0.358787
vt 0.260936 0.326170
vt 0.293553 0.326170
vt 0.321338 0.362382
vt 0.337778 0.337778
vt 0.315565 0.391404
vt 0.883572 0.668912
vt 0.867842 0.668912
vt 0.693750 0.867076
vt 0.693750 0.839737
vt 0.709481 0.839737
vt 0.709481 0.867076
vt 0.883572 0.753180
vt 0.867842 0.753180
vt 0.391404 0.315565
vt 0.362382 0.321338
vt 0.130468 0.343322
vt 0.130468 0.358787
vt 0.938041 0.000000
vt 0.938041 0.036317
vt 0.829437 0.521872
vt 0.847558 0.521872
vt 0.811316 0.521872
vt 0.865679 0.521872
vt 0.883800 0.521872
vt 0.738832 0.456638
vt 0.738832 0.424021
vt 0.738832 0.391404
vt 0.756953 0.521872
vt 0.775074 0.521872
vt 0.738832 0.521872
vt 0.738832 0.489255
vt 0.793195 0.521872
vt 0.738832 0.326170
vt 0.738832 0.293553
vt 0.738832 0.260936
vt 0.738832 0.358787
vt 0.081360 0.521872
vt 0.054240 0.521872
vt 0.108480 0.521872
vt 0.027120 0.521872
vt 0.000000 0.521872
vt 0.216960 0.587106
vt 0.216960 0.619723
vt 0.216960 0.652340
vt 0.189840 0.521872
vt 0.162720 0.521872
vt 0.216960 0.521872
vt 0.216960 0.554489
vt 0.135600 0.521872
vt 0.216960 0.717574
vt 0.216960 0.750191
vt 0.216960 0.782808
vt 0.216960 0.684957
vt 0.738832 0.358787
vt 0.738832 0.326170
vt 0.684592 0.521872
vt 0.657472 0.521872
vt 0.630352 0.521872
vt 0.738832 0.489255
vt 0.738832 0.456638
vt 0.738832 0.521872
vt 0.711712 0.521872
vt 0.576112 0.521872
vt 0.548992 0.521872
vt 0.521872 0.521872
vt 0.603232 0.521872
vt 0.163085 0.521872
vt 0.195702 0.521872
vt 0.130468 0.521872
vt 0.228319 0.521872
vt 0.260936 0.521872
vt 0.000000 0.456638
vt 0.000000 0.424021
vt 0.000000 0.391404
vt 0.032617 0.521872
vt 0.065234 0.521872
vt 0.000000 0.521872
vt 0.000000 0.489255
vt 0.097851 0.521872
vt 0.000000 0.326170
vt 0.000000 0.293553
vt 0.000000 0.260936
vt 0.000000 0.358787
vt 0.097851 0.358787
vt 0.097851 0.343322
vt 0.867841 0.619723
vt 0.867841 0.587106
vt 0.867841 0.652340
vt 0.867841 0.554489
vt 0.867841 0.521872
vt 0.813601 0.782808
vt 0.786481 0.782808
vt 0.759361 0.782808
vt 0.867841 0.750191
vt 0.867841 0.717574
vt 0.867841 0.782808
vt 0.840721 0.782808
vt 0.867841 0.684957
vt 0.705121 0.782808
vt 0.678001 0.782808
vt 0.650881 0.782808
vt 0.732241 0.782808
vt 0.709481 0.810146
vt 0.883572 0.774104
vt 0.867842 0.774104
vt 0.709481 0.803732
vt 0.709481 0.782808
vt 0.521872 0.358787
vt 0.521872 0.326170
vt 0.521872 0.391404
vt 0.521872 0.293553
vt 0.521872 0.260936
vt 0.456638 0.521872
vt 0.424021 0.521872
vt 0.391404 0.521872
vt 0.521872 0.489255
vt 0.521872 0.456638
vt 0.521872 0.521872
vt 0.489255 0.521872
vt 0.521872 0.424021
vt 0.326170 0.521872
vt 0.293553 0.521872
vt 0.260936 0.521872
vt 0.358787 0.521872
vt 0.867841 0.801442
vt 0.883572 0.801442
vt 0.867841 0.774104
vt 0.883572 0.774104
vt 0.321338 0.420426
vt 0.883572 0.647988
vt 0.867842 0.647988
vt 0.678020 0.867076
vt 0.678020 0.839737
vt 0.420426 0.321338
vt 0.208350 0.931572
vt 0.181012 0.920248
vt 0.188262 0.909397
vt 0.210896 0.918773
vt 0.160088 0.815056
vt 0.181012 0.794132
vt 0.188262 0.804982
vt 0.170938 0.822306
vt 0.148764 0.842394
vt 0.161563 0.844940
vt 0.237941 0.782808
vt 0.265280 0.794132
vt 0.258030 0.804982
vt 0.235395 0.795607
vt 0.297528 0.871985
vt 0.286204 0.899324
vt 0.275353 0.892074
vt 0.284728 0.869439
vt 0.160088 0.899324
vt 0.148764 0.871985
vt 0.161563 0.869439
vt 0.170938 0.892074
vt 0.286204 0.815056
vt 0.297528 0.842394
vt 0.284728 0.844940
vt 0.275353 0.822306
vt 0.208350 0.782808
vt 0.210896 0.795607
vt 0.265280 0.920248
vt 0.237941 0.931572
vt 0.235395 0.918773
vt 0.258030 0.909397
vt 0.538426 0.782808
vt 0.561060 0.782808
vt 0.434011 0.872158
vt 0.409512 0.872158
vt 0.297527 0.869899
vt 0.297527 0.847265
vt 0.491292 0.782808
vt 0.513927 0.782808
vt 0.456645 0.872158
vt 0.297527 0.822766
vt 0.583694 0.782808
vt 0.608193 0.782808
vt 0.297527 0.800131
vt 0.630828 0.782808
vt 0.386878 0.872158
vt 0.473969 0.782808
vt 0.473969 0.872158
vt 0.297527 0.782808
vt 0.297527 0.887223
vt 1.000000 0.544755
vt 1.000000 0.581072
vt 0.987141 0.581072
vt 0.987141 0.544755
vt 0.969020 0.036317
vt 0.969020 0.000000
vt 0.987141 0.000000
vt 0.987141 0.036317
vt 0.950899 0.036317
vt 0.950899 0.000000
vt 0.938041 0.036317
vt 0.938041 0.000000
vt 0.938041 0.326853
vt 0.938041 0.290536
vt 0.950899 0.290536
vt 0.950899 0.326853
vt 0.969020 0.290536
vt 0.969020 0.326853
vt 0.987141 0.290536
vt 0.987141 0.326853
vt 1.000000 0.254219
vt 1.000000 0.290536
vt 0.987141 0.290536
vt 0.987141 0.254219
vt 0.910921 0.326853
vt 0.910921 0.290536
vt 0.938041 0.290536
vt 0.938041 0.326853
vt 0.883801 0.326853
vt 0.883801 0.290536
vt 0.883801 0.472121
vt 0.883801 0.435804
vt 0.910921 0.435804
vt 0.910921 0.472121
vt 0.938041 0.435804
vt 0.938041 0.472121
vt 1.000000 0.108951
vt 1.000000 0.145268
vt 0.987141 0.145268
vt 0.987141 0.108951
vt 0.969020 0.472121
vt 0.969020 0.435804
vt 0.987141 0.435804
vt 0.987141 0.472121
vt 0.950899 0.472121
vt 0.950899 0.435804
vt 0.938041 0.472121
vt 0.938041 0.435804
vt 0.938041 0.544755
vt 0.938041 0.508438
vt 0.950899 0.508438
vt 0.950899 0.544755
vt 0.969020 0.508438
vt 0.969020 0.544755
vt 0.987141 0.508438
vt 0.987141 0.544755
vt 1.000000 0.036317
vt 1.000000 0.072634
vt 0.987141 0.072634
vt 0.987141 0.036317
vt 0.910921 0.544755
vt 0.910921 0.508438
vt 0.938041 0.508438
vt 0.883801 0.544755
vt 0.883801 0.508438
vt 0.883801 0.399487
vt 0.883801 0.363170
vt 0.910921 0.363170
vt 0.910921 0.399487
vt 0.938041 0.363170
vt 0.938041 0.399487
vt 1.000000 0.181585
vt 1.000000 0.217902
vt 0.987141 0.217902
vt 0.987141 0.181585
vt 0.969020 0.399487
vt 0.969020 0.363170
vt 0.987141 0.363170
vt 0.987141 0.399487
vt 0.950899 0.399487
vt 0.950899 0.363170
vt 0.938041 0.399487
vt 0.938041 0.363170
vt 0.938041 0.181585
vt 0.938041 0.145268
vt 0.950899 0.145268
vt 0.950899 0.181585
vt 0.969020 0.145268
vt 0.969020 0.181585
vt 0.987141 0.145268
vt 0.987141 0.181585
vt 1.000000 0.399487
vt 1.000000 0.435804
vt 0.987141 0.435804
vt 0.987141 0.399487
vt 0.910921 0.181585
vt 0.910921 0.145268
vt 0.938041 0.145268
vt 0.938041 0.181585
vt 0.883801 0.181585
vt 0.883801 0.145268
vt 0.883801 0.254219
vt 0.883801 0.217902
vt 0.910921 0.217902
vt 0.910921 0.254219
vt 0.938041 0.217902
vt 0.938041 0.254219
vt 1.000000 0.326853
vt 1.000000 0.363170
vt 0.987141 0.363170
vt 0.987141 0.326853
vt 0.969020 0.254219
vt 0.969020 0.217902
vt 0.987141 0.217902
vt 0.987141 0.254219
vt 0.950899 0.254219
vt 0.950899 0.217902
vt 0.938041 0.254219
vt 0.938041 0.217902
vt 0.938041 0.108225
vt 0.938041 0.072634
vt 0.950899 0.072634
vt 0.950899 0.108225
vt 0.969020 0.072634
vt 0.969020 0.108225
vt 0.987141 0.072634
vt 0.987141 0.108225
vt 1.000000 0.472848
vt 1.000000 0.508438
vt 0.987141 0.508438
vt 0.987141 0.472848
vt 0.910921 0.108225
vt 0.910921 0.072634
vt 0.938041 0.072634
vt 0.938041 0.108225
vt 0.883801 0.108225
vt 0.883801 0.072634
vt 0.883801 0.581072
vt 0.910921 0.581072
vt 0.938041 0.581072
vt 1.000000 -0.000000
vt 0.987141 -0.000000
vt 0.969020 0.581072
vt 0.987141 0.581072
vt 0.950899 0.581072
vt 0.938041 0.581072
s 1
usemtl Material.001
f 381/1/1 101/4/1 4/3/1 162/2/1
f 380/5/2 104/8/2 8/7/2 165/6/2
f 379/9/3 107/12/3 6/11/3 168/10/3
f 378/13/4 110/16/4 2/15/4 100/14/4
f 377/17/5 166/20/5 5/19/5 109/18/5
f 376/21/6 161/24/6 2/23/6 110/22/6
f 375/25/6 123/28/6 20/27/6 122/26/6
f 374/29/6 124/32/6 21/31/6 173/30/6
f 373/33/6 149/36/6 11/35/6 174/34/6
f 372/37/5 127/40/5 19/39/5 121/38/5
f 371/41/5 128/44/5 22/43/5 177/42/5
f 370/45/5 154/48/5 16/47/5 178/46/5
f 369/49/4 131/52/4 10/51/4 112/50/4
f 368/53/4 132/56/4 23/55/4 181/54/4
f 367/57/4 122/60/4 20/59/4 182/58/4
f 366/61/3 135/64/3 18/63/3 156/62/3
f 365/65/3 136/68/8 24/67/7 185/66/3
f 364/69/9 119/72/3 17/71/3 186/70/10
f 363/73/2 139/76/2 15/75/2 153/74/2
f 362/77/2 140/80/2 25/79/2 189/78/2
f 361/81/2 116/84/2 14/83/2 190/82/2
f 360/85/1 143/88/1 12/87/1 150/86/1
f 73/89/6 198/92/11 388/91/11 383/90/6
f 359/93/1 113/96/1 11/95/1 193/94/1
f 74/97/5 287/100/12 394/99/12 385/98/5
f 358/101/1 195/104/1 75/103/1 196/102/1
f 357/105/1 161/108/1 41/107/1 197/106/1
f 356/109/1 198/112/1 73/111/1 145/110/1
f 355/113/1 199/116/1 76/115/1 200/114/1
f 354/117/1 191/120/1 72/119/1 201/118/1
f 353/121/1 202/124/1 30/123/1 102/122/1
f 352/125/1 203/128/1 77/127/1 204/126/1
f 205/129/13 77/132/14 392/131/14 393/130/13
f 351/133/2 206/136/2 70/135/2 142/134/2
f 350/137/2 207/140/2 78/139/2 208/138/2
f 349/141/2 164/144/2 44/143/2 209/142/2
f 348/145/2 210/148/2 69/147/2 141/146/2
f 347/149/2 211/152/2 79/151/2 212/150/2
f 346/153/2 188/156/2 68/155/2 213/154/2
f 345/157/2 214/160/2 33/159/2 105/158/2
f 344/161/2 215/164/2 80/163/2 216/162/2
f 343/165/2 187/168/2 67/167/2 217/166/2
f 341/169/3 219/172/3 81/171/16 220/170/15
f 340/173/3 167/176/3 47/175/3 221/174/17
f 339/177/3 222/180/3 65/179/3 137/178/3
f 338/181/3 223/184/3 82/183/3 224/182/3
f 337/185/3 184/188/3 64/187/18 225/186/3
f 336/189/3 226/192/3 36/191/3 108/190/3
f 335/193/3 227/196/3 83/195/3 228/194/3
f 334/197/3 183/200/20 63/199/19 229/198/3
f 333/201/4 230/204/4 62/203/4 134/202/4
f 332/205/4 231/208/4 84/207/4 232/206/4
f 331/209/4 170/212/4 50/211/4 233/210/4
f 330/213/4 234/216/4 61/215/4 133/214/4
f 329/217/4 235/220/4 85/219/4 236/218/4
f 328/221/4 180/224/4 60/223/4 237/222/4
f 327/225/4 238/228/4 40/227/4 160/226/4
f 326/229/4 239/232/4 86/231/4 240/230/4
f 325/233/4 179/236/4 59/235/4 241/234/4
f 324/237/5 242/240/5 58/239/5 130/238/5
f 323/241/5 243/244/5 87/243/5 244/242/5
f 322/245/5 106/248/5 34/247/5 245/246/5
f 321/249/5 246/252/5 57/251/5 129/250/5
f 320/253/5 247/256/5 88/255/5 248/254/5
f 319/257/5 176/260/5 56/259/5 249/258/5
f 318/261/5 250/264/5 49/263/5 169/262/5
f 317/265/5 251/268/5 89/267/5 252/266/5
f 316/269/5 175/272/5 55/271/5 253/270/5
f 315/273/6 254/276/6 54/275/6 126/274/6
f 314/277/6 255/280/6 90/279/6 256/278/6
f 313/281/6 101/284/6 29/283/6 257/282/6
f 312/285/6 258/288/6 53/287/6 125/286/6
f 311/289/6 259/292/6 91/291/6 260/290/6
f 310/293/6 172/296/6 52/295/6 261/294/6
f 309/297/6 262/300/6 50/299/6 170/298/6
f 308/301/6 263/304/6 92/303/6 264/302/6
f 307/305/6 171/308/6 51/307/6 265/306/6
f 306/309/6 266/312/6 38/311/6 158/310/6
f 305/313/6 267/316/6 93/315/6 268/314/6
f 304/317/6 113/320/6 41/319/6 269/318/6
f 303/321/5 270/324/5 37/323/5 157/322/5
f 302/325/5 271/328/5 94/327/5 272/326/5
f 301/329/5 118/332/5 46/331/5 273/330/5
f 300/333/4 274/336/4 28/335/4 148/334/4
f 299/337/4 275/340/4 95/339/4 276/338/4
f 298/341/4 158/344/4 38/343/4 277/342/4
f 297/345/3 278/348/3 48/347/3 120/346/3
f 296/349/21 279/352/24 96/351/23 280/350/22
f 295/353/25 155/356/3 35/355/3 281/354/26
f 294/357/2 282/360/2 45/359/2 117/358/2
f 293/361/2 283/364/2 97/363/2 284/362/2
f 292/365/2 152/368/2 32/367/2 285/366/2
f 291/369/1 286/372/1 42/371/1 114/370/1
f 198/92/11 76/374/27 390/373/27 388/91/11
f 290/375/1 149/378/1 29/377/1 289/376/1
f 287/379/1 290/375/1 289/376/1 98/380/1
f 74/381/1 193/94/1 290/375/1 287/379/1
f 193/94/1 11/95/1 149/378/1 290/375/1
f 71/382/4 205/129/13 393/130/13 382/383/4
f 72/384/2 196/387/28 386/386/28 387/385/2
f 77/132/14 203/389/29 391/388/29 392/131/14
f 143/88/1 291/369/1 114/370/1 12/87/1
f 71/390/1 288/391/1 291/369/1 143/88/1
f 288/391/1 98/380/1 286/372/1 291/369/1
f 283/364/2 292/365/2 285/366/2 97/363/2
f 70/135/2 190/82/2 292/365/2 283/364/2
f 190/82/2 14/83/2 152/368/2 292/365/2
f 187/168/2 293/361/2 284/362/2 67/167/2
f 25/79/2 142/134/2 293/361/2 187/168/2
f 142/134/2 70/135/2 283/364/2 293/361/2
f 139/76/2 294/357/2 117/358/2 15/75/2
f 67/167/2 284/362/2 294/357/2 139/76/2
f 284/362/2 97/363/2 282/360/2 294/357/2
f 279/352/24 295/353/25 281/354/26 96/351/23
f 66/392/30 186/70/10 295/353/25 279/352/24
f 186/70/10 17/71/3 155/356/3 295/353/25
f 183/200/20 296/349/21 280/350/22 63/199/19
f 24/67/7 138/393/31 296/349/21 183/200/20
f 135/64/3 297/345/3 120/346/3 18/63/3
f 63/199/19 280/350/22 297/345/3 135/64/3
f 280/350/22 96/351/23 278/348/3 297/345/3
f 275/340/4 298/341/4 277/342/4 95/339/4
f 62/203/4 182/58/4 298/341/4 275/340/4
f 182/58/4 20/59/4 158/344/4 298/341/4
f 179/236/4 299/337/4 276/338/4 59/235/4
f 23/55/4 134/202/4 299/337/4 179/236/4
f 134/202/4 62/203/4 275/340/4 299/337/4
f 131/52/4 300/333/4 148/334/4 10/51/4
f 59/235/4 276/338/4 300/333/4 131/52/4
f 276/338/4 95/339/4 274/336/4 300/333/4
f 271/328/5 301/329/5 273/330/5 94/327/5
f 58/239/5 178/46/5 301/329/5 271/328/5
f 178/46/5 16/47/5 118/332/5 301/329/5
f 175/272/5 302/325/5 272/326/5 55/271/5
f 22/43/5 130/238/5 302/325/5 175/272/5
f 130/238/5 58/239/5 271/328/5 302/325/5
f 127/40/5 303/321/5 157/322/5 19/39/5
f 55/271/5 272/326/5 303/321/5 127/40/5
f 272/326/5 94/327/5 270/324/5 303/321/5
f 267/316/6 304/317/6 269/318/6 93/315/6
f 54/275/6 174/34/6 304/317/6 267/316/6
f 174/34/6 11/35/6 113/320/6 304/317/6
f 171/308/6 305/313/6 268/314/6 51/307/6
f 21/31/6 126/274/6 305/313/6 171/308/6
f 126/274/6 54/275/6 267/316/6 305/313/6
f 123/28/6 306/309/6 158/310/6 20/27/6
f 51/307/6 268/314/6 306/309/6 123/28/6
f 268/314/6 93/315/6 266/312/6 306/309/6
f 263/304/6 307/305/6 265/306/6 92/303/6
f 53/287/6 173/30/6 307/305/6 263/304/6
f 173/30/6 21/31/6 171/308/6 307/305/6
f 155/394/6 308/301/6 264/302/6 35/395/6
f 17/396/6 125/286/6 308/301/6 155/394/6
f 125/286/6 53/287/6 263/304/6 308/301/6
f 107/397/6 309/297/6 170/298/6 6/398/6
f 35/395/6 264/302/6 309/297/6 107/397/6
f 264/302/6 92/303/6 262/300/6 309/297/6
f 259/292/6 310/293/6 261/294/6 91/291/6
f 32/399/6 152/400/6 310/293/6 259/292/6
f 152/400/6 14/401/6 172/296/6 310/293/6
f 167/402/6 311/289/6 260/290/6 47/403/6
f 8/404/6 104/405/6 311/289/6 167/402/6
f 104/405/6 32/399/6 259/292/6 311/289/6
f 119/406/6 312/285/6 125/286/6 17/396/6
f 47/403/6 260/290/6 312/285/6 119/406/6
f 260/290/6 91/291/6 258/288/6 312/285/6
f 255/280/6 313/281/6 257/282/6 90/279/6
f 44/407/6 164/408/6 313/281/6 255/280/6
f 164/408/6 4/409/6 101/284/6 313/281/6
f 172/296/6 314/277/6 256/278/6 52/295/6
f 14/401/6 116/410/6 314/277/6 172/296/6
f 116/410/6 44/407/6 255/280/6 314/277/6
f 124/32/6 315/273/6 126/274/6 21/31/6
f 52/295/6 256/278/6 315/273/6 124/32/6
f 256/278/6 90/279/6 254/276/6 315/273/6
f 251/268/5 316/269/5 253/270/5 89/267/5
f 57/251/5 177/42/5 316/269/5 251/268/5
f 177/42/5 22/43/5 175/272/5 316/269/5
f 147/411/5 317/265/5 252/266/5 27/412/5
f 9/413/5 129/250/5 317/265/5 147/411/5
f 129/250/5 57/251/5 251/268/5 317/265/5
f 99/414/5 318/261/5 169/262/5 1/415/5
f 27/412/5 252/266/5 318/261/5 99/414/5
f 252/266/5 89/267/5 250/264/5 318/261/5
f 247/256/5 319/257/5 249/258/5 88/255/5
f 31/416/5 151/417/5 319/257/5 247/256/5
f 151/417/5 13/418/5 176/260/5 319/257/5
f 159/419/5 320/253/5 248/254/5 39/420/5
f 3/421/5 103/422/5 320/253/5 159/419/5
f 103/422/5 31/416/5 247/256/5 320/253/5
f 111/423/5 321/249/5 129/250/5 9/413/5
f 39/420/5 248/254/5 321/249/5 111/423/5
f 248/254/5 88/255/5 246/252/5 321/249/5
f 243/244/5 322/245/5 245/246/5 87/243/5
f 43/424/5 163/425/5 322/245/5 243/244/5
f 163/425/5 7/426/5 106/248/5 322/245/5
f 176/260/5 323/241/5 244/242/5 56/259/5
f 13/418/5 115/427/5 323/241/5 176/260/5
f 115/427/5 43/424/5 243/244/5 323/241/5
f 128/44/5 324/237/5 130/238/5 22/43/5
f 56/259/5 244/242/5 324/237/5 128/44/5
f 244/242/5 87/243/5 242/240/5 324/237/5
f 239/232/4 325/233/4 241/234/4 86/231/4
f 61/215/4 181/54/4 325/233/4 239/232/4
f 181/54/4 23/55/4 179/236/4 325/233/4
f 121/428/4 326/229/4 240/230/4 49/429/4
f 19/430/4 133/214/4 326/229/4 121/428/4
f 133/214/4 61/215/4 239/232/4 326/229/4
f 169/431/4 327/225/4 160/226/4 1/432/4
f 49/429/4 240/230/4 327/225/4 169/431/4
f 240/230/4 86/231/4 238/228/4 327/225/4
f 235/220/4 328/221/4 237/222/4 85/219/4
f 36/433/4 156/434/4 328/221/4 235/220/4
f 156/434/4 18/435/4 180/224/4 328/221/4
f 109/436/4 329/217/4 236/218/4 37/437/4
f 5/438/4 108/439/4 329/217/4 109/436/4
f 108/439/4 36/433/4 235/220/4 329/217/4
f 157/440/4 330/213/4 133/214/4 19/430/4
f 37/437/4 236/218/4 330/213/4 157/440/4
f 236/218/4 85/219/4 234/216/4 330/213/4
f 231/208/4 331/209/4 233/210/4 84/207/4
f 48/441/4 168/442/4 331/209/4 231/208/4
f 168/442/4 6/443/4 170/212/4 331/209/4
f 180/224/4 332/205/4 232/206/4 60/223/4
f 18/435/4 120/444/4 332/205/4 180/224/4
f 120/444/4 48/441/4 231/208/4 332/205/4
f 132/56/4 333/201/4 134/202/4 23/55/4
f 60/223/4 232/206/4 333/201/4 132/56/4
f 232/206/4 84/207/4 230/204/4 333/201/4
f 227/196/3 334/197/3 229/198/3 83/195/3
f 65/179/3 185/66/3 334/197/3 227/196/3
f 185/66/3 24/67/7 183/200/20 334/197/3
f 118/445/3 335/193/3 228/194/3 46/446/3
f 16/447/3 137/178/3 335/193/3 118/445/3
f 137/178/3 65/179/3 227/196/3 335/193/3
f 166/448/3 336/189/3 108/190/3 5/449/3
f 46/446/3 228/194/3 336/189/3 166/448/3
f 228/194/3 83/195/3 226/192/3 336/189/3
f 223/184/3 337/185/3 225/186/3 82/183/3
f 33/450/3 153/451/3 337/185/3 223/184/3
f 153/451/3 15/452/3 184/188/3 337/185/3
f 106/453/3 338/181/3 224/182/3 34/454/3
f 7/455/3 105/456/3 338/181/3 106/453/3
f 105/456/3 33/450/3 223/184/3 338/181/3
f 154/457/3 339/177/3 137/178/3 16/447/3
f 34/454/3 224/182/3 339/177/3 154/457/3
f 224/182/3 82/183/3 222/180/3 339/177/3
f 219/172/3 340/173/3 221/174/17 81/171/16
f 45/458/3 165/459/3 340/173/3 219/172/3
f 165/459/3 8/460/3 167/176/3 340/173/3
f 184/188/3 341/169/3 220/170/15 64/187/18
f 15/452/3 117/461/3 341/169/3 184/188/3
f 117/461/3 45/458/3 219/172/3 341/169/3
f 136/68/8 342/462/32 138/393/31 24/67/7
f 64/187/18 220/170/15 342/462/32 136/68/8
f 220/170/15 81/171/16 218/463/33 342/462/32
f 215/164/2 343/165/2 217/166/2 80/163/2
f 69/147/2 189/78/2 343/165/2 215/164/2
f 189/78/2 25/79/2 187/168/2 343/165/2
f 115/464/2 344/161/2 216/162/2 43/465/2
f 13/466/2 141/146/2 344/161/2 115/464/2
f 141/146/2 69/147/2 215/164/2 344/161/2
f 163/467/2 345/157/2 105/158/2 7/409/2
f 43/465/2 216/162/2 345/157/2 163/467/2
f 216/162/2 80/163/2 214/160/2 345/157/2
f 211/152/2 346/153/2 213/154/2 79/151/2
f 30/468/2 150/469/2 346/153/2 211/152/2
f 150/469/2 12/470/2 188/156/2 346/153/2
f 103/471/2 347/149/2 212/150/2 31/472/2
f 3/473/2 102/474/2 347/149/2 103/471/2
f 102/474/2 30/468/2 211/152/2 347/149/2
f 151/475/2 348/145/2 141/146/2 13/466/2
f 31/472/2 212/150/2 348/145/2 151/475/2
f 212/150/2 79/151/2 210/148/2 348/145/2
f 207/140/2 349/141/2 209/142/2 78/139/2
f 42/476/2 162/477/2 349/141/2 207/140/2
f 162/477/2 4/478/2 164/144/2 349/141/2
f 188/156/2 350/137/2 208/138/2 68/155/2
f 12/470/2 114/479/2 350/137/2 188/156/2
f 114/479/2 42/476/2 207/140/2 350/137/2
f 140/80/2 351/133/2 142/134/2 25/79/2
f 68/155/2 208/138/2 351/133/2 140/80/2
f 208/138/2 78/139/2 206/136/2 351/133/2
f 196/387/28 75/480/34 397/99/34 386/386/28
f 203/389/29 73/482/6 383/481/6 391/388/29
f 194/483/35 74/486/5 385/485/5 384/484/35
f 111/487/1 352/125/1 204/126/1 39/488/1
f 9/489/1 145/110/1 352/125/1 111/487/1
f 145/110/1 73/111/1 203/128/1 352/125/1
f 159/490/1 353/121/1 102/122/1 3/491/1
f 39/488/1 204/126/1 353/121/1 159/490/1
f 204/126/1 77/127/1 202/124/1 353/121/1
f 199/116/1 354/117/1 201/118/1 76/115/1
f 40/492/1 112/493/1 354/117/1 199/116/1
f 112/493/1 10/494/1 191/120/1 354/117/1
f 99/495/1 355/113/1 200/114/1 27/496/1
f 1/497/1 160/498/1 355/113/1 99/495/1
f 160/498/1 40/492/1 199/116/1 355/113/1
f 147/499/1 356/109/1 145/110/1 9/489/1
f 27/496/1 200/114/1 356/109/1 147/499/1
f 200/114/1 76/115/1 198/112/1 356/109/1
f 195/104/1 357/105/1 197/106/1 75/103/1
f 28/500/1 100/501/1 357/105/1 195/104/1
f 100/501/1 2/502/1 161/108/1 357/105/1
f 191/120/1 358/101/1 196/102/1 72/119/1
f 10/494/1 148/503/1 358/101/1 191/120/1
f 148/503/1 28/500/1 195/104/1 358/101/1
f 75/480/34 194/504/35 384/98/35 397/99/34
f 76/374/27 201/100/36 389/505/36 390/373/27
f 201/100/36 72/97/2 387/506/2 389/505/36
f 194/507/1 359/93/1 193/94/1 74/381/1
f 75/103/1 197/106/1 359/93/1 194/507/1
f 197/106/1 41/107/1 113/96/1 359/93/1
f 288/508/37 71/382/4 382/383/4 396/509/37
f 98/374/38 288/92/37 396/385/37 395/386/38
f 287/100/12 98/374/38 395/386/38 394/99/12
f 202/124/1 360/85/1 150/86/1 30/123/1
f 77/127/1 205/510/1 360/85/1 202/124/1
f 205/510/1 71/390/1 143/88/1 360/85/1
f 206/136/2 361/81/2 190/82/2 70/135/2
f 78/139/2 209/142/2 361/81/2 206/136/2
f 209/142/2 44/143/2 116/84/2 361/81/2
f 210/148/2 362/77/2 189/78/2 69/147/2
f 79/151/2 213/154/2 362/77/2 210/148/2
f 213/154/2 68/155/2 140/80/2 362/77/2
f 214/160/2 363/73/2 153/74/2 33/159/2
f 80/163/2 217/166/2 363/73/2 214/160/2
f 217/166/2 67/167/2 139/76/2 363/73/2
f 218/463/33 364/69/9 186/70/10 66/392/30
f 81/171/16 221/174/17 364/69/9 218/463/33
f 221/174/17 47/175/3 119/72/3 364/69/9
f 222/180/3 365/65/3 185/66/3 65/179/3
f 82/183/3 225/186/3 365/65/3 222/180/3
f 225/186/3 64/187/18 136/68/8 365/65/3
f 226/192/3 366/61/3 156/62/3 36/191/3
f 83/195/3 229/198/3 366/61/3 226/192/3
f 229/198/3 63/199/19 135/64/3 366/61/3
f 230/204/4 367/57/4 182/58/4 62/203/4
f 84/207/4 233/210/4 367/57/4 230/204/4
f 233/210/4 50/211/4 122/60/4 367/57/4
f 234/216/4 368/53/4 181/54/4 61/215/4
f 85/219/4 237/222/4 368/53/4 234/216/4
f 237/222/4 60/223/4 132/56/4 368/53/4
f 238/228/4 369/49/4 112/50/4 40/227/4
f 86/231/4 241/234/4 369/49/4 238/228/4
f 241/234/4 59/235/4 131/52/4 369/49/4
f 242/240/5 370/45/5 178/46/5 58/239/5
f 87/243/5 245/246/5 370/45/5 242/240/5
f 245/246/5 34/247/5 154/48/5 370/45/5
f 246/252/5 371/41/5 177/42/5 57/251/5
f 88/255/5 249/258/5 371/41/5 246/252/5
f 249/258/5 56/259/5 128/44/5 371/41/5
f 250/264/5 372/37/5 121/38/5 49/263/5
f 89/267/5 253/270/5 372/37/5 250/264/5
f 253/270/5 55/271/5 127/40/5 372/37/5
f 254/276/6 373/33/6 174/34/6 54/275/6
f 90/279/6 257/282/6 373/33/6 254/276/6
f 257/282/6 29/283/6 149/36/6 373/33/6
f 258/288/6 374/29/6 173/30/6 53/287/6
f 91/291/6 261/294/6 374/29/6 258/288/6
f 261/294/6 52/295/6 124/32/6 374/29/6
f 262/300/6 375/25/6 122/26/6 50/299/6
f 92/303/6 265/306/6 375/25/6 262/300/6
f 265/306/6 51/307/6 123/28/6 375/25/6
f 266/312/6 376/21/6 110/22/6 38/311/6
f 93/315/6 269/318/6 376/21/6 266/312/6
f 269/318/6 41/319/6 161/24/6 376/21/6
f 270/324/5 377/17/5 109/18/5 37/323/5
f 94/327/5 273/330/5 377/17/5 270/324/5
f 273/330/5 46/331/5 166/20/5 377/17/5
f 274/336/4 378/13/4 100/14/4 28/335/4
f 95/339/4 277/342/4 378/13/4 274/336/4
f 277/342/4 38/343/4 110/16/4 378/13/4
f 278/348/3 379/9/3 168/10/3 48/347/3
f 96/351/23 281/354/26 379/9/3 278/348/3
f 281/354/26 35/355/3 107/12/3 379/9/3
f 282/360/2 380/5/2 165/6/2 45/359/2
f 97/363/2 285/366/2 380/5/2 282/360/2
f 285/366/2 32/367/2 104/8/2 380/5/2
f 286/372/1 381/1/1 162/2/1 42/371/1
f 98/380/1 289/376/1 381/1/1 286/372/1
f 289/376/1 29/377/1 101/4/1 381/1/1
f 391/511/1 383/514/1 146/513/1 403/512/1
f 387/515/1 386/518/1 398/517/1 399/516/1
f 389/519/1 387/515/1 399/516/1 401/520/1
f 384/521/1 385/524/1 26/523/1 144/522/1
f 396/525/1 382/528/1 192/527/1 408/526/1
f 388/529/1 390/532/1 402/531/1 400/530/1
f 394/533/1 395/536/1 407/535/1 406/534/1
f 386/518/1 397/538/1 409/537/1 398/517/1
f 393/539/1 392/542/1 404/541/1 405/540/1
f 397/538/1 384/521/1 144/522/1 409/537/1
f 395/536/1 396/525/1 408/526/1 407/535/1
f 392/542/1 391/511/1 403/512/1 404/541/1
f 385/524/1 394/533/1 406/534/1 26/523/1
f 390/532/1 389/519/1 401/520/1 402/531/1
f 382/528/1 393/539/1 405/540/1 192/527/1
f 383/514/1 388/529/1 400/530/1 146/513/1
f 408/543/36 192/546/2 418/545/2 424/544/36
f 400/547/12 402/550/38 411/549/38 412/548/12
f 399/551/4 398/554/13 414/553/13 415/552/4
f 406/555/11 407/558/27 423/557/27 422/556/11
f 146/559/5 400/547/12 412/548/12 413/560/5
f 398/554/13 409/562/14 425/561/14 414/553/13
f 405/563/28 404/566/34 420/565/34 421/564/28
f 409/562/14 144/568/29 416/567/29 425/561/14
f 407/558/27 408/543/36 424/544/36 423/557/27
f 404/566/34 403/570/35 419/569/35 420/565/34
f 402/550/38 401/572/37 410/571/37 411/549/38
f 26/573/6 406/555/11 422/556/11 417/574/6
f 192/546/2 405/563/28 421/564/28 418/545/2
f 403/575/35 146/559/5 413/560/5 419/576/35
f 144/568/29 26/578/6 417/577/6 416/567/29
f 401/579/37 399/551/4 415/552/4 410/580/37
f 806/581/3 587/584/3 429/583/3 526/582/3
f 805/585/2 590/588/2 433/587/2 529/586/2
f 804/589/1 593/592/1 431/591/1 532/590/1
f 803/593/4 525/595/4 427/449/4 535/594/4
f 802/596/5 534/599/5 430/598/5 591/597/5
f 801/600/6 535/603/6 427/602/6 586/601/6
f 800/604/6 547/607/6 445/606/6 548/605/6
f 799/608/6 598/611/6 446/610/6 549/609/6
f 798/612/6 599/615/6 436/614/6 574/613/6
f 797/616/5 546/619/5 444/618/5 552/617/5
f 796/620/5 602/623/5 447/622/5 553/621/5
f 795/624/5 603/627/5 441/626/5 579/625/5
f 794/628/4 537/631/4 435/630/4 556/629/4
f 793/632/4 606/635/4 448/634/4 557/633/4
f 792/636/4 607/639/4 445/638/4 547/637/4
f 791/640/1 581/643/1 443/642/1 560/641/1
f 790/644/1 610/647/1 449/646/1 561/645/1
f 789/648/1 611/651/1 442/650/1 544/649/1
f 788/652/2 578/655/2 440/654/2 564/653/2
f 787/656/2 614/659/2 450/658/2 565/657/2
f 786/660/2 615/663/2 439/662/2 541/661/2
f 785/664/3 575/667/3 437/666/3 568/665/3
f 498/668/6 808/671/6 813/670/11 623/669/11
f 784/672/3 618/675/3 436/674/3 538/673/3
f 499/676/5 810/679/5 819/678/12 712/677/12
f 783/680/3 621/683/3 500/682/3 620/681/3
f 782/684/3 622/687/3 466/686/3 586/685/3
f 781/688/3 570/691/3 498/690/3 623/689/3
f 780/692/3 625/695/3 501/694/3 624/693/3
f 779/696/3 626/699/3 497/698/3 616/697/3
f 778/700/3 527/703/3 455/702/3 627/701/3
f 777/704/3 629/707/3 502/706/3 628/705/3
f 630/708/13 818/711/13 817/710/14 502/709/14
f 776/712/2 567/715/2 495/714/2 631/713/2
f 775/716/2 633/719/2 503/718/2 632/717/2
f 774/720/2 634/723/2 469/722/2 589/721/2
f 773/724/2 566/727/2 494/726/2 635/725/2
f 772/728/2 637/731/2 504/730/2 636/729/2
f 771/732/2 638/735/2 493/734/2 613/733/2
f 770/736/2 530/739/2 458/738/2 639/737/2
f 769/740/2 641/743/2 505/742/2 640/741/2
f 768/744/2 642/747/2 492/746/2 612/745/2
f 880/748/5 878/751/5 66/750/5 279/749/5
f 766/752/1 645/755/1 506/754/1 644/753/1
f 765/756/1 646/759/1 472/758/1 592/757/1
f 764/760/1 562/763/1 490/762/1 647/761/1
f 763/764/1 649/767/1 507/766/1 648/765/1
f 762/768/1 650/771/1 489/770/1 609/769/1
f 761/772/1 533/775/1 461/774/1 651/773/1
f 760/776/1 653/779/1 508/778/1 652/777/1
f 759/780/1 654/783/1 488/782/1 608/781/1
f 758/784/4 559/787/4 487/786/4 655/785/4
f 757/788/4 657/791/4 509/790/4 656/789/4
f 756/792/4 658/795/4 475/794/4 595/793/4
f 755/796/4 558/799/4 486/798/4 659/797/4
f 754/800/4 661/803/4 510/802/4 660/801/4
f 753/804/4 662/807/4 485/806/4 605/805/4
f 752/808/4 585/811/4 465/810/4 663/809/4
f 751/812/4 665/815/4 511/814/4 664/813/4
f 750/816/4 666/819/4 484/818/4 604/817/4
f 749/820/5 555/823/5 483/822/5 667/821/5
f 748/824/5 669/827/5 512/826/5 668/825/5
f 747/828/5 670/831/5 459/830/5 531/829/5
f 746/832/5 554/835/5 482/834/5 671/833/5
f 745/836/5 673/839/5 513/838/5 672/837/5
f 744/840/5 674/843/5 481/842/5 601/841/5
f 743/844/5 594/847/5 474/846/5 675/845/5
f 742/848/5 677/851/5 514/850/5 676/849/5
f 741/852/5 678/855/5 480/854/5 600/853/5
f 740/856/6 551/859/6 479/858/6 679/857/6
f 739/860/6 681/863/6 515/862/6 680/861/6
f 738/864/6 682/867/6 454/866/6 526/865/6
f 737/868/6 550/871/6 478/870/6 683/869/6
f 736/872/6 685/875/6 516/874/6 684/873/6
f 735/876/6 686/879/6 477/878/6 597/877/6
f 734/880/6 595/883/6 475/882/6 687/881/6
f 733/884/6 689/887/6 517/886/6 688/885/6
f 732/888/6 690/891/6 476/890/6 596/889/6
f 731/892/6 583/895/6 463/894/6 691/893/6
f 730/896/6 693/899/6 518/898/6 692/897/6
f 729/900/6 694/903/6 466/902/6 538/901/6
f 728/904/5 582/907/5 462/906/5 695/905/5
f 727/908/5 697/911/5 519/910/5 696/909/5
f 726/912/5 698/915/5 471/914/5 543/913/5
f 725/916/4 573/919/4 453/918/4 699/917/4
f 724/920/4 701/923/4 520/922/4 700/921/4
f 723/924/4 702/927/4 463/926/4 583/925/4
f 722/928/1 545/931/1 473/930/1 703/929/1
f 721/932/1 705/935/1 521/934/1 704/933/1
f 720/936/1 706/939/1 460/938/1 580/937/1
f 719/940/2 542/943/2 470/942/2 707/941/2
f 718/944/2 709/947/2 522/946/2 708/945/2
f 717/948/2 710/951/2 457/950/2 577/949/2
f 716/952/3 539/955/3 467/954/3 711/953/3
f 623/669/11 813/670/11 815/957/27 501/956/27
f 715/958/3 714/961/3 454/960/3 574/959/3
f 712/962/3 523/963/3 714/961/3 715/958/3
f 499/964/3 712/962/3 715/958/3 618/675/3
f 618/675/3 715/958/3 574/959/3 436/674/3
f 496/965/4 807/966/4 818/711/13 630/708/13
f 497/967/2 812/970/2 811/969/28 621/968/28
f 502/709/14 817/710/14 816/972/29 628/971/29
f 568/665/3 437/666/3 539/955/3 716/952/3
f 496/973/3 568/665/3 716/952/3 713/974/3
f 713/974/3 716/952/3 711/953/3 523/963/3
f 708/945/2 522/946/2 710/951/2 717/948/2
f 495/714/2 708/945/2 717/948/2 615/663/2
f 615/663/2 717/948/2 577/949/2 439/662/2
f 612/745/2 492/746/2 709/947/2 718/944/2
f 450/658/2 612/745/2 718/944/2 567/715/2
f 567/715/2 718/944/2 708/945/2 495/714/2
f 564/653/2 440/654/2 542/943/2 719/940/2
f 492/746/2 564/653/2 719/940/2 709/947/2
f 709/947/2 719/940/2 707/941/2 522/946/2
f 704/933/1 521/934/1 706/939/1 720/936/1
f 491/975/1 704/933/1 720/936/1 611/651/1
f 611/651/1 720/936/1 580/937/1 442/650/1
f 608/781/1 488/782/1 705/935/1 721/932/1
f 449/646/1 608/781/1 721/932/1 563/976/1
f 878/751/5 877/978/5 218/977/5 66/750/5
f 560/641/1 443/642/1 545/931/1 722/928/1
f 488/782/1 560/641/1 722/928/1 705/935/1
f 705/935/1 722/928/1 703/929/1 521/934/1
f 700/921/4 520/922/4 702/927/4 723/924/4
f 487/786/4 700/921/4 723/924/4 607/639/4
f 607/639/4 723/924/4 583/925/4 445/638/4
f 604/817/4 484/818/4 701/923/4 724/920/4
f 448/634/4 604/817/4 724/920/4 559/787/4
f 559/787/4 724/920/4 700/921/4 487/786/4
f 556/629/4 435/630/4 573/919/4 725/916/4
f 484/818/4 556/629/4 725/916/4 701/923/4
f 701/923/4 725/916/4 699/917/4 520/922/4
f 696/909/5 519/910/5 698/915/5 726/912/5
f 483/822/5 696/909/5 726/912/5 603/627/5
f 603/627/5 726/912/5 543/913/5 441/626/5
f 600/853/5 480/854/5 697/911/5 727/908/5
f 447/622/5 600/853/5 727/908/5 555/823/5
f 555/823/5 727/908/5 696/909/5 483/822/5
f 552/617/5 444/618/5 582/907/5 728/904/5
f 480/854/5 552/617/5 728/904/5 697/911/5
f 697/911/5 728/904/5 695/905/5 519/910/5
f 692/897/6 518/898/6 694/903/6 729/900/6
f 479/858/6 692/897/6 729/900/6 599/615/6
f 599/615/6 729/900/6 538/901/6 436/614/6
f 596/889/6 476/890/6 693/899/6 730/896/6
f 446/610/6 596/889/6 730/896/6 551/859/6
f 551/859/6 730/896/6 692/897/6 479/858/6
f 548/605/6 445/606/6 583/895/6 731/892/6
f 476/890/6 548/605/6 731/892/6 693/899/6
f 693/899/6 731/892/6 691/893/6 518/898/6
f 688/885/6 517/886/6 690/891/6 732/888/6
f 478/870/6 688/885/6 732/888/6 598/611/6
f 598/611/6 732/888/6 596/889/6 446/610/6
f 580/979/6 460/980/6 689/887/6 733/884/6
f 442/981/6 580/979/6 733/884/6 550/871/6
f 550/871/6 733/884/6 688/885/6 478/870/6
f 532/982/6 431/983/6 595/883/6 734/880/6
f 460/980/6 532/982/6 734/880/6 689/887/6
f 689/887/6 734/880/6 687/881/6 517/886/6
f 684/873/6 516/874/6 686/879/6 735/876/6
f 457/984/6 684/873/6 735/876/6 577/985/6
f 577/985/6 735/876/6 597/877/6 439/986/6
f 592/987/6 472/988/6 685/875/6 736/872/6
f 433/989/6 592/987/6 736/872/6 529/990/6
f 529/990/6 736/872/6 684/873/6 457/984/6
f 544/991/6 442/981/6 550/871/6 737/868/6
f 472/988/6 544/991/6 737/868/6 685/875/6
f 685/875/6 737/868/6 683/869/6 516/874/6
f 680/861/6 515/862/6 682/867/6 738/864/6
f 469/992/6 680/861/6 738/864/6 589/993/6
f 589/993/6 738/864/6 526/865/6 429/994/6
f 597/877/6 477/878/6 681/863/6 739/860/6
f 439/986/6 597/877/6 739/860/6 541/995/6
f 541/995/6 739/860/6 680/861/6 469/992/6
f 549/609/6 446/610/6 551/859/6 740/856/6
f 477/878/6 549/609/6 740/856/6 681/863/6
f 681/863/6 740/856/6 679/857/6 515/862/6
f 676/849/5 514/850/5 678/855/5 741/852/5
f 482/834/5 676/849/5 741/852/5 602/623/5
f 602/623/5 741/852/5 600/853/5 447/622/5
f 572/996/5 452/997/5 677/851/5 742/848/5
f 434/998/5 572/996/5 742/848/5 554/835/5
f 554/835/5 742/848/5 676/849/5 482/834/5
f 524/999/5 426/1000/5 594/847/5 743/844/5
f 452/997/5 524/999/5 743/844/5 677/851/5
f 677/851/5 743/844/5 675/845/5 514/850/5
f 672/837/5 513/838/5 674/843/5 744/840/5
f 456/1001/5 672/837/5 744/840/5 576/1002/5
f 576/1002/5 744/840/5 601/841/5 438/1003/5
f 584/1004/5 464/1005/5 673/839/5 745/836/5
f 428/1006/5 584/1004/5 745/836/5 528/1007/5
f 528/1007/5 745/836/5 672/837/5 456/1001/5
f 536/1008/5 434/998/5 554/835/5 746/832/5
f 464/1005/5 536/1008/5 746/832/5 673/839/5
f 673/839/5 746/832/5 671/833/5 513/838/5
f 668/825/5 512/826/5 670/831/5 747/828/5
f 468/1009/5 668/825/5 747/828/5 588/1010/5
f 588/1010/5 747/828/5 531/829/5 432/1011/5
f 601/841/5 481/842/5 669/827/5 748/824/5
f 438/1003/5 601/841/5 748/824/5 540/1012/5
f 540/1012/5 748/824/5 668/825/5 468/1009/5
f 553/621/5 447/622/5 555/823/5 749/820/5
f 481/842/5 553/621/5 749/820/5 669/827/5
f 669/827/5 749/820/5 667/821/5 512/826/5
f 664/813/4 511/814/4 666/819/4 750/816/4
f 486/798/4 664/813/4 750/816/4 606/635/4
f 606/635/4 750/816/4 604/817/4 448/634/4
f 546/1013/4 474/1014/4 665/815/4 751/812/4
f 444/986/4 546/1013/4 751/812/4 558/799/4
f 558/799/4 751/812/4 664/813/4 486/798/4
f 594/993/4 426/994/4 585/811/4 752/808/4
f 474/1014/4 594/993/4 752/808/4 665/815/4
f 665/815/4 752/808/4 663/809/4 511/814/4
f 660/801/4 510/802/4 662/807/4 753/804/4
f 461/1015/4 660/801/4 753/804/4 581/1016/4
f 581/1016/4 753/804/4 605/805/4 443/1017/4
f 534/1018/4 462/1019/4 661/803/4 754/800/4
f 430/1020/4 534/1018/4 754/800/4 533/1021/4
f 533/1021/4 754/800/4 660/801/4 461/1015/4
f 582/985/4 444/986/4 558/799/4 755/796/4
f 462/1019/4 582/985/4 755/796/4 661/803/4
f 661/803/4 755/796/4 659/797/4 510/802/4
f 656/789/4 509/790/4 658/795/4 756/792/4
f 473/1022/4 656/789/4 756/792/4 593/1023/4
f 593/1023/4 756/792/4 595/793/4 431/1024/4
f 605/805/4 485/806/4 657/791/4 757/788/4
f 443/1017/4 605/805/4 757/788/4 545/1025/4
f 545/1025/4 757/788/4 656/789/4 473/1022/4
f 557/633/4 448/634/4 559/787/4 758/784/4
f 485/806/4 557/633/4 758/784/4 657/791/4
f 657/791/4 758/784/4 655/785/4 509/790/4
f 652/777/1 508/778/1 654/783/1 759/780/1
f 490/762/1 652/777/1 759/780/1 610/647/1
f 610/647/1 759/780/1 608/781/1 449/646/1
f 543/1026/1 471/1027/1 653/779/1 760/776/1
f 441/1028/1 543/1026/1 760/776/1 562/763/1
f 562/763/1 760/776/1 652/777/1 490/762/1
f 591/1029/1 430/1030/1 533/775/1 761/772/1
f 471/1027/1 591/1029/1 761/772/1 653/779/1
f 653/779/1 761/772/1 651/773/1 508/778/1
f 648/765/1 507/766/1 650/771/1 762/768/1
f 458/1031/1 648/765/1 762/768/1 578/1032/1
f 578/1032/1 762/768/1 609/769/1 440/1033/1
f 531/1034/1 459/1035/1 649/767/1 763/764/1
f 432/1036/1 531/1034/1 763/764/1 530/1037/1
f 530/1037/1 763/764/1 648/765/1 458/1031/1
f 579/1038/1 441/1028/1 562/763/1 764/760/1
f 459/1035/1 579/1038/1 764/760/1 649/767/1
f 649/767/1 764/760/1 647/761/1 507/766/1
f 644/753/1 506/754/1 646/759/1 765/756/1
f 470/1039/1 644/753/1 765/756/1 590/1040/1
f 590/1040/1 765/756/1 592/757/1 433/1041/1
f 609/769/1 489/770/1 645/755/1 766/752/1
f 440/1033/1 609/769/1 766/752/1 542/1042/1
f 542/1042/1 766/752/1 644/753/1 470/1039/1
f 561/645/1 449/646/1 563/976/1 767/1043/1
f 489/770/1 561/645/1 767/1043/1 645/755/1
f 645/755/1 767/1043/1 643/1044/1 506/754/1
f 640/741/2 505/742/2 642/747/2 768/744/2
f 494/726/2 640/741/2 768/744/2 614/659/2
f 614/659/2 768/744/2 612/745/2 450/658/2
f 540/1045/2 468/1046/2 641/743/2 769/740/2
f 438/1047/2 540/1045/2 769/740/2 566/727/2
f 566/727/2 769/740/2 640/741/2 494/726/2
f 588/1048/2 432/1049/2 530/739/2 770/736/2
f 468/1046/2 588/1048/2 770/736/2 641/743/2
f 641/743/2 770/736/2 639/737/2 505/742/2
f 636/729/2 504/730/2 638/735/2 771/732/2
f 455/1050/2 636/729/2 771/732/2 575/1051/2
f 575/1051/2 771/732/2 613/733/2 437/1052/2
f 528/1053/2 456/1054/2 637/731/2 772/728/2
f 428/1055/2 528/1053/2 772/728/2 527/1056/2
f 527/1056/2 772/728/2 636/729/2 455/1050/2
f 576/1057/2 438/1047/2 566/727/2 773/724/2
f 456/1054/2 576/1057/2 773/724/2 637/731/2
f 637/731/2 773/724/2 635/725/2 504/730/2
f 632/717/2 503/718/2 634/723/2 774/720/2
f 467/1058/2 632/717/2 774/720/2 587/1059/2
f 587/1059/2 774/720/2 589/721/2 429/1060/2
f 613/733/2 493/734/2 633/719/2 775/716/2
f 437/1052/2 613/733/2 775/716/2 539/1061/2
f 539/1061/2 775/716/2 632/717/2 467/1058/2
f 565/657/2 450/658/2 567/715/2 776/712/2
f 493/734/2 565/657/2 776/712/2 633/719/2
f 633/719/2 776/712/2 631/713/2 503/718/2
f 621/968/28 811/969/28 822/1062/34 500/677/34
f 628/971/29 816/972/29 808/1064/6 498/1063/6
f 619/483/35 809/1066/35 810/1065/5 499/486/5
f 536/1067/3 464/1068/3 629/707/3 777/704/3
f 434/1069/3 536/1067/3 777/704/3 570/691/3
f 570/691/3 777/704/3 628/705/3 498/690/3
f 584/1070/3 428/1071/3 527/703/3 778/700/3
f 464/1068/3 584/1070/3 778/700/3 629/707/3
f 629/707/3 778/700/3 627/701/3 502/706/3
f 624/693/3 501/694/3 626/699/3 779/696/3
f 465/1072/3 624/693/3 779/696/3 537/1073/3
f 537/1073/3 779/696/3 616/697/3 435/1074/3
f 524/1075/3 452/1076/3 625/695/3 780/692/3
f 426/1077/3 524/1075/3 780/692/3 585/1078/3
f 585/1078/3 780/692/3 624/693/3 465/1072/3
f 572/1079/3 434/1069/3 570/691/3 781/688/3
f 452/1076/3 572/1079/3 781/688/3 625/695/3
f 625/695/3 781/688/3 623/689/3 501/694/3
f 620/681/3 500/682/3 622/687/3 782/684/3
f 453/1080/3 620/681/3 782/684/3 525/1081/3
f 525/1081/3 782/684/3 586/685/3 427/1082/3
f 616/697/3 497/698/3 621/683/3 783/680/3
f 435/1074/3 616/697/3 783/680/3 573/1083/3
f 573/1083/3 783/680/3 620/681/3 453/1080/3
f 500/677/34 822/1062/34 809/1066/35 619/676/35
f 501/956/27 815/957/27 814/1085/36 626/1084/36
f 626/1084/36 814/1085/36 812/1087/2 497/1086/2
f 619/1088/3 499/964/3 618/675/3 784/672/3
f 500/682/3 619/1088/3 784/672/3 622/687/3
f 622/687/3 784/672/3 538/673/3 466/686/3
f 713/1089/37 821/1090/37 807/966/4 496/965/4
f 523/968/38 820/1092/38 821/1091/37 713/967/37
f 712/677/12 819/678/12 820/1092/38 523/968/38
f 627/701/3 455/702/3 575/667/3 785/664/3
f 502/706/3 627/701/3 785/664/3 630/1093/3
f 630/1093/3 785/664/3 568/665/3 496/973/3
f 631/713/2 495/714/2 615/663/2 786/660/2
f 503/718/2 631/713/2 786/660/2 634/723/2
f 634/723/2 786/660/2 541/661/2 469/722/2
f 635/725/2 494/726/2 614/659/2 787/656/2
f 504/730/2 635/725/2 787/656/2 638/735/2
f 638/735/2 787/656/2 565/657/2 493/734/2
f 639/737/2 458/738/2 578/655/2 788/652/2
f 505/742/2 639/737/2 788/652/2 642/747/2
f 642/747/2 788/652/2 564/653/2 492/746/2
f 643/1044/1 491/975/1 611/651/1 789/648/1
f 506/754/1 643/1044/1 789/648/1 646/759/1
f 646/759/1 789/648/1 544/649/1 472/758/1
f 647/761/1 490/762/1 610/647/1 790/644/1
f 507/766/1 647/761/1 790/644/1 650/771/1
f 650/771/1 790/644/1 561/645/1 489/770/1
f 651/773/1 461/774/1 581/643/1 791/640/1
f 508/778/1 651/773/1 791/640/1 654/783/1
f 654/783/1 791/640/1 560/641/1 488/782/1
f 655/785/4 487/786/4 607/639/4 792/636/4
f 509/790/4 655/785/4 792/636/4 658/795/4
f 658/795/4 792/636/4 547/637/4 475/794/4
f 659/797/4 486/798/4 606/635/4 793/632/4
f 510/802/4 659/797/4 793/632/4 662/807/4
f 662/807/4 793/632/4 557/633/4 485/806/4
f 663/809/4 465/810/4 537/631/4 794/628/4
f 511/814/4 663/809/4 794/628/4 666/819/4
f 666/819/4 794/628/4 556/629/4 484/818/4
f 667/821/5 483/822/5 603/627/5 795/624/5
f 512/826/5 667/821/5 795/624/5 670/831/5
f 670/831/5 795/624/5 579/625/5 459/830/5
f 671/833/5 482/834/5 602/623/5 796/620/5
f 513/838/5 671/833/5 796/620/5 674/843/5
f 674/843/5 796/620/5 553/621/5 481/842/5
f 675/845/5 474/846/5 546/619/5 797/616/5
f 514/850/5 675/845/5 797/616/5 678/855/5
f 678/855/5 797/616/5 552/617/5 480/854/5
f 679/857/6 479/858/6 599/615/6 798/612/6
f 515/862/6 679/857/6 798/612/6 682/867/6
f 682/867/6 798/612/6 574/613/6 454/866/6
f 683/869/6 478/870/6 598/611/6 799/608/6
f 516/874/6 683/869/6 799/608/6 686/879/6
f 686/879/6 799/608/6 549/609/6 477/878/6
f 687/881/6 475/882/6 547/607/6 800/604/6
f 517/886/6 687/881/6 800/604/6 690/891/6
f 690/891/6 800/604/6 548/605/6 476/890/6
f 691/893/6 463/894/6 535/603/6 801/600/6
f 518/898/6 691/893/6 801/600/6 694/903/6
f 694/903/6 801/600/6 586/601/6 466/902/6
f 695/905/5 462/906/5 534/599/5 802/596/5
f 519/910/5 695/905/5 802/596/5 698/915/5
f 698/915/5 802/596/5 591/597/5 471/914/5
f 699/917/4 453/918/4 525/595/4 803/593/4
f 520/922/4 699/917/4 803/593/4 702/927/4
f 702/927/4 803/593/4 535/594/4 463/926/4
f 703/929/1 473/930/1 593/592/1 804/589/1
f 521/934/1 703/929/1 804/589/1 706/939/1
f 706/939/1 804/589/1 532/590/1 460/938/1
f 707/941/2 470/942/2 590/588/2 805/585/2
f 522/946/2 707/941/2 805/585/2 710/951/2
f 710/951/2 805/585/2 529/586/2 457/950/2
f 711/953/3 467/954/3 587/584/3 806/581/3
f 523/963/3 711/953/3 806/581/3 714/961/3
f 714/961/3 806/581/3 526/582/3 454/960/3
f 816/1094/3 828/1097/3 571/1096/3 808/1095/3
f 812/1098/3 824/1101/3 823/1100/3 811/1099/3
f 814/1102/3 826/1103/3 824/1101/3 812/1098/3
f 809/1104/3 569/1107/3 451/1106/3 810/1105/3
f 821/1108/3 833/1111/3 617/1110/3 807/1109/3
f 813/1112/3 825/1115/3 827/1114/3 815/1113/3
f 819/1116/3 831/1119/3 832/1118/3 820/1117/3
f 811/1099/3 823/1100/3 834/1121/3 822/1120/3
f 818/1122/3 830/1125/3 829/1124/3 817/1123/3
f 822/1120/3 834/1121/3 569/1107/3 809/1104/3
f 820/1117/3 832/1118/3 833/1111/3 821/1108/3
f 817/1123/3 829/1124/3 828/1097/3 816/1094/3
f 810/1105/3 451/1106/3 831/1119/3 819/1116/3
f 815/1113/3 827/1114/3 826/1103/3 814/1102/3
f 807/1109/3 617/1110/3 830/1125/3 818/1122/3
f 808/1095/3 571/1096/3 825/1115/3 813/1112/3
f 833/1126/36 424/544/36 418/545/2 617/1127/2
f 825/1128/12 412/548/12 411/549/38 827/1129/38
f 824/1130/4 415/552/4 414/553/13 823/1131/13
f 831/1132/11 422/556/11 423/557/27 832/1133/27
f 571/1134/5 413/560/5 412/548/12 825/1128/12
f 823/1131/13 414/553/13 425/561/14 834/1135/14
f 830/1136/28 421/564/28 420/565/34 829/1137/34
f 834/1135/14 425/561/14 416/567/29 569/1138/29
f 832/1133/27 423/557/27 424/544/36 833/1126/36
f 829/1137/34 420/565/34 419/569/35 828/1139/35
f 827/1129/38 411/549/38 410/571/37 826/1140/37
f 451/1141/6 417/574/6 422/556/11 831/1132/11
f 617/1127/2 418/545/2 421/564/28 830/1136/28
f 828/1142/35 419/576/35 413/560/5 571/1134/5
f 569/1138/29 416/567/29 417/577/6 451/1143/6
f 826/1144/37 410/580/37 415/552/4 824/1130/4
f 879/1145/2 880/1148/2 279/1147/2 296/1146/2
f 881/1149/6 879/1152/6 296/1151/6 138/1150/6
f 882/1153/6 881/1149/6 138/1150/6 342/1154/6
f 877/1155/4 882/1153/4 342/1154/4 218/1156/4
f 901/1157/4 906/1160/4 840/1159/4 839/1158/4
f 906/1160/6 905/1162/6 838/1161/6 840/1159/6
f 905/1162/6 903/1164/6 836/1163/6 838/1161/6
f 903/1165/2 904/1168/2 837/1167/2 836/1166/2
f 902/1169/5 901/1172/5 839/1171/5 835/1170/5
f 904/1173/5 902/1169/5 835/1170/5 837/1174/5
f 916/1175/5 914/1178/5 841/1177/5 843/1176/5
f 914/1178/5 913/1180/5 846/1179/5 841/1177/5
f 915/1181/2 916/1184/2 843/1183/2 842/1182/2
f 917/1185/6 915/1188/6 842/1187/6 844/1186/6
f 918/1189/6 917/1185/6 844/1186/6 845/1190/6
f 913/1191/4 918/1189/4 845/1190/4 846/1192/4
f 924/1193/4 923/1196/4 851/1195/4 852/1194/4
f 923/1196/6 922/1198/6 850/1197/6 851/1195/6
f 922/1198/6 920/1200/6 848/1199/6 850/1197/6
f 920/1201/2 921/1204/2 849/1203/2 848/1202/2
f 919/1205/5 924/1193/5 852/1207/5 847/1206/5
f 921/1208/5 919/1205/5 847/1206/5 849/1209/5
f 909/1210/5 907/1213/5 854/1212/5 856/1211/5
f 907/1213/5 912/1215/5 853/1214/5 854/1212/5
f 908/1216/2 909/1219/2 856/1218/2 855/1217/2
f 910/1220/6 908/1223/6 855/1222/6 857/1221/6
f 911/1224/6 910/1220/6 857/1221/6 858/1225/6
f 912/1226/4 911/1224/4 858/1225/4 853/1227/4
f 889/1228/4 894/1231/4 864/1230/4 859/1229/4
f 894/1231/6 893/1233/6 863/1232/6 864/1230/6
f 893/1233/6 891/1235/6 861/1234/6 863/1232/6
f 891/1236/2 892/1239/2 862/1238/2 861/1237/2
f 890/1240/5 889/1243/5 859/1242/5 860/1241/5
f 892/1244/5 890/1240/5 860/1241/5 862/1245/5
f 897/1246/5 895/1249/5 865/1248/5 867/1247/5
f 895/1249/5 900/1251/5 870/1250/5 865/1248/5
f 896/1252/2 897/1255/2 867/1254/2 866/1253/2
f 898/1256/6 896/1259/6 866/1258/6 868/1257/6
f 899/1260/6 898/1256/6 868/1257/6 869/1261/6
f 900/1262/4 899/1260/4 869/1261/4 870/1263/4
f 888/1264/4 887/1267/4 876/1266/4 871/1265/4
f 887/1267/6 886/1269/6 875/1268/6 876/1266/6
f 886/1269/6 884/1271/6 873/1270/6 875/1268/6
f 884/1272/2 885/1275/2 874/1274/2 873/1273/2
f 883/1276/5 888/1279/5 871/1278/5 872/1277/5
f 885/1280/5 883/1276/5 872/1277/5 874/1281/5
f 871/1265/4 876/1266/4 882/1153/4 877/1155/4
f 876/1266/6 875/1268/6 881/1149/6 882/1153/6
f 875/1268/6 873/1270/6 879/1152/6 881/1149/6
f 873/1273/2 874/1274/2 880/1148/2 879/1145/2
f 872/1277/5 871/1278/5 877/978/5 878/751/5
f 874/1281/5 872/1277/5 878/751/5 880/748/5
f 862/1245/5 860/1241/5 883/1276/5 885/1280/5
f 860/1241/5 859/1242/5 888/1279/5 883/1276/5
f 861/1237/2 862/1238/2 885/1275/2 884/1272/2
f 863/1232/6 861/1234/6 884/1271/6 886/1269/6
f 864/1230/6 863/1232/6 886/1269/6 887/1267/6
f 859/1229/4 864/1230/4 887/1267/4 888/1264/4
f 867/1247/5 865/1248/5 890/1240/5 892/1244/5
f 865/1248/5 870/1250/5 889/1243/5 890/1240/5
f 866/1253/2 867/1254/2 892/1239/2 891/1236/2
f 868/1257/6 866/1258/6 891/1235/6 893/1233/6
f 869/1261/6 868/1257/6 893/1233/6 894/1231/6
f 870/1263/4 869/1261/4 894/1231/4 889/1228/4
f 839/1158/4 840/1159/4 899/1260/4 900/1262/4
f 840/1159/6 838/1161/6 898/1256/6 899/1260/6
f 838/1161/6 836/1163/6 896/1259/6 898/1256/6
f 836/1166/2 837/1167/2 897/1255/2 896/1252/2
f 835/1170/5 839/1171/5 900/1251/5 895/1249/5
f 837/1174/5 835/1170/5 895/1249/5 897/1246/5
f 856/1211/5 854/1212/5 902/1169/5 904/1173/5
f 854/1212/5 853/1214/5 901/1172/5 902/1169/5
f 855/1217/2 856/1218/2 904/1168/2 903/1165/2
f 857/1221/6 855/1222/6 903/1164/6 905/1162/6
f 858/1225/6 857/1221/6 905/1162/6 906/1160/6
f 853/1227/4 858/1225/4 906/1160/4 901/1157/4
f 846/1192/4 845/1190/4 911/1224/4 912/1226/4
f 845/1190/6 844/1186/6 910/1220/6 911/1224/6
f 844/1186/6 842/1187/6 908/1223/6 910/1220/6
f 842/1182/2 843/1183/2 909/1219/2 908/1216/2
f 841/1177/5 846/1179/5 912/1215/5 907/1213/5
f 843/1176/5 841/1177/5 907/1213/5 909/1210/5
f 852/1194/4 851/1195/4 918/1189/4 913/1191/4
f 851/1195/6 850/1197/6 917/1185/6 918/1189/6
f 850/1197/6 848/1199/6 915/1188/6 917/1185/6
f 848/1202/2 849/1203/2 916/1184/2 915/1181/2
f 847/1206/5 852/1207/5 913/1180/5 914/1178/5
f 849/1209/5 847/1206/5 914/1178/5 916/1175/5
f 704/1282/5 491/1283/5 919/1205/5 921/1208/5
f 491/1283/5 643/1284/5 924/1193/5 919/1205/5
f 721/1285/2 704/1286/2 921/1204/2 920/1201/2
f 563/1287/6 721/1288/6 920/1200/6 922/1198/6
f 767/1289/6 563/1287/6 922/1198/6 923/1196/6
f 643/1290/4 767/1289/4 923/1196/4 924/1193/4
