# Blender 4.1.1
# www.blender.org
mtllib ground2.mtl
o Cube
v 10.000000 0.840543 -10.000000
v 10.000000 0.000000 10.000000
v -10.000000 0.104904 -10.000000
v -10.000000 0.121549 10.000000
v 7.500000 0.122514 10.000000
v 5.000000 0.067267 10.000000
v 2.500000 0.000000 10.000000
v 0.000000 0.000000 10.000000
v -2.500000 0.000000 10.000000
v -5.000000 0.000000 10.000000
v -7.500000 0.000000 10.000000
v 10.000000 0.547723 -7.500000
v 10.000000 0.156571 -5.000000
v 10.000000 0.045158 -2.500000
v 10.000000 0.215632 0.000000
v 10.000000 0.000000 2.500000
v 10.000000 0.127918 5.000000
v 10.000000 0.122988 7.500000
v -10.000000 0.050311 7.500000
v -10.000000 0.134953 5.000000
v -10.000000 0.102681 2.500000
v -10.000000 0.041266 0.000000
v -10.000000 0.000000 -2.500000
v -10.000000 0.163047 -5.000000
v -10.000000 0.000000 -7.500000
v -7.500000 0.000000 -10.000000
v -5.000000 0.000000 -10.000000
v -2.500000 0.000000 -10.000000
v 0.000000 0.235053 -10.000000
v 2.500000 0.275883 -10.000000
v 5.000000 0.000000 -10.000000
v 7.500000 0.000000 -10.000000
v 7.500000 0.315094 -7.500000
v 7.500000 0.221614 -5.000000
v 7.500000 0.243003 -2.500000
v 7.500000 0.292923 0.000000
v 7.500000 0.442589 2.500000
v 7.500000 0.443084 5.000000
v 7.500000 0.435022 7.500000
v 4.997543 0.963467 -7.514263
v 4.982419 0.957717 -4.966619
v 5.000000 0.000000 -2.500000
v 5.000000 0.546384 0.000000
v 5.000000 0.561757 2.500000
v 5.062293 1.844746 4.992551
v 5.000000 0.554899 7.500000
v 2.490977 0.841981 -7.500628
v 2.496745 0.917360 -4.979469
v 2.500000 0.000000 -2.500000
v 2.500000 0.000000 0.000000
v 2.500000 0.334336 2.500000
v 2.384325 2.112395 4.970098
v 2.500000 0.558019 7.500000
v 0.005231 0.638463 -7.508339
v 0.000000 0.238644 -5.000000
v 0.000000 0.000000 -2.500000
v 0.000000 0.000000 0.000000
v 0.000000 0.000000 2.500000
v 0.000000 0.179481 5.000000
v 0.000000 0.255212 7.500000
v -2.454998 1.132368 -7.560359
v -2.500000 0.314777 -5.000000
v -2.500000 0.000000 -2.500000
v -2.500000 0.302311 0.000000
v -2.500000 0.177617 2.500000
v -2.500000 0.180497 5.000000
v -2.487880 0.318795 7.511684
v -5.000000 0.365018 -7.500000
v -5.043915 1.430993 -4.960954
v -5.018024 0.582744 -2.510980
v -5.010708 1.049900 -0.054171
v -4.988575 1.074791 2.503670
v -4.975587 0.771503 5.016004
v -5.000000 0.632151 7.500000
v -7.500000 0.198429 -7.500000
v -7.500000 0.000000 -5.000000
v -7.500000 0.000000 -2.500000
v -7.500000 0.000000 0.000000
v -7.500000 0.419572 2.500000
v -7.500000 0.485413 5.000000
v -7.500000 0.000000 7.500000
vn -0.2099 0.9777 -0.0044
vn 0.0863 0.9925 0.0864
vn -0.0187 0.9997 -0.0187
vn 0.0343 0.9993 -0.0142
vn 0.0496 0.9912 0.1223
vn 0.0001 0.9834 0.1815
vn -0.0362 0.9825 0.1825
vn -0.0234 0.9902 0.1374
vn 0.0370 0.9878 0.1510
vn -0.0320 0.9872 0.1565
vn -0.0453 0.9974 0.0554
vn -0.1229 0.9914 0.0459
vn 0.0097 0.9983 0.0572
vn 0.0537 0.9985 -0.0130
vn 0.0792 0.9967 -0.0154
vn 0.1267 0.9919 -0.0062
vn 0.1372 0.9905 -0.0114
vn 0.1054 0.9934 0.0446
vn -0.0126 0.9987 0.0496
vn -0.0961 0.9943 0.0470
vn -0.0936 0.9939 -0.0577
vn -0.0233 0.9984 -0.0520
vn 0.0204 0.9997 0.0122
vn 0.0128 0.9997 0.0198
vn -0.0129 0.9999 -0.0058
vn -0.0259 0.9975 -0.0654
vn -0.0908 0.9756 -0.1999
vn -0.0499 0.9548 -0.2929
vn 0.0029 0.9695 -0.2450
vn -0.0092 0.9700 -0.2428
vn 0.0777 0.9598 -0.2698
vn -0.0410 0.9907 -0.1297
vn 0.0383 0.9986 -0.0351
vn 0.0964 0.9921 0.0799
vn 0.0520 0.9986 0.0099
vn 0.0588 0.9972 -0.0456
vn 0.1548 0.9853 -0.0725
vn 0.2153 0.9765 -0.0051
vn 0.1284 0.9839 0.1240
vn 0.0984 0.9861 -0.1339
vn 0.0812 0.9870 0.1384
vn -0.0049 0.9968 0.0798
vn -0.0460 0.9956 -0.0821
vn 0.0556 0.9721 -0.2280
vn 0.1613 0.9869 -0.0085
vn 0.0836 0.9564 0.2799
vn -0.0573 0.9923 -0.1095
vn -0.0870 0.9835 0.1583
vn -0.0633 0.9908 0.1200
vn -0.0817 0.9948 -0.0610
vn -0.1593 0.9524 -0.2600
vn -0.1914 0.9811 -0.0300
vn -0.1103 0.9507 0.2897
vn -0.0149 0.9988 -0.0475
vn -0.0456 0.9861 0.1598
vn -0.0143 0.9975 0.0691
vn 0.0224 0.9994 -0.0256
vn -0.0853 0.9904 -0.1086
vn -0.1977 0.9793 -0.0434
vn -0.1109 0.9856 0.1276
vn 0.0221 0.9946 -0.1017
vn 0.1295 0.9827 0.1327
vn 0.1623 0.9863 0.0294
vn 0.1835 0.9821 -0.0420
vn 0.1837 0.9829 0.0157
vn 0.1295 0.9916 -0.0054
vn 0.0666 0.9956 0.0657
vn -0.1077 0.9818 -0.1562
vn -0.0758 0.9961 0.0461
vn -0.0310 0.9988 0.0387
vn -0.0173 0.9967 -0.0791
vn 0.0241 0.9997 0.0100
vn 0.0278 0.9980 0.0577
vn -0.0161 0.9939 0.1092
vn -0.0913 0.9931 -0.0730
vn -0.1653 0.9862 0.0091
vn -0.1647 0.9861 0.0239
vn -0.1708 0.9829 -0.0692
vn -0.1758 0.9837 -0.0378
vn -0.1395 0.9880 0.0657
vn -0.0818 0.9929 0.0863
vt 0.873396 0.128610
vt 0.874170 0.004611
vt 0.998540 0.005721
vt 0.997257 0.130186
vt 0.865937 0.989511
vt 0.867263 0.867471
vt 0.989294 0.870986
vt 0.987022 0.992075
vt 0.869871 0.747426
vt 0.993242 0.750046
vt 0.871992 0.627593
vt 0.996039 0.627971
vt 0.871074 0.504474
vt 0.995871 0.503970
vt 0.870366 0.380056
vt 0.995500 0.379183
vt 0.867811 0.254999
vt 0.995190 0.254653
vt 0.012963 0.999900
vt 0.007622 0.871790
vt 0.132104 0.869991
vt 0.135128 0.994250
vt 0.256454 0.868825
vt 0.258293 0.991009
vt 0.379279 0.867611
vt 0.380318 0.990069
vt 0.501403 0.866850
vt 0.502173 0.988496
vt 0.623688 0.865894
vt 0.624007 0.989471
vt 0.745590 0.865745
vt 0.745031 0.988275
vt 0.004538 0.750603
vt 0.132498 0.744867
vt 0.252296 0.741784
vt 0.378529 0.745069
vt 0.502589 0.745827
vt 0.622676 0.744659
vt 0.746225 0.738591
vt 0.005542 0.626189
vt 0.131326 0.624991
vt 0.251324 0.625368
vt 0.378398 0.623189
vt 0.499193 0.623168
vt 0.619655 0.624688
vt 0.746953 0.635697
vt 0.004700 0.502121
vt 0.130956 0.502132
vt 0.255837 0.501390
vt 0.378322 0.501483
vt 0.500028 0.501718
vt 0.621898 0.502817
vt 0.746373 0.504582
vt 0.000100 0.375273
vt 0.127737 0.383030
vt 0.255937 0.379278
vt 0.378601 0.379866
vt 0.501149 0.378769
vt 0.623283 0.380906
vt 0.745349 0.380782
vt 0.003154 0.252349
vt 0.130218 0.253553
vt 0.258078 0.253267
vt 0.377891 0.251468
vt 0.501066 0.252099
vt 0.622349 0.253805
vt 0.745687 0.255418
vt 0.003783 0.126816
vt 0.129647 0.126941
vt 0.253900 0.124321
vt 0.377138 0.123887
vt 0.499131 0.122649
vt 0.623454 0.127199
vt 0.747151 0.129627
vt 0.003590 0.001882
vt 0.128524 0.001908
vt 0.252846 0.000376
vt 0.376720 0.000100
vt 0.500464 0.000100
vt 0.624989 0.002213
vt 0.749406 0.004155
s 1
usemtl Material
f 81/1/81 19/2/19 4/3/4 11/4/11
f 18/5/18 39/6/39 5/7/5 2/8/2
f 39/6/39 46/9/46 6/10/6 5/7/5
f 46/9/46 53/11/53 7/12/7 6/10/6
f 53/11/53 60/13/60 8/14/8 7/12/7
f 60/13/60 67/15/67 9/16/9 8/14/8
f 67/15/67 74/17/74 10/18/10 9/16/9
f 74/17/74 81/1/81 11/4/11 10/18/10
f 1/19/1 32/20/32 33/21/33 12/22/12
f 12/22/12 33/21/33 34/23/34 13/24/13
f 13/24/13 34/23/34 35/25/35 14/26/14
f 14/26/14 35/25/35 36/27/36 15/28/15
f 15/28/15 36/27/36 37/29/37 16/30/16
f 16/30/16 37/29/37 38/31/38 17/32/17
f 17/32/17 38/31/38 39/6/39 18/5/18
f 32/20/32 31/33/31 40/34/40 33/21/33
f 33/21/33 40/34/40 41/35/41 34/23/34
f 34/23/34 41/35/41 42/36/42 35/25/35
f 35/25/35 42/36/42 43/37/43 36/27/36
f 36/27/36 43/37/43 44/38/44 37/29/37
f 37/29/37 44/38/44 45/39/45 38/31/38
f 38/31/38 45/39/45 46/9/46 39/6/39
f 31/33/31 30/40/30 47/41/47 40/34/40
f 40/34/40 47/41/47 48/42/48 41/35/41
f 41/35/41 48/42/48 49/43/49 42/36/42
f 42/36/42 49/43/49 50/44/50 43/37/43
f 43/37/43 50/44/50 51/45/51 44/38/44
f 44/38/44 51/45/51 52/46/52 45/39/45
f 45/39/45 52/46/52 53/11/53 46/9/46
f 30/40/30 29/47/29 54/48/54 47/41/47
f 47/41/47 54/48/54 55/49/55 48/42/48
f 48/42/48 55/49/55 56/50/56 49/43/49
f 49/43/49 56/50/56 57/51/57 50/44/50
f 50/44/50 57/51/57 58/52/58 51/45/51
f 51/45/51 58/52/58 59/53/59 52/46/52
f 52/46/52 59/53/59 60/13/60 53/11/53
f 29/47/29 28/54/28 61/55/61 54/48/54
f 54/48/54 61/55/61 62/56/62 55/49/55
f 55/49/55 62/56/62 63/57/63 56/50/56
f 56/50/56 63/57/63 64/58/64 57/51/57
f 57/51/57 64/58/64 65/59/65 58/52/58
f 58/52/58 65/59/65 66/60/66 59/53/59
f 59/53/59 66/60/66 67/15/67 60/13/60
f 28/54/28 27/61/27 68/62/68 61/55/61
f 61/55/61 68/62/68 69/63/69 62/56/62
f 62/56/62 69/63/69 70/64/70 63/57/63
f 63/57/63 70/64/70 71/65/71 64/58/64
f 64/58/64 71/65/71 72/66/72 65/59/65
f 65/59/65 72/66/72 73/67/73 66/60/66
f 66/60/66 73/67/73 74/17/74 67/15/67
f 27/61/27 26/68/26 75/69/75 68/62/68
f 68/62/68 75/69/75 76/70/76 69/63/69
f 69/63/69 76/70/76 77/71/77 70/64/70
f 70/64/70 77/71/77 78/72/78 71/65/71
f 71/65/71 78/72/78 79/73/79 72/66/72
f 72/66/72 79/73/79 80/74/80 73/67/73
f 73/67/73 80/74/80 81/1/81 74/17/74
f 26/68/26 3/75/3 25/76/25 75/69/75
f 75/69/75 25/76/25 24/77/24 76/70/76
f 76/70/76 24/77/24 23/78/23 77/71/77
f 77/71/77 23/78/23 22/79/22 78/72/78
f 78/72/78 22/79/22 21/80/21 79/73/79
f 79/73/79 21/80/21 20/81/20 80/74/80
f 80/74/80 20/81/20 19/2/19 81/1/81
