# Blender 4.1.1
# www.blender.org
mtllib pivot.mtl
o Sphere
v 0.000000 0.175238 -0.344670
v -0.305887 0.123912 0.123912
v 0.000000 -0.175238 -0.344670
v 0.000000 -0.358307 -0.148416
v 0.056796 0.358307 -0.137118
v 0.104946 0.274236 -0.253361
v 0.123912 0.123912 -0.344670
v 0.175238 0.000000 -0.344670
v 0.123912 -0.123912 -0.344670
v 0.104946 -0.274236 -0.253361
v 0.056796 -0.358307 -0.137118
v 0.104946 0.358307 -0.104946
v 0.193914 0.274236 -0.193914
v 0.253361 0.148416 -0.253361
v 0.274236 0.000000 -0.274236
v 0.253361 -0.148416 -0.253361
v 0.193914 -0.274236 -0.193914
v 0.104946 -0.358307 -0.104946
v 0.137118 0.358307 -0.056796
v 0.253361 0.274236 -0.104946
v 0.344670 0.123912 -0.123912
v 0.344670 0.000000 -0.175238
v 0.344670 -0.123912 -0.123912
v 0.253361 -0.274236 -0.104946
v 0.137118 -0.358307 -0.056796
v 0.148416 0.358307 -0.000000
v 0.274236 0.274236 -0.000000
v 0.344670 0.175238 0.000000
v 0.344670 -0.175238 0.000000
v 0.274236 -0.274236 -0.000000
v 0.148416 -0.358307 -0.000000
v 0.137118 0.358307 0.056796
v 0.253361 0.274236 0.104946
v 0.344670 0.123912 0.123912
v 0.344670 0.000000 0.175238
v 0.344670 -0.123912 0.123912
v 0.253361 -0.274236 0.104946
v 0.137118 -0.358307 0.056796
v 0.104946 0.358307 0.104946
v 0.193914 0.274236 0.193914
v 0.253361 0.148416 0.253361
v 0.274236 0.000000 0.274236
v 0.253361 -0.148416 0.253361
v 0.193914 -0.274236 0.193914
v 0.104946 -0.358307 0.104946
v 0.056796 0.358307 0.137118
v 0.104946 0.274236 0.253361
v 0.123912 0.123912 0.344670
v 0.175238 0.000000 0.344670
v 0.123912 -0.123912 0.344670
v 0.104946 -0.274236 0.253361
v 0.056796 -0.358307 0.137118
v -0.000000 0.358307 0.148416
v -0.000000 0.274236 0.274236
v -0.000000 0.175238 0.344670
v 0.056796 0.319524 -0.137118
v -0.000000 -0.175238 0.344670
v -0.000000 -0.274236 0.274236
v -0.000000 -0.358307 0.148416
v 0.000000 -0.319524 -0.148416
v -0.056796 0.358307 0.137118
v -0.104946 0.274236 0.253361
v -0.123912 0.123912 0.344670
v -0.175238 0.000000 0.344670
v -0.123912 -0.123912 0.344670
v -0.104946 -0.274236 0.253361
v -0.056796 -0.358307 0.137118
v -0.104946 0.358307 0.104946
v -0.193914 0.274236 0.193914
v -0.253361 0.148416 0.253361
v -0.274236 0.000000 0.274236
v -0.253361 -0.148416 0.253361
v -0.193914 -0.274236 0.193914
v -0.104946 -0.358307 0.104946
v -0.137118 0.358307 0.056796
v -0.253361 0.274236 0.104946
v -0.344670 0.123912 0.123912
v -0.344670 0.000000 0.175238
v -0.344670 -0.123912 0.123912
v -0.253361 -0.274236 0.104946
v -0.137118 -0.358307 0.056796
v -0.148416 0.358307 -0.000000
v -0.274236 0.274236 -0.000000
v -0.344670 0.175238 -0.000000
v 0.123912 0.123912 0.305887
v -0.344670 -0.175238 -0.000000
v -0.274236 -0.274236 -0.000000
v -0.148416 -0.358307 -0.000000
v -0.137118 0.358307 -0.056796
v -0.253361 0.274236 -0.104946
v -0.344670 0.123912 -0.123912
v -0.344670 -0.000000 -0.175238
v -0.344670 -0.123912 -0.123912
v -0.253361 -0.274236 -0.104946
v -0.137118 -0.358307 -0.056796
v -0.104946 0.358307 -0.104946
v -0.193914 0.274236 -0.193914
v -0.253361 0.148416 -0.253361
v -0.274236 0.000000 -0.274236
v -0.253361 -0.148416 -0.253361
v -0.193914 -0.274236 -0.193914
v -0.104946 -0.358307 -0.104946
v -0.056796 0.358307 -0.137118
v -0.104945 0.274236 -0.253361
v -0.123912 0.123912 -0.344670
v -0.175238 -0.000000 -0.344670
v -0.123912 -0.123912 -0.344670
v -0.104945 -0.274236 -0.253361
v -0.056796 -0.358307 -0.137118
v 0.000000 0.358307 -0.148416
v 0.000000 0.274236 -0.274236
v 0.000000 -0.274236 -0.274236
v 0.305887 0.123912 -0.123912
v 0.305887 0.000000 -0.175238
v 0.305887 -0.123912 -0.123912
v 0.305887 0.175238 0.000000
v 0.349046 0.000000 0.000000
v 0.305887 -0.175238 0.000000
v 0.305887 0.123912 0.123912
v 0.305887 0.000000 0.175238
v 0.305887 -0.123912 0.123912
v 0.000000 0.175238 -0.305887
v 0.000000 0.000000 -0.349046
v 0.000000 -0.175238 -0.305887
v 0.123912 0.123912 -0.305887
v 0.175238 0.000000 -0.305887
v 0.123912 -0.123912 -0.305887
v -0.123912 0.123912 -0.305887
v -0.175238 -0.000000 -0.305887
v -0.123912 -0.123912 -0.305887
v -0.305887 0.000000 0.175238
v -0.305887 -0.123912 0.123912
v -0.305887 0.175238 -0.000000
v -0.349046 0.000000 -0.000000
v -0.305887 -0.175238 -0.000000
v -0.305887 0.123912 -0.123912
v -0.305887 -0.000000 -0.175238
v -0.305887 -0.123912 -0.123912
v 0.175238 0.000000 0.305887
v 0.123912 -0.123912 0.305887
v -0.000000 0.175238 0.305887
v -0.000000 0.000000 0.349046
v -0.000000 -0.175238 0.305887
v -0.123912 0.123912 0.305887
v -0.175238 0.000000 0.305887
v -0.123912 -0.123912 0.305887
v 0.104946 0.319524 -0.104946
v 0.137118 0.319524 -0.056796
v 0.148416 0.319524 -0.000000
v 0.137118 0.319524 0.056796
v 0.104946 0.319524 0.104946
v 0.056796 0.319524 0.137118
v -0.000000 0.319524 0.148416
v 0.000000 0.349046 -0.000000
v -0.056796 0.319524 0.137118
v -0.104946 0.319524 0.104946
v -0.137118 0.319524 0.056796
v -0.148416 0.319524 -0.000000
v -0.137118 0.319524 -0.056796
v -0.104946 0.319524 -0.104946
v -0.056796 0.319524 -0.137118
v 0.000000 0.319524 -0.148416
v 0.056796 -0.319524 -0.137118
v 0.104946 -0.319524 -0.104946
v 0.137118 -0.319524 -0.056796
v 0.148416 -0.319524 -0.000000
v 0.137118 -0.319524 0.056796
v 0.104946 -0.319524 0.104946
v 0.056796 -0.319524 0.137118
v -0.000000 -0.319524 0.148416
v 0.000000 -0.349046 -0.000000
v -0.056796 -0.319524 0.137118
v -0.104946 -0.319524 0.104946
v -0.137118 -0.319524 0.056796
v -0.148416 -0.319524 -0.000000
v -0.137118 -0.319524 -0.056796
v -0.104946 -0.319524 -0.104946
v -0.056796 -0.319524 -0.137118
vn -0.0000 0.5549 -0.8319
vn -0.0000 0.6951 -0.7189
vn 0.2823 0.6867 -0.6699
vn 0.4191 0.4222 -0.8038
vn 0.9239 -0.0000 -0.3827
vn 0.7071 -0.0000 -0.7071
vn -0.3827 -0.0000 0.9239
vn -0.7071 -0.0000 0.7071
vn -0.0000 -0.6951 -0.7189
vn -0.0000 -0.5549 -0.8319
vn 0.4191 -0.4222 -0.8038
vn 0.2823 -0.6867 -0.6699
vn 0.3827 -0.9239 -0.0000
vn -0.0000 0.8315 -0.5556
vn 0.2126 0.8315 -0.5133
vn -0.0000 -0.8315 -0.5556
vn 0.2126 -0.8315 -0.5133
vn -0.3827 0.9239 -0.0000
vn 0.6522 -0.3863 -0.6522
vn 0.5147 -0.6856 -0.5147
vn 0.5626 -0.0000 -0.8268
vn 0.6522 0.3863 -0.6522
vn 0.3928 0.8315 -0.3928
vn 0.5147 0.6856 -0.5147
vn 0.3928 -0.8315 -0.3928
vn 1.0000 -0.0000 -0.0000
vn -0.7071 -0.0000 -0.7071
vn -0.3827 -0.0000 -0.9239
vn 0.6699 -0.6867 -0.2823
vn 0.5133 -0.8315 -0.2126
vn 0.8268 -0.0000 -0.5626
vn 0.8038 -0.4222 -0.4191
vn 0.6699 0.6867 -0.2823
vn 0.8038 0.4222 -0.4191
vn -0.0000 -0.0000 1.0000
vn 0.5133 0.8315 -0.2126
vn -0.0000 -0.3827 0.9239
vn 0.7189 0.6951 -0.0000
vn 0.8319 0.5549 -0.0000
vn 0.7071 -0.0000 0.7071
vn 0.3827 -0.0000 0.9239
vn 0.8319 -0.5549 -0.0000
vn 0.7189 -0.6951 -0.0000
vn -0.0000 -0.3827 -0.9239
vn 0.5556 0.8315 -0.0000
vn 0.5556 -0.8315 -0.0000
vn -0.9239 -0.0000 0.3827
vn 0.8038 -0.4222 0.4191
vn 0.6699 -0.6867 0.2823
vn -0.0000 0.9239 0.3827
vn 0.5133 0.8315 0.2126
vn 0.6699 0.6867 0.2823
vn 0.5133 -0.8315 0.2126
vn -0.0000 -0.9239 0.3827
vn 0.8038 0.4222 0.4191
vn 0.8268 -0.0000 0.5626
vn 0.6522 0.3863 0.6522
vn 0.3928 0.8315 0.3928
vn 0.5147 0.6856 0.5147
vn 0.5147 -0.6856 0.5147
vn 0.3928 -0.8315 0.3928
vn 0.6522 -0.3863 0.6522
vn 0.3827 -0.0000 -0.9239
vn 0.2823 -0.6867 0.6699
vn 0.2126 -0.8315 0.5133
vn 0.5626 -0.0000 0.8268
vn 0.4191 -0.4222 0.8038
vn 0.2823 0.6867 0.6699
vn 0.4191 0.4222 0.8038
vn -0.9239 -0.0000 -0.3827
vn 0.2126 0.8315 0.5133
vn -0.0000 0.6951 0.7189
vn -0.0000 0.5549 0.8319
vn -0.0000 -0.0000 -1.0000
vn -0.0000 -0.5549 0.8319
vn -0.0000 -0.6951 0.7189
vn -0.0000 0.8315 0.5556
vn -0.0000 -0.8315 0.5556
vn -0.9239 0.3827 -0.0000
vn -0.4191 -0.4222 0.8038
vn -0.2823 -0.6867 0.6699
vn 0.3827 0.9239 -0.0000
vn -0.2126 0.8315 0.5133
vn -0.2823 0.6867 0.6699
vn -0.2126 -0.8315 0.5133
vn -0.4191 0.4222 0.8038
vn -0.3928 0.8315 0.3928
vn -0.5147 0.6856 0.5147
vn -0.5147 -0.6856 0.5147
vn -0.3928 -0.8315 0.3928
vn -0.5626 -0.0000 0.8268
vn -0.6522 -0.3863 0.6522
vn -0.6522 0.3863 0.6522
vn 0.9239 -0.0000 0.3827
vn -0.6699 -0.6867 0.2823
vn -0.5133 -0.8315 0.2126
vn -0.8268 -0.0000 0.5626
vn -0.8038 -0.4222 0.4191
vn -0.6699 0.6867 0.2823
vn -0.8038 0.4222 0.4191
vn -0.5133 0.8315 0.2126
vn -1.0000 -0.0000 -0.0000
vn -0.8319 -0.5549 -0.0000
vn -0.7189 -0.6951 -0.0000
vn -0.0000 -0.9239 -0.3827
vn -0.5556 0.8315 -0.0000
vn -0.7189 0.6951 -0.0000
vn -0.5556 -0.8315 -0.0000
vn -0.8319 0.5549 -0.0000
vn -0.8038 -0.4222 -0.4191
vn -0.6699 -0.6867 -0.2823
vn -0.5133 0.8315 -0.2126
vn -0.6699 0.6867 -0.2823
vn -0.5133 -0.8315 -0.2126
vn -0.8038 0.4222 -0.4191
vn -0.5147 -0.6856 -0.5147
vn -0.3928 -0.8315 -0.3928
vn -0.8268 -0.0000 -0.5626
vn -0.6522 -0.3863 -0.6522
vn -0.5147 0.6856 -0.5147
vn -0.6522 0.3863 -0.6522
vn -0.3928 0.8315 -0.3928
vn -0.5626 -0.0000 -0.8268
vn -0.4191 -0.4222 -0.8038
vn -0.2823 0.6867 -0.6699
vn -0.4191 0.4222 -0.8038
vn -0.2823 -0.6867 -0.6699
vn -0.2126 0.8315 -0.5133
vn -0.2126 -0.8315 -0.5133
vn 0.9239 0.3827 -0.0000
vn 0.9710 -0.1691 -0.1691
vn 0.9852 -0.0000 -0.1716
vn 0.9852 -0.1716 -0.0000
vn 0.9710 0.1691 -0.1691
vn 0.9852 0.1716 -0.0000
vn 0.9710 0.1691 0.1691
vn 0.9852 -0.0000 0.1716
vn 0.9710 -0.1691 0.1691
vn -0.0000 0.3827 -0.9239
vn -0.0000 0.3827 0.9239
vn -0.0000 0.9239 -0.3827
vn -0.0000 0.1716 -0.9852
vn 0.1691 0.1691 -0.9710
vn 0.1716 -0.0000 -0.9852
vn -0.0000 -0.1716 -0.9852
vn 0.1691 -0.1691 -0.9710
vn -0.1716 -0.0000 -0.9852
vn -0.1691 0.1691 -0.9710
vn -0.1691 -0.1691 -0.9710
vn -0.3827 -0.9239 -0.0000
vn -0.9239 -0.3827 -0.0000
vn 0.9239 -0.3827 -0.0000
vn -0.9852 -0.0000 0.1716
vn -0.9710 0.1691 0.1691
vn -0.9852 0.1716 -0.0000
vn -0.9710 -0.1691 0.1691
vn -0.9852 -0.1716 -0.0000
vn -0.9710 0.1691 -0.1691
vn -0.9852 -0.0000 -0.1716
vn -0.9710 -0.1691 -0.1691
vn 0.1716 -0.0000 0.9852
vn 0.1691 0.1691 0.9710
vn -0.0000 0.1716 0.9852
vn 0.1691 -0.1691 0.9710
vn -0.0000 -0.1716 0.9852
vn -0.1691 0.1691 0.9710
vn -0.1716 -0.0000 0.9852
vn -0.1691 -0.1691 0.9710
vn -0.0000 0.9808 -0.1951
vn -0.0000 1.0000 -0.0000
vn 0.0747 0.9808 -0.1802
vn 0.1379 0.9808 -0.1379
vn 0.1802 0.9808 -0.0747
vn 0.1951 0.9808 -0.0000
vn 0.1802 0.9808 0.0747
vn 0.1379 0.9808 0.1379
vn 0.0747 0.9808 0.1802
vn -0.0000 0.9808 0.1951
vn -0.0747 0.9808 0.1802
vn -0.1380 0.9808 0.1379
vn -0.1802 0.9808 0.0747
vn -0.1951 0.9808 -0.0000
vn -0.1802 0.9808 -0.0747
vn -0.1379 0.9808 -0.1380
vn -0.0747 0.9808 -0.1802
vn -0.0000 -1.0000 -0.0000
vn -0.0000 -0.9808 -0.1951
vn 0.0747 -0.9808 -0.1802
vn 0.1379 -0.9808 -0.1379
vn 0.1802 -0.9808 -0.0747
vn 0.1951 -0.9808 -0.0000
vn 0.1802 -0.9808 0.0747
vn 0.1380 -0.9808 0.1379
vn 0.0747 -0.9808 0.1802
vn -0.0000 -0.9808 0.1951
vn -0.0747 -0.9808 0.1802
vn -0.1380 -0.9808 0.1379
vn -0.1802 -0.9808 0.0747
vn -0.1951 -0.9808 -0.0000
vn -0.1802 -0.9808 -0.0747
vn -0.1379 -0.9808 -0.1380
vn -0.0747 -0.9808 -0.1802
vt 0.354069 0.310038
vt 0.335961 0.314590
vt 0.326694 0.297456
vt 0.365706 0.286037
vt 0.078208 0.790839
vt 0.116945 0.790839
vt 0.112914 0.814012
vt 0.083351 0.813790
vt 0.375278 0.833055
vt 0.390102 0.868843
vt 0.367151 0.873987
vt 0.356042 0.846590
vt 0.412824 0.348832
vt 0.404778 0.332125
vt 0.414607 0.310266
vt 0.431811 0.345059
vt 0.935724 0.649876
vt 0.998359 0.712511
vt 0.975011 0.723481
vt 0.926971 0.674142
vt 0.316545 0.328090
vt 0.307729 0.321606
vt 0.415497 0.371018
vt 0.424358 0.373397
vt 0.847145 0.863725
vt 0.784510 0.801090
vt 0.807857 0.790121
vt 0.855897 0.839459
vt 0.470886 0.291367
vt 0.458408 0.350949
vt 0.396039 0.285305
vt 0.342361 0.231055
vt 0.418717 0.236132
vt 0.295955 0.318674
vt 0.304292 0.280633
vt 0.433285 0.380131
vt 0.042419 0.805663
vt 0.055954 0.824899
vt 0.312098 0.985585
vt 0.273361 0.985585
vt 0.277392 0.962412
vt 0.306954 0.962633
vt 0.492129 0.376842
vt 0.439690 0.391398
vt 0.497869 0.065977
vt 0.658764 0.258371
vt 0.262231 0.272794
vt 0.242882 0.065977
vt 0.078208 0.985585
vt 0.042419 0.970760
vt 0.055011 0.950894
vt 0.082239 0.962412
vt 0.347886 0.805663
vt 0.335295 0.825529
vt 0.283782 0.322332
vt 0.998760 0.496547
vt 0.998814 0.585796
vt 0.974241 0.576772
vt 0.975310 0.507507
vt 0.224030 0.309464
vt 0.076805 0.241941
vt 0.015028 0.943369
vt 0.034264 0.929834
vt 0.273361 0.790839
vt 0.312098 0.790839
vt 0.308067 0.814012
vt 0.278504 0.813790
vt 0.640334 0.495614
vt 0.491646 0.429178
vt 0.841292 0.647507
vt 0.784510 0.578934
vt 0.806272 0.571087
vt 0.853535 0.621169
vt 0.276319 0.332741
vt 0.439950 0.404942
vt 0.390102 0.907580
vt 0.366930 0.903549
vt 0.473910 0.675443
vt 0.453864 0.466042
vt 0.848473 0.434081
vt 0.936136 0.434081
vt 0.927379 0.458193
vt 0.859119 0.457123
vt 0.274608 0.345471
vt 0.222707 0.361435
vt 0.432772 0.415865
vt 0.934647 0.649469
vt 0.923809 0.624946
vt 0.054180 0.478941
vt 0.000204 0.907580
vt 0.000204 0.868843
vt 0.023376 0.872874
vt 0.023155 0.902437
vt 0.215057 0.674999
vt 0.243073 0.447109
vt 0.295699 0.503125
vt 0.280925 0.357332
vt 0.255598 0.386796
vt 0.411429 0.458272
vt 0.419318 0.419475
vt 0.372888 0.508480
vt 0.194949 0.868843
vt 0.194949 0.907580
vt 0.171777 0.903549
vt 0.171998 0.873987
vt 0.210181 0.943369
vt 0.195356 0.907580
vt 0.218308 0.902437
vt 0.229416 0.929834
vt 0.388839 0.441547
vt 0.406843 0.416743
vt 0.318812 0.453433
vt 0.349159 0.452824
vt 0.283176 0.393297
vt 0.300362 0.428324
vt 0.116945 0.985585
vt 0.111801 0.962633
vt 0.347886 0.970760
vt 0.334351 0.951525
vt 0.289906 0.364661
vt 0.302637 0.389612
vt 0.310461 0.406346
vt 0.152734 0.805663
vt 0.140142 0.825529
vt 0.237572 0.970760
vt 0.250164 0.950894
vt 0.360904 0.428558
vt 0.378837 0.423867
vt 0.859719 0.000204
vt 0.943332 0.009410
vt 0.933533 0.029401
vt 0.866481 0.025155
vt 0.299085 0.367207
vt 0.397860 0.410875
vt 0.999796 0.069129
vt 0.977410 0.078964
vt 0.355026 0.410677
vt 0.374946 0.409730
vt 0.786360 0.058114
vt 0.813525 0.071369
vt 0.307271 0.366133
vt 0.315446 0.383354
vt 0.392548 0.404210
vt 0.938305 0.217207
vt 0.849120 0.217878
vt 0.858098 0.193168
vt 0.927317 0.193910
vt 0.328057 0.399786
vt 0.313825 0.362661
vt 0.324720 0.375752
vt 0.374420 0.397859
vt 0.390184 0.397589
vt 0.343118 0.402050
vt 0.347858 0.391248
vt 0.360490 0.395824
vt 0.335777 0.385012
vt 0.180125 0.943369
vt 0.160259 0.930777
vt 0.210181 0.833055
vt 0.237572 0.805663
vt 0.251107 0.824899
vt 0.230047 0.845647
vt 0.376091 0.388063
vt 0.390282 0.391233
vt 0.351960 0.382037
vt 0.362567 0.382313
vt 0.331190 0.367991
vt 0.344755 0.374272
vt 0.180125 0.833055
vt 0.160889 0.846590
vt 0.319599 0.358543
vt 0.015028 0.833055
vt 0.034894 0.845647
vt 0.375278 0.943369
vt 0.355412 0.930777
vt 0.370233 0.375084
vt 0.379269 0.379182
vt 0.847188 0.433673
vt 0.784564 0.371208
vt 0.808014 0.360247
vt 0.855945 0.409561
vt 0.323293 0.353663
vt 0.336019 0.359686
vt 0.392769 0.385440
vt 0.934851 0.433673
vt 0.924205 0.410631
vt 0.344952 0.363717
vt 0.370441 0.364487
vt 0.383999 0.370834
vt 0.784510 0.281958
vt 0.809082 0.290982
vt 0.325206 0.348028
vt 0.339134 0.350825
vt 0.396305 0.380005
vt 0.848677 0.218285
vt 0.859515 0.242808
vt 0.352599 0.356469
vt 0.390469 0.362845
vt 0.401251 0.375397
vt 0.363199 0.356706
vt 0.367277 0.347432
vt 0.379388 0.353643
vt 0.340632 0.340880
vt 0.354611 0.342858
vt 0.152734 0.970760
vt 0.139199 0.951525
vt 0.195356 0.868843
vt 0.218529 0.872874
vt 0.324949 0.341768
vt 0.371986 0.336576
vt 0.387100 0.338772
vt 0.339923 0.328947
vt 0.359999 0.327957
vt 0.399783 0.355165
vt 0.321959 0.335228
vt 0.407668 0.372034
vt 0.784510 0.712511
vt 0.847145 0.649876
vt 0.858114 0.673224
vt 0.808776 0.721264
vt 0.935724 0.863725
vt 0.924754 0.840378
vt 0.891204 0.540099
vt 0.810059 0.503939
vt 0.786897 0.494932
vt 0.891434 0.756801
vt 0.974093 0.792338
vt 0.998359 0.801090
vt 0.892119 0.327655
vt 0.973265 0.363815
vt 0.977052 0.296667
vt 0.929789 0.246585
vt 0.942032 0.220247
vt 0.998814 0.288820
vt 0.996427 0.372822
vt 0.976066 0.146200
vt 0.895233 0.110068
vt 0.809431 0.142554
vt 0.784510 0.153551
vt 0.999796 0.154835
vt 0.097576 0.888212
vt 0.292729 0.888212
s 1
usemtl Material.001
f 1/1/1 111/2/2 6/3/3 7/4/4
f 75/5/5 68/6/6 156/7/6 157/8/5
f 11/9/7 18/10/8 164/11/8 163/12/7
f 112/13/9 3/14/10 9/15/11 10/16/12
f 105/17/13 1/18/13 122/19/13 128/20/13
f 111/2/2 110/21/14 5/22/15 6/3/3
f 4/23/16 112/13/9 10/16/12 11/24/17
f 9/25/18 3/26/18 124/27/18 127/28/18
f 10/16/12 9/15/11 16/29/19 17/30/20
f 8/31/21 7/4/4 14/32/22 15/33/6
f 6/3/3 5/22/15 12/34/23 13/35/24
f 11/24/17 10/16/12 17/30/20 18/36/25
f 9/15/11 8/31/21 15/33/6 16/29/19
f 7/4/4 6/3/3 13/35/24 14/32/22
f 82/37/26 75/5/5 157/8/5 158/38/26
f 45/39/27 52/40/28 169/41/28 168/42/27
f 18/36/25 17/30/20 24/43/29 25/44/30
f 16/29/19 15/33/6 22/45/31 23/46/32
f 14/32/22 13/35/24 20/47/33 21/48/34
f 12/49/8 5/50/7 56/51/7 147/52/8
f 4/53/35 11/9/7 163/12/7 60/54/35
f 17/30/20 16/29/19 23/46/32 24/43/29
f 15/33/6 14/32/22 21/48/34 22/45/31
f 13/35/24 12/34/23 19/55/36 20/47/33
f 22/56/37 21/57/37 113/58/37 114/59/37
f 21/48/34 20/47/33 27/60/38 28/61/39
f 5/50/7 110/62/35 162/63/35 56/51/7
f 102/64/40 109/65/41 178/66/41 177/67/40
f 24/43/29 23/46/32 29/68/42 30/69/43
f 34/70/44 35/71/44 120/72/44 119/73/44
f 20/47/33 19/55/36 26/74/45 27/60/38
f 25/44/30 24/43/29 30/69/43 31/75/46
f 18/10/8 25/76/47 165/77/47 164/11/8
f 30/69/43 29/68/42 36/78/48 37/79/49
f 29/80/50 23/81/50 115/82/50 118/83/50
f 27/60/38 26/74/45 32/84/51 33/85/52
f 31/75/46 30/69/43 37/79/49 38/86/53
f 21/57/54 28/87/54 116/88/54 113/58/54
f 28/61/39 27/60/38 33/85/52 34/89/55
f 103/90/41 96/91/40 160/92/40 161/93/41
f 35/94/56 34/89/55 41/95/57 42/96/40
f 33/85/52 32/84/51 39/97/58 40/98/59
f 38/86/53 37/79/49 44/99/60 45/100/61
f 36/78/48 35/94/56 42/96/40 43/101/62
f 34/89/55 33/85/52 40/98/59 41/95/57
f 46/102/28 39/103/27 151/104/27 152/105/28
f 67/106/63 74/107/6 173/108/6 172/109/63
f 37/79/49 36/78/48 43/101/62 44/99/60
f 45/100/61 44/99/60 51/110/64 52/111/65
f 43/101/62 42/96/40 49/112/66 50/113/67
f 41/95/57 40/98/59 47/114/68 48/115/69
f 19/116/47 12/49/8 147/52/8 148/117/47
f 38/118/70 45/39/27 168/42/27 167/119/70
f 44/99/60 43/101/62 50/113/67 51/110/64
f 42/96/40 41/95/57 48/115/69 49/112/66
f 40/98/59 39/97/58 46/120/71 47/114/68
f 48/115/69 47/114/68 54/121/72 55/122/73
f 68/6/6 61/123/63 155/124/63 156/7/6
f 59/125/74 67/106/63 172/109/63 170/126/74
f 51/110/64 50/113/67 57/127/75 58/128/76
f 57/129/18 50/130/18 140/131/18 143/132/18
f 47/114/68 46/120/71 53/133/77 54/121/72
f 52/111/65 51/110/64 58/128/76 59/134/78
f 50/130/79 49/135/79 139/136/79 140/131/79
f 109/65/41 4/53/35 60/54/35 178/66/41
f 58/128/76 57/127/75 65/137/80 66/138/81
f 65/139/82 57/129/82 143/132/82 146/140/82
f 54/121/72 53/133/77 61/141/83 62/142/84
f 59/134/78 58/128/76 66/138/81 67/143/85
f 55/144/13 63/145/13 144/146/13 141/147/13
f 55/122/73 54/121/72 62/142/84 63/148/86
f 110/62/35 103/90/41 161/93/41 162/63/35
f 62/142/84 61/141/83 68/149/87 69/150/88
f 67/143/85 66/138/81 73/151/89 74/152/90
f 65/137/80 64/153/91 71/154/8 72/155/92
f 63/148/86 62/142/84 69/150/88 70/156/93
f 39/103/27 32/157/70 150/158/70 151/104/27
f 88/159/26 95/160/94 176/161/94 175/162/26
f 66/138/81 65/137/80 72/155/92 73/151/89
f 64/153/91 63/148/86 70/156/93 71/154/8
f 74/152/90 73/151/89 80/163/95 81/164/96
f 72/155/92 71/154/8 78/165/97 79/166/98
f 70/156/93 69/150/88 76/167/99 77/168/100
f 61/123/63 53/169/74 153/170/74 155/124/63
f 95/160/94 102/64/40 177/67/40 176/161/94
f 73/151/89 72/155/92 79/166/98 80/163/95
f 71/154/8 70/156/93 77/168/100 78/165/97
f 69/150/88 68/149/87 75/171/101 76/167/99
f 89/172/94 82/37/26 158/38/26 159/173/94
f 31/174/102 38/118/70 167/119/70 166/175/102
f 80/163/95 79/166/98 86/176/103 87/177/104
f 77/178/105 84/179/105 133/180/105 2/181/105
f 76/167/99 75/171/101 82/182/106 83/183/107
f 81/164/96 80/163/95 87/177/104 88/184/108
f 78/185/44 77/178/44 2/181/44 131/186/44
f 77/168/100 76/167/99 83/183/107 84/187/109
f 87/177/104 86/176/103 93/188/110 94/189/111
f 84/179/54 91/190/54 136/191/54 133/180/54
f 83/183/107 82/182/106 89/192/112 90/193/113
f 88/184/108 87/177/104 94/189/111 95/194/114
f 91/190/37 92/195/37 137/196/37 136/191/37
f 84/187/109 83/183/107 90/193/113 91/197/115
f 96/91/40 89/172/94 159/173/94 160/92/40
f 25/76/47 31/174/102 166/175/102 165/77/47
f 95/194/114 94/189/111 101/198/116 102/199/117
f 93/188/110 92/200/118 99/201/27 100/202/119
f 91/197/115 90/193/113 97/203/120 98/204/121
f 32/157/70 26/205/102 149/206/102 150/158/70
f 74/107/6 81/207/5 174/208/5 173/108/6
f 94/189/111 93/188/110 100/202/119 101/198/116
f 92/200/118 91/197/115 98/204/121 99/201/27
f 90/193/113 89/192/112 96/209/122 97/203/120
f 100/202/119 99/201/27 106/210/123 107/211/124
f 98/204/121 97/203/120 104/212/125 105/213/126
f 26/205/102 19/116/47 148/117/47 149/206/102
f 52/40/28 59/125/74 170/126/74 169/41/28
f 101/198/116 100/202/119 107/211/124 108/214/127
f 99/201/27 98/204/121 105/213/126 106/210/123
f 97/203/120 96/209/122 103/215/128 104/212/125
f 102/199/117 101/198/116 108/214/127 109/216/129
f 81/207/5 88/159/26 175/162/26 174/208/5
f 108/214/127 107/211/124 3/14/10 112/13/9
f 107/217/130 106/218/130 129/219/130 130/220/130
f 104/212/125 103/215/128 110/21/14 111/2/2
f 109/216/129 108/214/127 112/13/9 4/23/16
f 8/221/79 9/25/79 127/28/79 126/222/79
f 105/213/126 104/212/125 111/2/2 1/1/1
f 53/169/74 46/102/28 152/105/28 153/170/74
f 115/82/131 114/59/132 117/223/26 118/83/133
f 114/59/132 113/58/134 116/88/135 117/223/26
f 117/223/26 116/88/135 119/73/136 120/72/137
f 118/83/133 117/223/26 120/72/137 121/224/138
f 35/71/139 36/225/139 121/224/139 120/72/139
f 28/87/105 34/70/105 119/73/105 116/88/105
f 23/81/140 22/56/140 114/59/140 115/82/140
f 36/225/141 29/80/141 118/83/141 121/224/141
f 123/226/74 122/19/142 125/227/143 126/222/144
f 124/27/145 123/226/74 126/222/144 127/28/146
f 129/219/147 128/20/148 122/19/142 123/226/74
f 130/220/149 129/219/147 123/226/74 124/27/145
f 1/18/150 7/228/150 125/227/150 122/19/150
f 3/26/82 107/217/82 130/220/82 124/27/82
f 7/228/151 8/221/151 126/222/151 125/227/151
f 106/218/152 105/17/152 128/20/152 129/219/152
f 131/186/153 2/181/154 133/180/155 134/229/102
f 132/230/156 131/186/153 134/229/102 135/231/157
f 134/229/102 133/180/155 136/191/158 137/196/159
f 135/231/157 134/229/102 137/196/159 138/232/160
f 93/233/50 86/234/50 135/231/50 138/232/50
f 86/234/141 79/235/141 132/230/141 135/231/141
f 92/195/140 93/233/140 138/232/140 137/196/140
f 79/235/139 78/185/139 131/186/139 132/230/139
f 139/136/161 85/236/162 141/147/163 142/237/35
f 140/131/164 139/136/161 142/237/35 143/132/165
f 142/237/35 141/147/163 144/146/166 145/238/167
f 143/132/165 142/237/35 145/238/167 146/140/168
f 63/145/152 64/239/152 145/238/152 144/146/152
f 49/135/151 48/240/151 85/236/151 139/136/151
f 64/239/130 65/139/130 146/140/130 145/238/130
f 48/240/150 55/144/150 141/147/150 85/236/150
f 162/63/169 154/241/170 56/51/171
f 56/51/171 154/241/170 147/52/172
f 147/52/172 154/241/170 148/117/173
f 148/117/173 154/241/170 149/206/174
f 149/206/174 154/241/170 150/158/175
f 150/158/175 154/241/170 151/104/176
f 151/104/176 154/241/170 152/105/177
f 152/105/177 154/241/170 153/170/178
f 153/170/178 154/241/170 155/124/179
f 155/124/179 154/241/170 156/7/180
f 156/7/180 154/241/170 157/8/181
f 157/8/181 154/241/170 158/38/182
f 158/38/182 154/241/170 159/173/183
f 159/173/183 154/241/170 160/92/184
f 160/92/184 154/241/170 161/93/185
f 161/93/185 154/241/170 162/63/169
f 171/242/186 60/54/187 163/12/188
f 171/242/186 163/12/188 164/11/189
f 171/242/186 164/11/189 165/77/190
f 171/242/186 165/77/190 166/175/191
f 171/242/186 166/175/191 167/119/192
f 171/242/186 167/119/192 168/42/193
f 171/242/186 168/42/193 169/41/194
f 171/242/186 169/41/194 170/126/195
f 171/242/186 170/126/195 172/109/196
f 171/242/186 172/109/196 173/108/197
f 171/242/186 173/108/197 174/208/198
f 171/242/186 174/208/198 175/162/199
f 171/242/186 175/162/199 176/161/200
f 171/242/186 176/161/200 177/67/201
f 171/242/186 177/67/201 178/66/202
f 171/242/186 178/66/202 60/54/187
