# Blender 4.1.1
# www.blender.org
mtllib triplebarrel.mtl
o Cube
v 0.049389 0.025835 -0.845478
v 0.049389 -0.025835 -0.845478
v 0.049389 0.025835 -0.798487
v 0.045638 -0.025835 -0.798487
v -0.049389 0.025835 -0.845478
v -0.049389 -0.025835 -0.845478
v -0.049389 0.025835 -0.798487
v -0.045638 -0.025835 -0.798487
v 0.000000 -0.020668 -0.845478
v -0.029631 0.049331 -0.798487
v 0.000000 -0.033529 -0.798487
v 0.000000 0.020668 -0.845478
v 0.061736 0.000000 -0.845478
v -0.061736 0.000000 -0.798487
v 0.061736 0.000000 -0.798487
v -0.061736 0.000000 -0.845478
v 0.000000 0.000000 -0.845478
v -0.030868 -0.032294 -0.845478
v -0.022103 0.032294 -0.798487
v -0.030868 -0.031084 -0.798487
v -0.022103 0.032294 -0.845478
v -0.030868 0.000000 -0.845478
v 0.030868 -0.031084 -0.798487
v 0.022103 0.032294 -0.845478
v 0.030868 -0.032294 -0.845478
v 0.022103 0.032294 -0.798487
v 0.030868 0.000000 -0.845478
v 0.049389 0.025835 -0.762518
v 0.042148 -0.026269 -0.762518
v -0.049389 0.025835 -0.762518
v -0.042148 -0.026269 -0.762518
v 0.000000 -0.065264 -0.762518
v -0.061736 0.000000 -0.762518
v 0.061736 0.000000 -0.762518
v -0.022103 0.032294 -0.762518
v -0.030868 -0.061277 -0.762518
v 0.030868 -0.061277 -0.762518
v 0.022103 0.032294 -0.762518
v 0.049389 0.025835 0.026400
v 0.041874 -0.026269 0.026400
v -0.049389 0.025835 0.026400
v -0.041874 -0.026269 0.026400
v 0.000000 0.039883 0.071876
v 0.000000 -0.065264 0.026400
v -0.061736 0.000000 0.026400
v 0.061736 0.000000 0.026400
v -0.022103 0.032294 0.026400
v -0.030868 -0.061277 0.026400
v 0.030868 -0.061277 0.026400
v 0.022103 0.032294 0.026400
v 0.000000 -0.065264 -0.731153
v -0.030868 -0.061277 -0.731153
v -0.049389 0.025835 -0.731153
v -0.022103 0.032294 -0.731153
v -0.041874 -0.026269 -0.731153
v -0.061736 0.000000 -0.731153
v 0.041874 -0.026269 -0.731153
v 0.030868 -0.061277 -0.731153
v 0.049389 0.025835 -0.731153
v 0.061736 0.000000 -0.731153
v 0.022103 0.032294 -0.731153
v -0.000000 0.034240 0.096356
v 0.000000 -0.064361 0.042424
v -0.041141 -0.009028 0.042424
v 0.041141 -0.009028 0.042424
v -0.016197 0.030033 0.060549
v -0.024102 -0.056182 0.049519
v 0.024102 -0.056182 0.049519
v 0.016197 0.030033 0.060549
v 0.000000 -0.065264 -0.017811
v -0.049389 0.025835 -0.017811
v 0.041874 -0.026269 -0.017811
v 0.049389 0.025835 -0.017811
v -0.030868 -0.061277 -0.017811
v -0.022103 0.032294 -0.017811
v -0.041874 -0.026269 -0.017811
v -0.061736 0.000000 -0.017811
v 0.030868 -0.061277 -0.017811
v 0.061736 0.000000 -0.017811
v 0.022103 0.032294 -0.017811
v -0.000000 0.023211 0.134787
v -0.031400 -0.017695 0.127156
v 0.031400 -0.017695 0.127156
v -0.023470 0.018659 0.133938
v -0.025008 -0.065574 0.118224
v 0.025008 -0.065574 0.118224
v 0.023470 0.018659 0.133938
v -0.000000 -0.012900 0.243615
v 0.000000 -0.104032 0.210548
v -0.031400 -0.052017 0.229421
v 0.031400 -0.052017 0.229421
v -0.023470 -0.017253 0.242035
v -0.025008 -0.097801 0.212808
v 0.025008 -0.097801 0.212808
v 0.023470 -0.017253 0.242035
v -0.000000 -0.107991 0.405482
v 0.000000 -0.190737 0.354970
v -0.031400 -0.143508 0.383801
v 0.031400 -0.143508 0.383801
v -0.023470 -0.111944 0.403069
v -0.025008 -0.185080 0.358424
v 0.025008 -0.185080 0.358424
v 0.023470 -0.111944 0.403069
v -0.000000 -0.249181 0.523796
v 0.000000 -0.282113 0.429804
v -0.032258 -0.263316 0.483452
v 0.032258 -0.263316 0.483452
v -0.024111 -0.250754 0.519307
v -0.025691 -0.279861 0.436230
v 0.025691 -0.279861 0.436230
v 0.024111 -0.250754 0.519307
v 0.000000 -0.263677 0.482421
v -0.004819 -0.063900 0.074024
v 0.000000 -0.064676 0.072198
v 0.004819 -0.063900 0.074024
v -0.004819 -0.065072 0.086693
v 0.000000 -0.066179 0.088332
v 0.004819 -0.065072 0.086693
v -0.004303 -0.081178 0.157425
v 0.000000 -0.081364 0.155396
v 0.004303 -0.081178 0.157425
v -0.004303 -0.086199 0.171597
v 0.000000 -0.087680 0.173183
v 0.004303 -0.086199 0.171597
v -0.004201 -0.095867 0.071608
v 0.000000 -0.096255 0.068873
v 0.004201 -0.095867 0.071608
v -0.004201 -0.095592 0.080755
v 0.000000 -0.095961 0.083824
v 0.004201 -0.095592 0.080755
v -0.003388 -0.110669 0.150217
v 0.000000 -0.109165 0.147059
v 0.003388 -0.110669 0.150217
v -0.003388 -0.115908 0.158289
v 0.000000 -0.117917 0.160505
v 0.003388 -0.115908 0.158289
v -0.004930 -0.123135 0.128859
v 0.000000 -0.120677 0.127641
v 0.004930 -0.123135 0.128859
v -0.004930 -0.132376 0.132384
v 0.000000 -0.135008 0.133332
v 0.004930 -0.132376 0.132384
v -0.005442 -0.121826 0.083905
v 0.000000 -0.123695 0.081948
v 0.005442 -0.121826 0.083905
v -0.005442 -0.116051 0.091160
v 0.000000 -0.114281 0.092619
v 0.005442 -0.116051 0.091160
v -0.003569 -0.068013 0.116677
v 0.003281 -0.069912 0.122982
v 0.003281 -0.068013 0.116677
v -0.003569 -0.069912 0.122982
v -0.002474 -0.080532 0.118683
v 0.002186 -0.084424 0.120901
v 0.002186 -0.080532 0.118683
v -0.002474 -0.084424 0.120901
v -0.002088 -0.095269 0.117286
v 0.001800 -0.098596 0.118712
v 0.001800 -0.095269 0.117286
v -0.002088 -0.098596 0.118712
v -0.002088 -0.103123 0.113820
v 0.001800 -0.106677 0.112667
v 0.001800 -0.103123 0.113820
v -0.002088 -0.106677 0.112667
v -0.030868 -0.061277 -0.224229
v -0.022103 0.032294 -0.224229
v -0.041874 -0.026269 -0.224229
v -0.061736 0.000000 -0.224229
v 0.030868 -0.061277 -0.224229
v 0.061736 0.000000 -0.224229
v 0.022103 0.032294 -0.224229
v 0.000000 -0.065264 -0.224229
v -0.049389 0.025835 -0.224229
v 0.041874 -0.026269 -0.224229
v 0.049389 0.025835 -0.224229
v -0.029631 0.049331 -0.845478
v 0.029631 0.049331 -0.845478
v 0.029631 0.049331 -0.798487
v -0.029631 0.049331 -0.762518
v 0.029631 0.049331 -0.762518
v -0.000000 0.053135 0.063338
v -0.025862 0.050383 0.023250
v 0.025862 0.050383 0.023250
v -0.029631 0.049331 -0.731153
v 0.029631 0.049331 -0.731153
v -0.017757 0.050019 0.056582
v 0.017757 0.050019 0.056582
v -0.029631 0.049331 -0.017811
v 0.029631 0.049331 -0.017811
v -0.029631 0.049331 -0.224229
v 0.029631 0.049331 -0.224229
v -0.019839 0.073407 -0.798487
v -0.019839 0.073407 -0.845478
v 0.019839 0.073407 -0.845478
v 0.019839 0.073407 -0.798487
v -0.019839 0.073407 -0.762518
v 0.019839 0.073407 -0.762518
v -0.000000 0.066577 0.057859
v -0.017547 0.070446 0.023065
v 0.017547 0.070446 0.023065
v -0.019839 0.073407 -0.731153
v 0.019839 0.073407 -0.731153
v -0.012059 0.067991 0.051566
v 0.012059 0.067991 0.051566
v -0.019839 0.073407 -0.017811
v 0.019839 0.073407 -0.017811
v -0.019839 0.073407 -0.224229
v 0.019839 0.073407 -0.224229
v 0.000000 0.048099 -0.845478
v 0.000000 0.080699 -0.845478
v 0.000000 0.080699 -0.798560
v 0.000000 0.080699 -0.762681
v 0.000000 0.080699 -0.731218
v 0.000000 0.080699 -0.223787
v 0.000000 0.080699 -0.018716
v 0.000000 0.078108 0.022922
v -0.000000 0.074138 0.048701
vn -0.2303 0.9731 -0.0000
vn -0.7391 0.6736 -0.0000
vn -0.9997 -0.0134 0.0189
vn -0.9998 -0.0078 0.0188
vn 0.1013 -0.9937 -0.0481
vn 0.7584 -0.6509 0.0340
vn 0.7452 -0.6660 0.0346
vn 0.1015 -0.9937 -0.0480
vn 0.9998 -0.0078 0.0188
vn 0.7391 0.6736 -0.0000
vn 0.9997 -0.0134 0.0189
vn -0.0000 -0.0000 -1.0000
vn -0.1013 -0.9937 -0.0481
vn 0.1460 -0.9818 -0.1217
vn -0.1015 -0.9937 -0.0480
vn 0.9147 -0.4042 -0.0000
vn 1.0000 -0.0053 -0.0000
vn -0.7452 -0.6660 0.0346
vn -0.7584 -0.6509 0.0340
vn 0.2303 0.9731 -0.0000
vn -0.1460 -0.9818 -0.1217
vn -0.1751 -0.7502 -0.6376
vn -0.0000 -0.7579 -0.6524
vn -0.1425 -0.7528 -0.6426
vn 0.9997 -0.0218 0.0105
vn 0.8112 -0.5845 0.0184
vn -0.9523 -0.3041 0.0250
vn -0.9512 -0.3048 0.0492
vn -0.9481 -0.3055 0.0883
vn -0.2626 -0.7390 -0.6204
vn 0.1751 -0.7502 -0.6376
vn 0.1425 -0.7528 -0.6426
vn -0.9997 -0.0218 0.0105
vn -0.8112 -0.5845 0.0184
vn -0.1281 -0.9918 -0.0000
vn -0.0000 -1.0000 -0.0000
vn -0.7147 0.6994 0.0066
vn -0.2299 0.9714 0.0596
vn -0.9540 -0.2999 -0.0000
vn -0.9997 -0.0246 -0.0000
vn -0.7977 -0.6031 -0.0000
vn 0.9540 -0.2999 -0.0000
vn 0.1281 -0.9918 -0.0000
vn 0.9997 -0.0246 -0.0000
vn 0.7147 0.6994 0.0066
vn 0.2299 0.9714 0.0596
vn 0.7977 -0.6031 -0.0000
vn 0.9997 -0.0245 0.0009
vn 0.7987 -0.6018 0.0017
vn -0.9997 -0.0245 0.0009
vn 0.9523 -0.3041 0.0250
vn 0.9512 -0.3048 0.0492
vn 0.9534 -0.3016 0.0021
vn -0.7987 -0.6018 0.0017
vn -0.9534 -0.3016 0.0021
vn -0.1902 -0.9650 0.1807
vn -0.0000 -0.9829 0.1841
vn -0.7922 -0.1382 0.5944
vn -0.7184 0.1429 0.6807
vn -0.6011 0.2120 0.7706
vn -0.8386 -0.3528 0.4150
vn -0.9014 -0.2808 0.3296
vn -0.9017 -0.2835 0.3264
vn 0.7922 -0.1382 0.5944
vn 0.9014 -0.2808 0.3296
vn 0.8386 -0.3528 0.4150
vn 0.1902 -0.9650 0.1807
vn -0.6151 -0.0038 0.7884
vn 0.6151 -0.0038 0.7884
vn 0.6011 0.2120 0.7706
vn 0.7184 0.1429 0.6807
vn 0.9017 -0.2835 0.3264
vn -0.0000 0.7547 0.6561
vn -0.5305 0.6462 0.5487
vn -0.0000 0.9818 0.1900
vn -0.2664 0.9324 0.2442
vn -0.0000 0.9697 0.2445
vn 0.0788 -0.9440 -0.3205
vn -0.0000 -0.9429 -0.3331
vn -0.0785 -0.9431 -0.3231
vn -0.0818 -0.9482 -0.3070
vn -0.2291 0.9679 0.1037
vn -0.1459 -0.9643 -0.2211
vn -0.2275 -0.9682 -0.1041
vn -0.2626 -0.9622 -0.0720
vn -0.1209 -0.9871 -0.1047
vn -0.9559 0.2865 0.0651
vn -0.9223 0.3813 0.0627
vn -0.9986 0.0292 0.0450
vn -0.9985 0.0468 0.0288
vn 0.9559 0.2865 0.0651
vn 0.9985 0.0468 0.0288
vn 0.9986 0.0292 0.0450
vn 0.9223 0.3813 0.0627
vn 0.5305 0.6462 0.5487
vn 0.2664 0.9324 0.2442
vn 0.2291 0.9679 0.1037
vn -0.0000 0.9108 0.4129
vn 0.1934 0.8933 0.4057
vn -0.1934 0.8933 0.4057
vn -0.2051 -0.8826 -0.4231
vn -0.1822 -0.9167 -0.3557
vn 0.1454 -0.9643 -0.2211
vn 0.2051 -0.8826 -0.4231
vn 0.1822 -0.9167 -0.3557
vn -0.0000 0.7640 0.6453
vn 0.1900 0.7485 0.6354
vn -0.1900 0.7485 0.6354
vn -0.0000 -0.8904 -0.4552
vn -0.0000 -0.7558 -0.6548
vn -0.2516 -0.7325 -0.6326
vn 0.9992 0.0362 0.0171
vn 0.9915 -0.1181 -0.0551
vn 0.9843 -0.1762 -0.0108
vn 0.9704 -0.2398 0.0277
vn 0.2516 -0.7325 -0.6326
vn 0.9777 0.1914 0.0863
vn -0.0000 0.6424 0.7664
vn 0.1827 0.6316 0.7535
vn 0.9769 0.1657 0.1348
vn 0.9989 0.0361 0.0306
vn 0.9912 -0.0971 -0.0902
vn -0.1827 0.6316 0.7535
vn -0.0000 -0.6335 -0.7737
vn -0.2422 -0.6147 -0.7507
vn -0.0000 -0.9438 0.3307
vn -0.0000 -0.9437 0.3307
vn 0.9977 0.0470 0.0481
vn 0.9904 -0.0837 -0.1098
vn 0.2422 -0.6147 -0.7507
vn 0.9750 0.1457 0.1677
vn -0.9992 0.0362 0.0171
vn -0.9777 0.1914 0.0863
vn -0.9989 0.0361 0.0306
vn -0.9769 0.1657 0.1348
vn -0.9843 -0.1762 -0.0108
vn -0.9915 -0.1181 -0.0551
vn -0.9704 -0.2398 0.0277
vn -0.9977 0.0470 0.0481
vn -0.9750 0.1457 0.1677
vn -0.9912 -0.0971 -0.0902
vn -0.9904 -0.0837 -0.1098
vn 0.9719 -0.0576 0.2282
vn -0.0000 -0.1761 0.9844
vn -0.0000 0.1586 0.9873
vn 0.9810 0.0426 0.1893
vn -0.0000 0.2515 -0.9679
vn 0.9743 0.0333 -0.2227
vn 0.9851 0.1145 -0.1284
vn -0.0000 0.6229 -0.7823
vn -0.0000 -0.9994 -0.0342
vn 0.2275 -0.9682 -0.1041
vn 0.2626 -0.9622 -0.0720
vn 0.1214 -0.9875 -0.1002
vn 0.9745 0.0021 -0.2243
vn 0.9569 -0.0442 -0.2871
vn -0.9719 -0.0576 0.2282
vn -0.9810 0.0426 0.1893
vn 0.0800 -0.9494 -0.3038
vn 0.0777 -0.9852 -0.1525
vn -0.0796 -0.9840 -0.1593
vn -0.0000 -0.9194 -0.3932
vn 0.9853 0.1450 0.0907
vn 0.9638 -0.2018 -0.1742
vn -0.0000 -0.1715 -0.9852
vn -0.0000 -0.7772 -0.6293
vn 0.9571 -0.1836 0.2242
vn -0.0000 -0.6483 0.7614
vn -0.0000 -0.9823 0.1873
vn 0.9647 -0.2554 0.0640
vn -0.9571 -0.1836 0.2242
vn -0.9851 0.1145 -0.1284
vn -0.9829 0.1843 -0.0009
vn -0.9647 -0.2554 0.0640
vn -0.9749 -0.1121 0.1921
vn -0.9743 0.0333 -0.2227
vn -0.9745 0.0021 -0.2243
vn -0.0000 0.0852 -0.9964
vn -0.9569 -0.0442 -0.2871
vn -0.0000 -0.4059 0.9139
vn 0.9749 -0.1121 0.1921
vn 0.9829 0.1843 -0.0009
vn -0.0000 0.9887 -0.1502
vn -0.9853 0.1450 0.0907
vn -0.0000 0.8022 0.5970
vn -0.9638 -0.2018 -0.1742
vn -0.0000 -0.1582 -0.9874
vn -0.0000 -0.0471 -0.9989
vn 0.9962 -0.0691 -0.0523
vn 0.9984 -0.0341 -0.0451
vn 0.9999 -0.0045 -0.0089
vn 0.9993 -0.0163 -0.0323
vn 0.9953 -0.0805 -0.0547
vn -0.0000 -0.1419 0.9899
vn -0.0000 -0.1467 0.9892
vn -0.0000 -0.9979 -0.0646
vn -0.9953 -0.0805 -0.0547
vn -0.9962 -0.0691 -0.0523
vn -0.9984 -0.0341 -0.0451
vn -0.0000 -0.3805 0.9248
vn -0.0000 -0.5990 0.8007
vn -0.0000 0.2478 -0.9688
vn -0.9993 -0.0163 -0.0323
vn -0.9999 -0.0045 -0.0089
vn -0.0000 0.3567 -0.9342
vn -0.0000 0.3087 -0.9512
vn 1.0000 -0.0000 -0.0000
vn -1.0000 -0.0000 -0.0000
vn 0.2626 -0.7390 -0.6204
vn 0.9481 -0.3055 0.0883
vn -0.9147 -0.4042 -0.0000
vn -1.0000 -0.0053 -0.0000
vn 0.4861 0.3037 0.8194
vn -0.0000 0.3561 0.9345
vn 0.9739 -0.1767 0.1422
vn 0.9366 -0.3494 0.0248
vn 0.9995 0.0036 0.0307
vn 0.9918 0.0428 0.1200
vn -0.9366 -0.3494 0.0248
vn -0.9739 -0.1767 0.1422
vn -0.9918 0.0428 0.1200
vn -0.9995 0.0036 0.0307
vn -0.4861 0.3037 0.8194
vn -0.9751 -0.0991 0.1986
vn -0.9725 0.0973 0.2115
vn 0.9751 -0.0991 0.1986
vn 0.9725 0.0973 0.2115
vn -0.7959 0.6054 -0.0000
vn -0.8063 0.5901 0.0409
vn 0.7959 0.6054 -0.0000
vn 0.8063 0.5901 0.0409
vn -0.7306 0.6532 0.1989
vn -0.8111 0.5656 0.1490
vn -0.0000 0.5822 0.8131
vn -0.3800 0.3988 0.8346
vn 0.8111 0.5656 0.1490
vn 0.7306 0.6532 0.1989
vn 0.3800 0.3988 0.8346
vn -0.0000 0.7711 0.6367
vn -0.0000 0.9928 0.1196
vn -0.0000 0.9868 0.1617
vn -0.0000 0.9993 0.0387
vn -0.0000 1.0000 -0.0000
vt 0.994298 0.469140
vt 0.992879 0.532313
vt 0.962453 0.531544
vt 0.963973 0.468537
vt 0.961527 0.564627
vt 0.992018 0.565445
vt 0.988747 0.108611
vt 0.991226 0.151473
vt 0.960376 0.144630
vt 0.958400 0.110443
vt 0.992160 0.184490
vt 0.993133 0.217520
vt 0.962746 0.218360
vt 0.961747 0.185362
vt 0.729591 0.917798
vt 0.763977 0.902206
vt 0.757100 0.950746
vt 0.729591 0.972711
vt 0.729591 0.807973
vt 0.763977 0.823566
vt 0.751598 0.862886
vt 0.729591 0.862886
vt 0.988727 0.641593
vt 0.985667 0.713390
vt 0.954126 0.711168
vt 0.958272 0.639806
vt 0.964340 0.281366
vt 0.994763 0.280763
vt 0.995142 0.301434
vt 0.964698 0.301863
vt 0.695205 0.807973
vt 0.707584 0.862886
vt 0.695205 0.917798
vt 0.702083 0.950746
vt 0.960197 0.605496
vt 0.991143 0.598577
vt 0.702083 0.775026
vt 0.729591 0.753061
vt 0.757100 0.775026
vt 0.921120 0.282403
vt 0.941191 0.281873
vt 0.941577 0.302209
vt 0.921561 0.302513
vt 0.985576 0.037068
vt 0.954149 0.039335
vt 0.186471 0.575423
vt 0.117061 0.576787
vt 0.117242 0.546358
vt 0.183982 0.546801
vt 0.938493 0.186114
vt 0.936702 0.137872
vt 0.939545 0.219013
vt 0.216496 0.549372
vt 0.220301 0.573464
vt 0.939232 0.530913
vt 0.940849 0.468022
vt 0.048162 0.574372
vt 0.050945 0.545914
vt 0.938214 0.563895
vt 0.936436 0.612307
vt 0.476544 0.611012
vt 0.458042 0.687075
vt 0.424210 0.677849
vt 0.448576 0.603742
vt 0.497400 0.446325
vt 0.495067 0.494166
vt 0.477146 0.495193
vt 0.469877 0.437292
vt 0.482917 0.580003
vt 0.456153 0.569758
vt 0.492605 0.514726
vt 0.479878 0.509807
vt 0.471395 0.134950
vt 0.475881 0.168179
vt 0.449828 0.176980
vt 0.441591 0.141554
vt 0.457055 0.052460
vt 0.420635 0.058746
vt 0.496923 0.230931
vt 0.499329 0.252378
vt 0.478939 0.250598
vt 0.484515 0.237509
vt 0.498495 0.299571
vt 0.470972 0.307576
vt 0.918263 0.186833
vt 0.916411 0.138047
vt 0.919366 0.219590
vt 0.917929 0.563179
vt 0.919047 0.530338
vt 0.050490 0.527086
vt 0.117331 0.527074
vt 0.018580 0.548266
vt 0.017942 0.528321
vt 0.916057 0.612146
vt 0.184551 0.527778
vt 0.217250 0.529276
vt 0.920769 0.467497
vt 0.412836 0.674281
vt 0.426680 0.611424
vt 0.446145 0.499813
vt 0.441323 0.419887
vt 0.446675 0.243057
vt 0.417867 0.131486
vt 0.407921 0.061706
vt 0.441639 0.324925
vt 0.058583 0.977986
vt 0.023004 0.982893
vt 0.058735 0.962917
vt 0.604597 0.175143
vt 0.599084 0.199999
vt 0.604005 0.230224
vt 0.610189 0.288608
vt 0.601686 0.516711
vt 0.596776 0.547296
vt 0.609440 0.057683
vt 0.606653 0.139027
vt 0.613198 0.573468
vt 0.615193 0.610453
vt 0.608389 0.458776
vt 0.614451 0.694092
vt 0.008675 0.937701
vt 0.059048 0.938794
vt 0.223589 0.904566
vt 0.233619 0.905558
vt 0.243641 0.904209
vt 0.242233 0.927757
vt 0.292369 0.932374
vt 0.285019 0.974421
vt 0.244989 0.958435
vt 0.245033 0.950759
vt 0.358729 0.934734
vt 0.375306 0.977158
vt 0.322750 0.994887
vt 0.328447 0.937214
vt 0.108818 0.939366
vt 0.139771 0.940845
vt 0.147985 0.998952
vt 0.093920 0.983584
vt 0.060242 0.870561
vt 0.110519 0.870996
vt 0.010089 0.869283
vt 0.292587 0.864944
vt 0.243563 0.894344
vt 0.175899 0.934630
vt 0.173247 0.867189
vt 0.223294 0.894708
vt 0.062721 0.760439
vt 0.111846 0.761777
vt 0.012990 0.757517
vt 0.232912 0.866293
vt 0.230491 0.754582
vt 0.289889 0.752336
vt 0.138650 0.869636
vt 0.185053 0.976593
vt 0.171577 0.755526
vt 0.069774 0.654066
vt 0.120904 0.655982
vt 0.138893 0.759464
vt 0.019424 0.649346
vt 0.228304 0.683884
vt 0.278184 0.676752
vt 0.140181 0.634572
vt 0.071501 0.628364
vt 0.073597 0.595206
vt 0.003048 0.625833
vt 0.018466 0.596521
vt 0.128432 0.603361
vt 0.148289 0.666387
vt 0.178059 0.680025
vt 0.327375 0.866205
vt 0.355152 0.866589
vt 0.323435 0.754489
vt 0.351468 0.755480
vt 0.307019 0.660896
vt 0.332883 0.648477
vt 0.825402 0.698165
vt 0.836453 0.702246
vt 0.830379 0.723090
vt 0.819620 0.720480
vt 0.832339 0.791350
vt 0.823506 0.795119
vt 0.817558 0.774597
vt 0.826235 0.772902
vt 0.235074 0.976993
vt 0.224368 0.958921
vt 0.234687 0.959651
vt 0.223972 0.951273
vt 0.816904 0.696606
vt 0.813235 0.718630
vt 0.770462 0.702246
vt 0.781513 0.698165
vt 0.787294 0.720480
vt 0.776536 0.723090
vt 0.226557 0.928034
vt 0.226712 0.932250
vt 0.242234 0.931967
vt 0.233401 0.893181
vt 0.817222 0.736360
vt 0.812897 0.734872
vt 0.803457 0.718207
vt 0.803457 0.734477
vt 0.811104 0.776037
vt 0.803457 0.776157
vt 0.803457 0.759427
vt 0.812009 0.758877
vt 0.795810 0.776037
vt 0.789357 0.774597
vt 0.790633 0.757912
vt 0.794906 0.758877
vt 0.792533 0.797145
vt 0.783409 0.795119
vt 0.790011 0.696606
vt 0.803457 0.696386
vt 0.793680 0.718630
vt 0.803457 0.797056
vt 0.814381 0.797145
vt 0.774575 0.791350
vt 0.780680 0.772902
vt 0.816282 0.757912
vt 0.826834 0.758407
vt 0.780080 0.758407
vt 0.789693 0.736360
vt 0.777873 0.736810
vt 0.794018 0.734872
vt 0.829042 0.736810
vt 0.863799 0.719497
vt 0.856269 0.731038
vt 0.851320 0.725490
vt 0.856164 0.716233
vt 0.856176 0.700267
vt 0.854342 0.702468
vt 0.845780 0.704031
vt 0.847183 0.702581
vt 0.863593 0.696387
vt 0.863809 0.700536
vt 0.863809 0.715828
vt 0.854300 0.713902
vt 0.234444 0.949841
vt 0.845044 0.711440
vt 0.839365 0.711423
vt 0.840002 0.703110
vt 0.843721 0.721438
vt 0.846439 0.713185
vt 0.838876 0.719860
vt 0.836765 0.719154
vt 0.841440 0.712140
vt 0.842267 0.702727
vt 0.014621 0.572149
vt 0.118504 0.214774
vt 0.186925 0.214993
vt 0.219499 0.215209
vt 0.017630 0.214788
vt 0.050165 0.214756
vt 0.921234 0.447325
vt 0.941268 0.447680
vt 0.964361 0.448079
vt 0.994677 0.448589
vt 0.433474 0.372471
vt 0.456835 0.331081
vt 0.445494 0.372510
vt 0.502687 0.315431
vt 0.481132 0.318670
vt 0.611213 0.307749
vt 0.609798 0.440441
vt 0.480280 0.426521
vt 0.501922 0.430119
vt 0.456369 0.413853
vt 0.611210 0.415036
vt 0.921626 0.420364
vt 0.501384 0.409431
vt 0.941663 0.420554
vt 0.964754 0.420800
vt 0.921843 0.329434
vt 0.612019 0.332366
vt 0.502070 0.336188
vt 0.995092 0.421146
vt 0.463162 0.397738
vt 0.479622 0.407186
vt 0.456363 0.372534
vt 0.480181 0.338077
vt 0.463514 0.347306
vt 0.964982 0.329182
vt 0.941874 0.329330
vt 0.995366 0.328990
vt 0.782117 0.810174
vt 0.780805 0.862886
vt 0.782117 0.915598
vt 0.815516 0.862886
vt 0.807753 0.827593
vt 0.807753 0.898178
vt 0.463855 0.372558
vt 0.478902 0.372647
vt 0.501332 0.372804
vt 0.611788 0.373693
vt 0.921999 0.374893
vt 0.942102 0.374943
vt 0.965132 0.375000
vt 0.995407 0.375083
s 1
usemtl Material
f 21/1/1 5/2/2 7/3/2 19/4/1
f 14/5/3 7/3/2 5/2/2 16/6/4
f 25/7/5 2/8/6 4/9/7 23/10/8
f 13/11/9 1/12/10 3/13/10 15/14/11
f 27/15/12 24/16/12 1/17/12 13/18/12
f 22/19/12 21/20/12 12/21/12 17/22/12
f 18/23/13 9/24/14 11/25/14 20/26/15
f 26/27/16 24/28/16 177/29/17 178/30/17
f 18/31/12 22/19/12 17/22/12 9/32/12
f 25/33/12 27/15/12 13/18/12 2/34/12
f 2/8/6 13/11/9 15/14/11 4/9/7
f 8/35/18 14/5/3 16/6/4 6/36/19
f 6/37/12 16/38/12 22/19/12 18/31/12
f 6/36/19 18/23/13 20/26/15 8/35/18
f 16/38/12 5/39/12 21/20/12 22/19/12
f 61/40/16 38/41/16 180/42/17 185/43/17
f 9/32/12 17/22/12 27/15/12 25/33/12
f 1/12/10 24/28/20 26/27/20 3/13/10
f 17/22/12 12/21/12 24/16/12 27/15/12
f 9/44/21 25/7/5 23/10/8 11/45/21
f 20/46/22 11/47/23 32/48/23 36/49/24
f 4/9/7 15/14/11 34/50/25 29/51/26
f 15/14/11 3/13/10 28/52/10 34/50/25
f 36/49/27 31/53/28 8/54/29
f 3/13/10 26/27/20 38/41/20 28/52/10
f 19/4/1 7/3/2 30/55/2 35/56/1
f 20/46/22 36/49/24 8/54/30
f 11/47/23 23/57/31 37/58/32 32/48/23
f 7/3/2 14/5/3 33/59/33 30/55/2
f 14/5/3 8/35/18 31/60/34 33/59/33
f 74/61/35 70/62/36 44/63/36 48/64/35
f 75/65/1 71/66/2 41/67/37 47/68/38
f 76/69/39 74/61/39 48/64/39 42/70/39
f 77/71/40 76/69/41 42/70/41 45/72/40
f 78/73/42 72/74/42 40/75/42 49/76/42
f 70/77/36 78/73/43 49/76/43 44/78/36
f 71/66/2 77/71/40 45/72/40 41/67/37
f 79/79/44 73/80/10 39/81/45 46/82/44
f 73/80/10 80/83/20 50/84/46 39/81/45
f 72/74/47 79/79/44 46/82/44 40/75/47
f 29/51/26 34/50/25 60/85/48 57/86/49
f 28/52/10 38/41/20 61/40/20 59/87/10
f 34/50/25 28/52/10 59/87/10 60/85/48
f 30/55/2 33/59/33 56/88/50 53/89/2
f 32/48/36 37/58/43 58/90/43 51/91/36
f 37/58/51 29/92/52 57/93/53 58/90/53
f 33/59/33 31/60/34 55/94/54 56/88/50
f 31/53/28 36/49/27 52/95/55 55/96/55
f 35/56/1 30/55/2 53/89/2 54/97/1
f 36/49/35 32/48/36 51/91/36 52/95/35
f 48/64/56 44/63/57 63/98/57 67/99/56
f 64/100/58 66/101/59 41/67/60
f 42/70/61 67/99/62 64/100/58
f 48/64/63 67/99/62 42/70/61
f 65/102/64 68/103/65 40/75/66
f 44/78/57 49/76/67 68/103/67 63/104/57
f 45/72/68 64/100/58 41/67/60
f 46/82/69 39/81/70 65/102/64
f 65/102/64 39/81/70 69/105/71
f 49/76/72 40/75/66 68/103/65
f 43/106/73 66/107/74 62/108/75
f 174/109/47 170/110/44 79/79/44 72/74/47
f 175/111/10 171/112/20 80/83/20 73/80/10
f 170/110/44 175/111/10 73/80/10 79/79/44
f 173/113/2 168/114/40 77/71/40 71/66/2
f 172/115/36 169/116/43 78/73/43 70/77/36
f 169/116/42 174/109/42 72/74/42 78/73/42
f 168/114/40 167/117/41 76/69/41 77/71/40
f 167/117/39 165/118/39 74/61/39 76/69/39
f 166/119/1 173/113/2 71/66/2 75/65/1
f 165/118/35 172/120/36 70/62/36 74/61/35
f 62/108/75 66/107/74 84/121/76 81/122/77
f 121/123/78 120/124/79 119/125/80 152/126/81
f 47/68/38 41/67/37 66/101/82
f 42/70/61 64/100/58 45/72/68
f 46/82/69 65/102/64 40/75/66
f 85/127/83 67/128/84 113/129/85 116/130/86
f 84/131/87 66/132/88 64/133/89 82/134/90
f 87/135/91 83/136/92 65/137/93 69/138/94
f 69/138/95 62/108/75 81/122/77 87/135/96
f 39/81/45 50/84/46 69/105/97
f 87/135/96 81/122/77 88/139/98 95/140/99
f 81/122/77 84/121/76 92/141/100 88/139/98
f 93/142/101 85/127/83 119/125/80 122/143/102
f 86/144/103 94/145/104 124/146/105 121/123/78
f 95/140/99 88/139/98 96/147/106 103/148/107
f 88/139/98 92/141/100 100/149/108 96/147/106
f 93/142/101 89/150/109 97/151/110 101/152/111
f 83/136/92 91/153/112 94/145/113 86/144/114
f 65/137/93 83/136/92 86/144/114 68/154/115
f 89/150/109 94/145/104 102/155/116 97/151/110
f 83/136/92 87/135/91 95/140/117 91/153/112
f 103/148/107 96/147/106 104/156/118 111/157/119
f 103/148/120 99/158/121 91/153/112 95/140/117
f 91/153/112 99/158/121 102/155/122 94/145/113
f 96/147/106 100/149/108 108/159/123 104/156/118
f 101/152/111 97/151/110 105/160/124 109/161/125
f 107/162/126 111/157/126 104/156/126 112/163/126
f 105/164/127 112/163/126 106/165/126 109/166/127
f 112/163/126 105/164/127 110/167/127 107/162/126
f 99/158/121 107/168/128 110/169/129 102/155/122
f 97/151/110 102/155/116 110/169/130 105/160/124
f 111/157/131 107/168/128 99/158/121 103/148/120
f 82/134/90 90/170/132 92/171/133 84/131/87
f 92/171/133 90/170/132 98/172/134 100/173/135
f 85/127/136 93/142/137 90/170/132 82/134/90
f 64/133/89 67/128/138 85/127/136 82/134/90
f 100/173/135 98/172/134 106/174/139 108/175/140
f 112/163/126 104/156/126 108/159/126 106/165/126
f 106/174/139 98/172/134 101/152/141 109/161/142
f 93/142/137 101/152/141 98/172/134 90/170/132
f 62/108/75 69/138/95 43/106/73
f 118/176/143 117/177/144 129/178/145 130/179/146
f 120/180/147 121/181/148 133/182/149 132/183/150
f 119/125/80 85/127/83 152/126/81
f 63/184/151 68/154/152 115/185/153 114/186/151
f 68/154/152 86/144/103 118/187/154 115/185/153
f 67/128/84 63/184/151 114/186/151 113/129/85
f 115/188/155 118/176/143 130/179/146 127/189/156
f 117/190/144 116/191/157 128/192/158 129/193/145
f 150/194/159 151/195/160 86/144/103
f 151/195/160 149/196/161 116/130/86
f 94/145/104 89/150/109 123/197/162 124/146/105
f 89/150/109 93/142/101 122/143/102 123/197/162
f 127/189/156 130/179/146 148/198/163 145/199/164
f 126/200/165 127/189/156 145/199/164 144/201/166
f 136/202/167 135/203/168 141/204/169 142/205/170
f 134/206/171 131/207/172 137/208/173 140/209/174
f 122/210/175 119/211/176 131/207/172 134/206/171
f 113/212/177 114/213/178 126/200/165 125/214/179
f 123/215/180 122/210/175 134/206/171 135/203/168
f 121/181/148 124/216/181 136/202/167 133/182/149
f 114/213/178 115/188/155 127/189/156 126/200/165
f 124/216/181 123/215/180 135/203/168 136/202/167
f 116/191/157 113/212/177 125/214/179 128/192/158
f 119/211/176 120/217/147 132/218/150 131/207/172
f 132/183/150 133/182/149 139/219/182 138/220/183
f 133/182/149 136/202/167 142/205/170 139/219/182
f 135/203/168 134/206/171 140/209/174 141/204/169
f 131/207/172 132/218/150 138/221/183 137/208/173
f 129/193/145 128/192/158 146/222/184 147/223/185
f 125/214/179 126/200/165 144/201/166 143/224/186
f 128/192/158 125/214/179 143/224/186 146/222/184
f 130/179/146 129/178/145 147/225/185 148/198/163
f 142/205/170 145/199/164 148/198/163 139/219/182
f 143/224/186 140/209/174 137/208/173 146/222/184
f 138/221/183 147/223/185 146/222/184 137/208/173
f 139/219/182 148/198/163 147/225/185 138/220/183
f 141/204/169 140/209/174 143/224/186 144/201/166
f 142/205/170 141/204/169 144/201/166 145/199/164
f 149/226/187 151/227/187 155/228/188 153/229/188
f 155/230/189 154/231/190 158/232/191 159/233/192
f 152/126/81 85/127/83 149/196/161
f 151/234/193 150/235/193 154/231/190 155/230/189
f 150/235/194 152/236/194 156/237/195 154/231/195
f 116/130/86 117/238/196 118/187/154 151/195/160
f 152/236/197 149/226/197 153/229/198 156/237/199
f 158/232/200 160/239/200 164/240/201 162/241/201
f 153/229/188 155/228/188 159/242/202 157/243/202
f 156/237/199 153/229/198 157/243/203 160/239/204
f 154/231/195 156/237/195 160/239/200 158/232/200
f 163/244/205 162/245/206 164/240/206 161/246/205
f 157/243/202 159/242/202 163/244/205 161/246/205
f 159/233/192 158/232/191 162/241/207 163/247/207
f 160/239/204 157/243/203 161/246/208 164/240/208
f 118/187/154 86/144/103 151/195/160
f 116/130/86 149/196/161 85/127/83
f 152/126/81 150/194/159 121/123/78
f 86/144/103 121/123/78 150/194/159
f 23/57/31 4/248/209 37/58/32
f 37/58/51 4/248/210 29/92/52
f 52/95/35 51/91/36 172/249/36 165/250/35
f 54/97/1 53/89/2 173/113/2 166/119/1
f 55/96/55 52/95/55 165/250/39 167/251/39
f 56/88/50 55/94/54 167/117/41 168/114/40
f 58/90/53 57/93/53 174/252/42 169/253/42
f 51/91/36 58/90/43 169/253/43 172/249/36
f 53/89/2 56/88/50 168/114/40 173/113/2
f 60/85/48 59/87/10 175/111/10 170/110/44
f 59/87/10 61/40/20 171/112/20 175/111/10
f 57/86/49 60/85/48 170/110/44 174/109/47
f 35/56/211 54/97/211 184/254/212 179/255/212
f 21/1/211 19/4/211 10/256/212 176/257/212
f 43/258/73 69/105/95 187/259/213 181/260/214
f 50/84/215 80/83/216 189/261/217 183/262/218
f 80/83/216 171/112/16 191/263/17 189/261/217
f 171/112/16 61/40/16 185/43/17 191/263/17
f 54/97/211 166/119/211 190/264/212 184/254/212
f 19/4/211 35/56/211 179/255/212 10/256/212
f 75/65/219 47/68/220 182/265/221 188/266/222
f 66/101/74 43/258/73 181/260/214 186/267/223
f 47/68/220 66/101/224 186/267/225 182/265/221
f 38/41/16 26/27/16 178/30/17 180/42/17
f 166/119/211 75/65/219 188/266/222 190/264/212
f 69/105/226 50/84/215 183/262/218 187/259/227
f 184/254/212 190/264/212 207/268/228 201/269/228
f 190/264/212 188/266/222 205/270/229 207/268/228
f 10/256/212 179/255/212 196/271/228 192/272/228
f 191/263/17 185/43/17 202/273/230 208/274/230
f 189/261/217 191/263/17 208/274/230 206/275/231
f 176/257/212 10/256/212 192/272/228 193/276/228
f 182/265/221 186/267/225 203/277/232 199/278/233
f 186/267/223 181/260/214 198/279/234 203/277/235
f 187/259/227 183/262/218 200/280/236 204/281/237
f 180/42/17 178/30/17 195/282/230 197/283/230
f 188/266/222 182/265/221 199/278/233 205/270/229
f 179/255/212 184/254/212 201/269/228 196/271/228
f 178/30/17 177/29/17 194/284/230 195/282/230
f 183/262/218 189/261/217 206/275/231 200/280/236
f 185/43/17 180/42/17 197/283/230 202/273/230
f 181/260/214 187/259/213 204/281/238 198/279/234
f 12/21/12 21/20/12 176/285/12 209/286/12
f 12/21/12 209/286/12 177/287/12 24/16/12
f 210/288/12 209/286/12 176/285/12 193/289/12
f 194/290/12 177/287/12 209/286/12 210/288/12
f 198/279/234 204/281/238 217/291/239
f 198/279/234 217/291/239 203/277/235
f 204/281/237 200/280/236 216/292/240 217/291/241
f 203/277/232 217/291/241 216/292/240 199/278/233
f 199/278/233 216/292/240 215/293/242 205/270/229
f 200/280/236 206/275/231 215/293/242 216/292/240
f 205/270/229 215/293/242 214/294/243 207/268/228
f 206/275/231 208/274/230 214/294/243 215/293/242
f 207/268/228 214/294/243 213/295/243 201/269/228
f 201/269/228 213/295/243 212/296/243 196/271/228
f 196/271/228 212/296/243 211/297/243 192/272/228
f 192/272/228 211/297/243 210/298/243 193/276/228
f 195/282/230 194/284/230 210/298/243 211/297/243
f 197/283/230 195/282/230 211/297/243 212/296/243
f 202/273/230 197/283/230 212/296/243 213/295/243
f 208/274/230 202/273/230 213/295/243 214/294/243
