# Blender 4.1.1
# www.blender.org
mtllib light.mtl
o Sphere
v 0.000000 0.322805 -0.333285
v 0.000000 0.192038 -0.360745
v 0.000000 0.018747 -0.333285
v 0.000000 -0.397069 -0.184662
v 0.052830 0.507737 -0.127543
v 0.097617 0.433664 -0.235668
v 0.127542 0.322805 -0.307915
v 0.138051 0.192038 -0.333285
v 0.127542 0.018747 -0.307915
v 0.081327 -0.364935 -0.196341
v 0.070667 -0.397069 -0.170606
v 0.097617 0.507737 -0.097617
v 0.180372 0.433664 -0.180372
v 0.235668 0.322805 -0.235668
v 0.255085 0.192038 -0.255085
v 0.235668 0.018747 -0.235668
v 0.150273 -0.364935 -0.150273
v 0.130576 -0.397069 -0.130576
v 0.127542 0.507737 -0.052830
v 0.235668 0.433664 -0.097617
v 0.307915 0.322805 -0.127543
v 0.333285 0.192038 -0.138051
v 0.307915 0.018747 -0.127543
v 0.196341 -0.364935 -0.081327
v 0.170605 -0.397069 -0.070667
v 0.138051 0.507737 -0.000000
v 0.255085 0.433664 -0.000000
v 0.333284 0.322805 -0.000000
v 0.360745 0.192038 -0.000000
v 0.333284 0.018747 -0.000000
v 0.212518 -0.364935 -0.000000
v 0.184662 -0.397069 -0.000000
v 0.127542 0.507737 0.052830
v 0.235668 0.433664 0.097617
v 0.307915 0.322805 0.127542
v 0.333284 0.192038 0.138051
v 0.307915 0.018747 0.127542
v 0.196341 -0.364935 0.081327
v 0.170605 -0.397069 0.070667
v 0.097617 0.507737 0.097617
v 0.180372 0.433664 0.180372
v 0.235668 0.322805 0.235668
v 0.255085 0.192038 0.255085
v 0.235668 0.018747 0.235668
v 0.150273 -0.364935 0.150273
v 0.130576 -0.397069 0.130575
v 0.052830 0.507737 0.127542
v 0.097617 0.433664 0.235668
v 0.127542 0.322805 0.307915
v 0.138051 0.192038 0.333284
v 0.127542 0.018747 0.307915
v 0.081327 -0.364935 0.196341
v 0.070667 -0.397069 0.170605
v -0.000000 0.507737 0.138051
v -0.000000 0.433664 0.255085
v -0.000000 0.322805 0.333284
v -0.000000 0.192038 0.360745
v -0.000000 0.018747 0.333284
v -0.000000 -0.364935 0.212518
v -0.000000 -0.397069 0.184662
v 0.000000 0.533749 -0.000000
v -0.052830 0.507737 0.127542
v -0.097617 0.433664 0.235667
v -0.127542 0.322805 0.307915
v -0.138051 0.192038 0.333284
v -0.127542 0.018747 0.307915
v -0.081327 -0.364935 0.196341
v -0.070667 -0.397069 0.170605
v -0.097617 0.507737 0.097617
v -0.180372 0.433664 0.180372
v -0.235668 0.322805 0.235667
v -0.255085 0.192038 0.255085
v -0.235668 0.018747 0.235667
v -0.150273 -0.364935 0.150273
v -0.130576 -0.397069 0.130575
v -0.127542 0.507737 0.052830
v -0.235668 0.433664 0.097616
v -0.307915 0.322805 0.127542
v -0.333285 0.192038 0.138051
v -0.307915 0.018747 0.127542
v -0.196341 -0.364935 0.081327
v -0.170605 -0.397069 0.070667
v -0.138051 0.507737 -0.000000
v -0.255085 0.433664 -0.000000
v -0.333284 0.322805 -0.000000
v -0.360745 0.192038 -0.000000
v -0.333284 0.018747 -0.000000
v -0.212518 -0.364935 -0.000000
v -0.184662 -0.397069 -0.000000
v -0.127542 0.507737 -0.052830
v -0.235668 0.433664 -0.097617
v -0.307915 0.322805 -0.127543
v -0.333284 0.192038 -0.138051
v -0.307915 0.018747 -0.127543
v -0.196341 -0.364935 -0.081327
v -0.170605 -0.397069 -0.070667
v -0.097617 0.507737 -0.097617
v -0.180372 0.433664 -0.180373
v -0.235668 0.322805 -0.235668
v -0.255085 0.192038 -0.255085
v -0.235668 0.018747 -0.235668
v -0.150273 -0.364935 -0.150273
v -0.130576 -0.397069 -0.130576
v -0.052830 0.507737 -0.127543
v -0.097617 0.433664 -0.235668
v -0.127542 0.322805 -0.307915
v -0.138051 0.192038 -0.333285
v -0.127542 0.018747 -0.307915
v -0.081327 -0.364935 -0.196341
v -0.070667 -0.397069 -0.170606
v 0.000000 0.507737 -0.138051
v 0.000000 0.433664 -0.255085
v 0.000000 -0.364935 -0.212518
v 0.099390 -0.112451 -0.239948
v 0.183648 -0.112451 -0.183648
v 0.239948 -0.112451 -0.099390
v 0.259717 -0.112451 -0.000000
v 0.239948 -0.112451 0.099389
v 0.183648 -0.112451 0.183648
v 0.099390 -0.112451 0.239947
v -0.000000 -0.112451 0.259717
v -0.099390 -0.112451 0.239947
v -0.183648 -0.112451 0.183648
v -0.239948 -0.112451 0.099389
v -0.259717 -0.112451 -0.000000
v -0.239948 -0.112451 -0.099390
v -0.183648 -0.112451 -0.183648
v -0.099389 -0.112451 -0.239948
v 0.000000 -0.112451 -0.259718
v 0.091663 -0.168437 -0.221294
v 0.169371 -0.168437 -0.169371
v 0.221294 -0.168437 -0.091663
v 0.239527 -0.168437 -0.000000
v 0.221294 -0.168437 0.091663
v 0.169371 -0.168437 0.169371
v 0.091663 -0.168437 0.221294
v -0.000000 -0.168437 0.239526
v -0.091663 -0.168437 0.221294
v -0.169371 -0.168437 0.169371
v -0.221294 -0.168437 0.091663
v -0.239527 -0.168437 -0.000000
v -0.221294 -0.168437 -0.091663
v -0.169371 -0.168437 -0.169371
v -0.091663 -0.168437 -0.221294
v 0.000000 -0.168437 -0.239527
v 0.067134 -0.578421 -0.162075
v 0.000000 -0.578421 -0.175429
v 0.124047 -0.578421 -0.124047
v 0.162075 -0.578421 -0.067134
v 0.175429 -0.578421 -0.000000
v 0.162075 -0.578421 0.067134
v 0.124047 -0.578421 0.124047
v 0.067134 -0.578421 0.162075
v -0.000000 -0.578421 0.175429
v -0.124047 -0.405233 0.124047
v -0.067134 -0.578421 0.162075
v -0.124047 -0.578421 0.124047
v -0.162075 -0.578421 0.067133
v -0.175429 -0.578421 -0.000000
v -0.162075 -0.578421 -0.067134
v -0.124047 -0.578421 -0.124047
v -0.067134 -0.578421 -0.162075
v 0.053318 -0.601269 -0.128722
v 0.000000 -0.601269 -0.139328
v 0.098519 -0.601269 -0.098520
v 0.128722 -0.601269 -0.053318
v 0.139327 -0.601269 -0.000000
v 0.128722 -0.601269 0.053318
v 0.098519 -0.601269 0.098519
v 0.053318 -0.601269 0.128722
v -0.000000 -0.601270 0.139327
v 0.000000 -0.616683 -0.000000
v -0.053318 -0.601269 0.128722
v -0.098519 -0.601269 0.098519
v -0.128722 -0.601269 0.053318
v -0.139327 -0.601269 -0.000000
v -0.128722 -0.601269 -0.053319
v -0.098519 -0.601269 -0.098520
v -0.053318 -0.601269 -0.128722
v 0.067134 -0.405233 -0.162075
v 0.124047 -0.405233 -0.124047
v 0.124047 -0.405233 0.124047
v -0.124047 -0.405233 -0.124047
v -0.162075 -0.405233 -0.067134
v -0.067134 -0.405233 0.162075
v 0.162075 -0.405233 0.067134
v 0.162075 -0.405233 -0.067134
v 0.175429 -0.405233 -0.000000
v 0.067134 -0.405233 0.162075
v -0.000000 -0.405233 0.175429
v -0.067134 -0.405233 -0.162075
v 0.000000 -0.405233 -0.175429
v -0.162075 -0.405233 0.067133
v -0.175429 -0.405233 -0.000000
vn 0.1709 -0.4819 -0.8594
vn 0.1911 0.2017 -0.9606
vn 0.1058 0.8402 -0.5318
vn 0.1486 -0.6477 -0.7472
vn 0.1928 -0.1536 -0.9692
vn 0.1604 0.5690 -0.8066
vn 0.0368 0.9820 -0.1850
vn 0.8315 -0.0000 -0.5556
vn 0.4233 -0.6477 -0.6335
vn 0.5490 -0.1536 -0.8216
vn 0.4569 0.5690 -0.6838
vn 0.1048 0.9820 -0.1569
vn -0.5556 -0.0000 -0.8315
vn 0.4868 -0.4819 -0.7286
vn 0.5441 0.2017 -0.8144
vn 0.3012 0.8402 -0.4508
vn 0.6838 0.5690 -0.4569
vn 0.1569 0.9820 -0.1048
vn -0.8315 -0.0000 0.5556
vn 0.7286 -0.4819 -0.4868
vn 0.8144 0.2017 -0.5441
vn 0.4508 0.8402 -0.3012
vn 0.6335 -0.6477 -0.4233
vn 0.8216 -0.1536 -0.5490
vn 0.1951 -0.0000 -0.9808
vn 0.8594 -0.4819 -0.1709
vn 0.9606 0.2017 -0.1911
vn 0.5318 0.8402 -0.1058
vn 0.7472 -0.6477 -0.1486
vn 0.9692 -0.1536 -0.1928
vn 0.8066 0.5690 -0.1604
vn 0.1850 0.9820 -0.0368
vn 0.5318 0.8402 0.1058
vn 0.7472 -0.6477 0.1486
vn 0.9692 -0.1536 0.1928
vn 0.8066 0.5690 0.1604
vn 0.1850 0.9820 0.0368
vn 0.8315 -0.0000 0.5556
vn 0.8594 -0.4819 0.1709
vn 0.9606 0.2017 0.1911
vn 0.6335 -0.6477 0.4233
vn 0.8216 -0.1536 0.5490
vn 0.6838 0.5690 0.4569
vn 0.1569 0.9820 0.1048
vn -0.5556 -0.0000 0.8315
vn 0.7286 -0.4819 0.4868
vn 0.8144 0.2017 0.5441
vn 0.4508 0.8402 0.3012
vn 0.1048 0.9820 0.1569
vn 0.5556 -0.0000 -0.8315
vn 0.4868 -0.4819 0.7286
vn 0.5441 0.2017 0.8144
vn 0.3012 0.8402 0.4508
vn 0.4233 -0.6477 0.6335
vn 0.5490 -0.1536 0.8216
vn 0.4569 0.5690 0.6838
vn 0.1709 -0.4819 0.8594
vn 0.1911 0.2017 0.9606
vn 0.1058 0.8402 0.5318
vn 0.1486 -0.6477 0.7472
vn 0.1928 -0.1536 0.9692
vn 0.1604 0.5690 0.8066
vn 0.0368 0.9820 0.1850
vn 0.5556 -0.0000 0.8315
vn -0.1486 -0.6477 0.7472
vn -0.1928 -0.1536 0.9692
vn -0.1604 0.5690 0.8066
vn -0.0368 0.9820 0.1850
vn -0.8315 -0.0000 -0.5556
vn -0.1709 -0.4819 0.8594
vn -0.1911 0.2017 0.9606
vn -0.1058 0.8402 0.5318
vn -0.5490 -0.1536 0.8216
vn -0.4569 0.5690 0.6838
vn -0.1048 0.9820 0.1569
vn -0.9808 -0.0000 -0.1951
vn -0.4868 -0.4819 0.7286
vn -0.5441 0.2017 0.8144
vn -0.3012 0.8402 0.4508
vn -0.4233 -0.6477 0.6335
vn -0.1951 -0.0000 0.9808
vn -0.7286 -0.4819 0.4868
vn -0.8144 0.2017 0.5441
vn -0.4508 0.8402 0.3012
vn -0.6335 -0.6477 0.4233
vn -0.8216 -0.1536 0.5490
vn -0.6838 0.5690 0.4569
vn -0.1569 0.9820 0.1048
vn -0.9606 0.2017 0.1911
vn -0.5318 0.8402 0.1058
vn -0.7472 -0.6477 0.1486
vn -0.9692 -0.1536 0.1928
vn -0.8066 0.5690 0.1604
vn -0.1850 0.9820 0.0368
vn 0.9808 -0.0000 0.1951
vn -0.8594 -0.4819 0.1709
vn -0.7472 -0.6477 -0.1486
vn -0.9692 -0.1536 -0.1928
vn -0.8066 0.5690 -0.1604
vn -0.1850 0.9820 -0.0368
vn 0.9808 -0.0000 -0.1951
vn -0.8594 -0.4819 -0.1709
vn -0.9606 0.2017 -0.1911
vn -0.5318 0.8402 -0.1058
vn -0.6838 0.5690 -0.4569
vn -0.1569 0.9820 -0.1048
vn 0.1951 -0.0000 0.9808
vn -0.7286 -0.4819 -0.4868
vn -0.8144 0.2017 -0.5441
vn -0.4508 0.8402 -0.3012
vn -0.6335 -0.6477 -0.4233
vn -0.8216 -0.1536 -0.5490
vn -0.1951 -0.0000 -0.9808
vn -0.4868 -0.4819 -0.7286
vn -0.5441 0.2017 -0.8144
vn -0.3012 0.8402 -0.4508
vn -0.4233 -0.6477 -0.6335
vn -0.5490 -0.1536 -0.8216
vn -0.4569 0.5690 -0.6838
vn -0.1048 0.9820 -0.1569
vn -0.1058 0.8402 -0.5318
vn -0.1486 -0.6477 -0.7472
vn -0.1928 -0.1536 -0.9692
vn -0.1604 0.5690 -0.8066
vn -0.0368 0.9820 -0.1850
vn -0.9808 -0.0000 0.1951
vn -0.1709 -0.4819 -0.8594
vn -0.1911 0.2017 -0.9606
vn -0.1839 -0.3335 -0.9246
vn -0.5238 -0.3335 -0.7839
vn -0.7839 -0.3335 -0.5238
vn -0.9246 -0.3335 -0.1839
vn -0.9246 -0.3335 0.1839
vn -0.7839 -0.3335 0.5238
vn -0.5238 -0.3335 0.7839
vn -0.1839 -0.3335 0.9246
vn 0.1839 -0.3335 0.9246
vn 0.5238 -0.3335 0.7839
vn 0.7839 -0.3335 0.5238
vn 0.9246 -0.3335 0.1839
vn 0.9246 -0.3335 -0.1839
vn 0.7839 -0.3335 -0.5238
vn 0.5238 -0.3335 -0.7839
vn 0.1839 -0.3335 -0.9246
vn 0.1933 -0.1336 -0.9720
vn 0.5506 -0.1336 -0.8240
vn 0.8240 -0.1336 -0.5506
vn 0.9720 -0.1336 -0.1933
vn 0.9720 -0.1336 0.1933
vn 0.8240 -0.1336 0.5506
vn 0.5506 -0.1336 0.8240
vn 0.1933 -0.1336 0.9720
vn -0.1933 -0.1336 0.9720
vn -0.5506 -0.1336 0.8240
vn -0.8240 -0.1336 0.5506
vn -0.9720 -0.1336 0.1933
vn -0.9720 -0.1336 -0.1933
vn -0.8240 -0.1336 -0.5506
vn -0.5506 -0.1336 -0.8240
vn -0.1933 -0.1336 -0.9720
vn 0.4508 -0.8403 0.3012
vn -0.5318 -0.8403 0.1058
vn 0.5318 -0.8403 0.1058
vn -0.4508 -0.8403 0.3012
vn 0.5318 -0.8403 -0.1058
vn -0.3012 -0.8403 0.4508
vn 0.4508 -0.8403 -0.3012
vn -0.1058 -0.8403 0.5318
vn -0.1058 -0.8403 -0.5318
vn 0.3012 -0.8403 -0.4508
vn 0.1058 -0.8403 0.5318
vn -0.3012 -0.8403 -0.4508
vn 0.1058 -0.8403 -0.5318
vn -0.4508 -0.8403 -0.3012
vn 0.3012 -0.8403 0.4508
vn -0.5318 -0.8403 -0.1058
vn 0.0219 -0.9937 -0.1099
vn 0.0623 -0.9937 -0.0932
vn 0.0932 -0.9937 -0.0623
vn 0.1099 -0.9937 -0.0219
vn 0.1099 -0.9937 0.0219
vn 0.0932 -0.9937 0.0623
vn 0.0623 -0.9937 0.0932
vn 0.0219 -0.9937 0.1099
vn -0.0219 -0.9937 0.1099
vn -0.0623 -0.9937 0.0932
vn -0.0932 -0.9937 0.0623
vn -0.1099 -0.9937 0.0219
vn -0.1099 -0.9937 -0.0219
vn -0.0932 -0.9937 -0.0623
vn -0.0623 -0.9937 -0.0932
vn -0.0219 -0.9937 -0.1099
vn -0.6567 -0.7427 0.1306
vn -0.1306 -0.7427 -0.6567
vn 0.1306 -0.7427 0.6567
vn 0.6567 -0.7427 -0.1306
vn 0.6567 -0.7427 0.1306
vn -0.1306 -0.7427 0.6567
vn -0.6567 -0.7427 -0.1306
vn -0.5567 -0.7427 -0.3720
vn 0.3720 -0.7427 0.5567
vn 0.3720 -0.7427 -0.5567
vn -0.3720 -0.7427 0.5567
vn 0.5567 -0.7427 0.3720
vn 0.1306 -0.7427 -0.6567
vn -0.5567 -0.7427 0.3720
vn -0.3720 -0.7427 -0.5567
vn 0.5567 -0.7427 -0.3720
vt 0.279759 0.730832
vt 0.292352 0.708305
vt 0.304906 0.712288
vt 0.301888 0.738891
vt 0.299608 0.695971
vt 0.302613 0.690561
vt 0.307672 0.692095
vt 0.306821 0.698340
vt 0.305132 0.686242
vt 0.307192 0.682509
vt 0.308717 0.683012
vt 0.308247 0.687175
vt 0.165909 0.924274
vt 0.197179 0.873567
vt 0.281503 0.903954
vt 0.274932 0.969431
vt 0.309146 0.678900
vt 0.727179 0.144094
vt 0.779302 0.150399
vt 0.757028 0.229508
vt 0.737817 0.228855
vt 0.369816 0.890523
vt 0.389129 0.945926
vt 0.314427 0.697752
vt 0.317965 0.711321
vt 0.311501 0.686970
vt 0.312857 0.691624
vt 0.310319 0.682851
vt 0.614930 0.298048
vt 0.615149 0.245429
vt 0.698852 0.264306
vt 0.697729 0.283185
vt 0.325415 0.737823
vt 0.314366 0.685382
vt 0.317439 0.689214
vt 0.311725 0.682090
vt 0.764963 0.400391
vt 0.716391 0.400128
vt 0.733451 0.322574
vt 0.751915 0.323746
vt 0.329660 0.705420
vt 0.347130 0.727557
vt 0.321236 0.694289
vt 0.444628 0.849822
vt 0.480190 0.889416
vt 0.636189 0.196073
vt 0.675677 0.159102
vt 0.720736 0.235579
vt 0.706869 0.247397
vt 0.338088 0.695476
vt 0.363771 0.709984
vt 0.320742 0.685256
vt 0.326219 0.688493
vt 0.312770 0.680876
vt 0.316536 0.682926
vt 0.493798 0.784002
vt 0.536576 0.806923
vt 0.313272 0.679337
vt 0.317485 0.679790
vt 0.520570 0.707662
vt 0.572023 0.716140
vt 0.328669 0.681196
vt 0.342437 0.683159
vt 0.322194 0.680419
vt 0.856115 0.212529
vt 0.869337 0.259876
vt 0.793044 0.269570
vt 0.786374 0.251801
vt 0.370532 0.686839
vt 0.518712 0.624785
vt 0.573042 0.612966
vt 0.328002 0.673517
vt 0.341590 0.670075
vt 0.317195 0.676547
vt 0.321906 0.675342
vt 0.313107 0.677727
vt 0.809732 0.382790
vt 0.769636 0.317516
vt 0.367744 0.663190
vt 0.312343 0.676311
vt 0.335852 0.658251
vt 0.356290 0.642513
vt 0.319636 0.670661
vt 0.324516 0.666783
vt 0.315673 0.673645
vt 0.483668 0.546656
vt 0.532763 0.510260
vt 0.325745 0.649931
vt 0.339288 0.626192
vt 0.315609 0.667436
vt 0.318746 0.661754
vt 0.311119 0.675258
vt 0.313169 0.671554
vt 0.421138 0.488580
vt 0.445622 0.444178
vt 0.867023 0.308158
vt 0.791422 0.288340
vt 0.340450 0.464864
vt 0.348363 0.411168
vt 0.311408 0.659407
vt 0.313408 0.645456
vt 0.310076 0.670573
vt 0.310784 0.665771
vt 0.309571 0.674790
vt 0.634776 0.345642
vt 0.704070 0.300836
vt 0.316799 0.619215
vt 0.303767 0.660047
vt 0.300379 0.646686
vt 0.306829 0.670846
vt 0.305644 0.666122
vt 0.307965 0.674945
vt 0.670628 0.381239
vt 0.716657 0.314621
vt 0.293146 0.620074
vt 0.255556 0.465837
vt 0.243940 0.411168
vt 0.846647 0.351836
vt 0.782809 0.304434
vt 0.288502 0.652196
vt 0.272607 0.631643
vt 0.301022 0.668424
vt 0.296962 0.663525
vt 0.306541 0.675700
vt 0.303928 0.672342
vt 0.175118 0.499595
vt 0.141761 0.450991
vt 0.297633 0.672329
vt 0.292014 0.669362
vt 0.305515 0.676942
vt 0.301817 0.674838
vt 0.113528 0.564175
vt 0.057842 0.532437
vt 0.279998 0.662224
vt 0.825257 0.172925
vt 0.773825 0.238300
vt 0.256688 0.648941
vt 0.088360 0.649324
vt 0.034918 0.644093
vt 0.289681 0.676650
vt 0.275925 0.674666
vt 0.300821 0.677954
vt 0.295996 0.677240
vt 0.305043 0.678480
vt 0.248185 0.671231
vt 0.301095 0.681219
vt 0.296361 0.682412
vt 0.305196 0.680081
vt 0.276983 0.687642
vt 0.248660 0.695277
vt 0.290314 0.684279
vt 0.092695 0.735767
vt 0.039358 0.750077
vt 0.282575 0.699440
vt 0.260623 0.716219
vt 0.298674 0.687071
vt 0.293807 0.691083
vt 0.305952 0.681498
vt 0.302604 0.684135
vt 0.133325 0.812774
vt 0.087459 0.847206
vt 0.246270 0.727925
vt 0.271349 0.746251
vt 0.233180 0.699474
vt 0.230073 0.668455
vt 0.242356 0.640241
vt 0.262303 0.618597
vt 0.288424 0.603214
vt 0.319110 0.602352
vt 0.347862 0.611396
vt 0.369880 0.631658
vt 0.383933 0.658218
vt 0.386948 0.688317
vt 0.379560 0.718948
vt 0.357411 0.741254
vt 0.329720 0.754500
vt 0.299770 0.754590
vt 0.781286 0.270956
vt 0.776388 0.257581
vt 0.723303 0.305267
vt 0.736090 0.311417
vt 0.766814 0.247136
vt 0.750309 0.312284
vt 0.754087 0.240942
vt 0.763705 0.307448
vt 0.739926 0.240214
vt 0.773966 0.297788
vt 0.716040 0.254383
vt 0.709982 0.267187
vt 0.726678 0.245068
vt 0.780352 0.285184
vt 0.709113 0.281314
vt 0.713818 0.294710
vt 0.745089 0.276177
vt 0.712968 0.417300
vt 0.660758 0.396155
vt 0.596343 0.241509
vt 0.620386 0.184994
vt 0.883758 0.312353
vt 0.860431 0.362420
vt 0.784712 0.132597
vt 0.836741 0.158857
vt 0.871957 0.204508
vt 0.818521 0.397547
vt 0.619642 0.355870
vt 0.596619 0.301734
vt 0.886617 0.258005
vt 0.665989 0.142236
vt 0.725588 0.125101
vt 0.768104 0.417300
s 0
usemtl Material.001
f 129/1/1 3/2/1 9/3/1 114/4/1
f 2/5/2 1/6/2 7/7/2 8/8/2
f 112/9/3 111/10/3 5/11/3 6/12/3
f 4/13/4 113/14/4 10/15/4 11/16/4
f 3/2/5 2/5/5 8/8/5 9/3/5
f 1/6/6 112/9/6 6/12/6 7/7/6
f 111/10/7 61/17/7 5/11/7
f 181/18/8 187/19/8 149/20/8 148/21/8
f 11/16/9 10/15/9 17/22/9 18/23/9
f 9/3/10 8/8/10 15/24/10 16/25/10
f 7/7/11 6/12/11 13/26/11 14/27/11
f 5/11/12 61/17/12 12/28/12
f 183/29/13 191/30/13 162/31/13 161/32/13
f 114/4/14 9/3/14 16/25/14 115/33/14
f 8/8/15 7/7/15 14/27/15 15/24/15
f 6/12/16 5/11/16 12/28/16 13/26/16
f 14/27/17 13/26/17 20/34/17 21/35/17
f 12/28/18 61/17/18 19/36/18
f 155/37/19 193/38/19 158/39/19 157/40/19
f 115/33/20 16/25/20 23/41/20 116/42/20
f 15/24/21 14/27/21 21/35/21 22/43/21
f 13/26/22 12/28/22 19/36/22 20/34/22
f 18/23/23 17/22/23 24/44/23 25/45/23
f 16/25/24 15/24/24 22/43/24 23/41/24
f 192/46/25 180/47/25 146/48/25 147/49/25
f 116/42/26 23/41/26 30/50/26 117/51/26
f 22/43/27 21/35/27 28/52/27 29/53/27
f 20/34/28 19/36/28 26/54/28 27/55/28
f 25/45/29 24/44/29 31/56/29 32/57/29
f 23/41/30 22/43/30 29/53/30 30/50/30
f 21/35/31 20/34/31 27/55/31 28/52/31
f 19/36/32 61/17/32 26/54/32
f 27/55/33 26/54/33 33/58/33 34/59/33
f 32/57/34 31/56/34 38/60/34 39/61/34
f 30/50/35 29/53/35 36/62/35 37/63/35
f 28/52/36 27/55/36 34/59/36 35/64/36
f 26/54/37 61/17/37 33/58/37
f 186/65/38 182/66/38 152/67/38 151/68/38
f 117/51/39 30/50/39 37/63/39 118/69/39
f 29/53/40 28/52/40 35/64/40 36/62/40
f 39/61/41 38/60/41 45/70/41 46/71/41
f 37/63/42 36/62/42 43/72/42 44/73/42
f 35/64/43 34/59/43 41/74/43 42/75/43
f 33/58/44 61/17/44 40/76/44
f 185/77/45 155/37/45 157/40/45 156/78/45
f 118/69/46 37/63/46 44/73/46 119/79/46
f 36/62/47 35/64/47 42/75/47 43/72/47
f 34/59/48 33/58/48 40/76/48 41/74/48
f 40/76/49 61/17/49 47/80/49
f 180/47/50 181/18/50 148/21/50 146/48/50
f 119/79/51 44/73/51 51/81/51 120/82/51
f 43/72/52 42/75/52 49/83/52 50/84/52
f 41/74/53 40/76/53 47/80/53 48/85/53
f 46/71/54 45/70/54 52/86/54 53/87/54
f 44/73/55 43/72/55 50/84/55 51/81/55
f 42/75/56 41/74/56 48/85/56 49/83/56
f 120/82/57 51/81/57 58/88/57 121/89/57
f 50/84/58 49/83/58 56/90/58 57/91/58
f 48/85/59 47/80/59 54/92/59 55/93/59
f 53/87/60 52/86/60 59/94/60 60/95/60
f 51/81/61 50/84/61 57/91/61 58/88/61
f 49/83/62 48/85/62 55/93/62 56/90/62
f 47/80/63 61/17/63 54/92/63
f 182/66/64 189/96/64 153/97/64 152/67/64
f 60/95/65 59/94/65 67/98/65 68/99/65
f 58/88/66 57/91/66 65/100/66 66/101/66
f 56/90/67 55/93/67 63/102/67 64/103/67
f 54/92/68 61/17/68 62/104/68
f 184/105/69 183/29/69 161/32/69 160/106/69
f 121/89/70 58/88/70 66/101/70 122/107/70
f 57/91/71 56/90/71 64/103/71 65/100/71
f 55/93/72 54/92/72 62/104/72 63/102/72
f 66/101/73 65/100/73 72/108/73 73/109/73
f 64/103/74 63/102/74 70/110/74 71/111/74
f 62/104/75 61/17/75 69/112/75
f 194/113/76 184/105/76 160/106/76 159/114/76
f 122/107/77 66/101/77 73/109/77 123/115/77
f 65/100/78 64/103/78 71/111/78 72/108/78
f 63/102/79 62/104/79 69/112/79 70/110/79
f 68/99/80 67/98/80 74/116/80 75/117/80
f 190/118/81 185/77/81 156/78/81 154/119/81
f 123/115/82 73/109/82 80/120/82 124/121/82
f 72/108/83 71/111/83 78/122/83 79/123/83
f 70/110/84 69/112/84 76/124/84 77/125/84
f 75/117/85 74/116/85 81/126/85 82/127/85
f 73/109/86 72/108/86 79/123/86 80/120/86
f 71/111/87 70/110/87 77/125/87 78/122/87
f 69/112/88 61/17/88 76/124/88
f 79/123/89 78/122/89 85/128/89 86/129/89
f 77/125/90 76/124/90 83/130/90 84/131/90
f 82/127/91 81/126/91 88/132/91 89/133/91
f 80/120/92 79/123/92 86/129/92 87/134/92
f 78/122/93 77/125/93 84/131/93 85/128/93
f 76/124/94 61/17/94 83/130/94
f 188/135/95 186/65/95 151/68/95 150/136/95
f 124/121/96 80/120/96 87/134/96 125/137/96
f 89/133/97 88/132/97 95/138/97 96/139/97
f 87/134/98 86/129/98 93/140/98 94/141/98
f 85/128/99 84/131/99 91/142/99 92/143/99
f 83/130/100 61/17/100 90/144/100
f 187/19/101 188/135/101 150/136/101 149/20/101
f 125/137/102 87/134/102 94/141/102 126/145/102
f 86/129/103 85/128/103 92/143/103 93/140/103
f 84/131/104 83/130/104 90/144/104 91/142/104
f 92/143/105 91/142/105 98/146/105 99/147/105
f 90/144/106 61/17/106 97/148/106
f 189/96/107 190/118/107 154/119/107 153/97/107
f 126/145/108 94/141/108 101/149/108 127/150/108
f 93/140/109 92/143/109 99/147/109 100/151/109
f 91/142/110 90/144/110 97/148/110 98/146/110
f 96/139/111 95/138/111 102/152/111 103/153/111
f 94/141/112 93/140/112 100/151/112 101/149/112
f 191/30/113 192/46/113 147/49/113 162/31/113
f 127/150/114 101/149/114 108/154/114 128/155/114
f 100/151/115 99/147/115 106/156/115 107/157/115
f 98/146/116 97/148/116 104/158/116 105/159/116
f 103/153/117 102/152/117 109/160/117 110/161/117
f 101/149/118 100/151/118 107/157/118 108/154/118
f 99/147/119 98/146/119 105/159/119 106/156/119
f 97/148/120 61/17/120 104/158/120
f 105/159/121 104/158/121 111/10/121 112/9/121
f 110/161/122 109/160/122 113/14/122 4/13/122
f 108/154/123 107/157/123 2/5/123 3/2/123
f 106/156/124 105/159/124 112/9/124 1/6/124
f 104/158/125 61/17/125 111/10/125
f 193/38/126 194/113/126 159/114/126 158/39/126
f 128/155/127 108/154/127 3/2/127 129/1/127
f 107/157/128 106/156/128 1/6/128 2/5/128
f 144/162/129 128/155/129 129/1/129 145/163/129
f 143/164/130 127/150/130 128/155/130 144/162/130
f 142/165/131 126/145/131 127/150/131 143/164/131
f 141/166/132 125/137/132 126/145/132 142/165/132
f 140/167/133 124/121/133 125/137/133 141/166/133
f 139/168/134 123/115/134 124/121/134 140/167/134
f 138/169/135 122/107/135 123/115/135 139/168/135
f 137/170/136 121/89/136 122/107/136 138/169/136
f 136/171/137 120/82/137 121/89/137 137/170/137
f 135/172/138 119/79/138 120/82/138 136/171/138
f 134/173/139 118/69/139 119/79/139 135/172/139
f 133/174/140 117/51/140 118/69/140 134/173/140
f 132/175/141 116/42/141 117/51/141 133/174/141
f 131/176/142 115/33/142 116/42/142 132/175/142
f 130/177/143 114/4/143 115/33/143 131/176/143
f 145/163/144 129/1/144 114/4/144 130/177/144
f 113/14/145 145/163/145 130/177/145 10/15/145
f 10/15/146 130/177/146 131/176/146 17/22/146
f 17/22/147 131/176/147 132/175/147 24/44/147
f 24/44/148 132/175/148 133/174/148 31/56/148
f 31/56/149 133/174/149 134/173/149 38/60/149
f 38/60/150 134/173/150 135/172/150 45/70/150
f 45/70/151 135/172/151 136/171/151 52/86/151
f 52/86/152 136/171/152 137/170/152 59/94/152
f 59/94/153 137/170/153 138/169/153 67/98/153
f 67/98/154 138/169/154 139/168/154 74/116/154
f 74/116/155 139/168/155 140/167/155 81/126/155
f 81/126/156 140/167/156 141/166/156 88/132/156
f 88/132/157 141/166/157 142/165/157 95/138/157
f 95/138/158 142/165/158 143/164/158 102/152/158
f 102/152/159 143/164/159 144/162/159 109/160/159
f 109/160/160 144/162/160 145/163/160 113/14/160
f 151/68/161 152/67/161 169/178/161 168/179/161
f 158/39/162 159/114/162 176/180/162 175/181/162
f 150/136/163 151/68/163 168/179/163 167/182/163
f 157/40/164 158/39/164 175/181/164 174/183/164
f 149/20/165 150/136/165 167/182/165 166/184/165
f 156/78/166 157/40/166 174/183/166 173/185/166
f 148/21/167 149/20/167 166/184/167 165/186/167
f 154/119/168 156/78/168 173/185/168 171/187/168
f 162/31/169 147/49/169 164/188/169 179/189/169
f 146/48/170 148/21/170 165/186/170 163/190/170
f 153/97/171 154/119/171 171/187/171 170/191/171
f 161/32/172 162/31/172 179/189/172 178/192/172
f 147/49/173 146/48/173 163/190/173 164/188/173
f 160/106/174 161/32/174 178/192/174 177/193/174
f 152/67/175 153/97/175 170/191/175 169/178/175
f 159/114/176 160/106/176 177/193/176 176/180/176
f 172/194/177 164/188/177 163/190/177
f 172/194/178 163/190/178 165/186/178
f 172/194/179 165/186/179 166/184/179
f 172/194/180 166/184/180 167/182/180
f 172/194/181 167/182/181 168/179/181
f 172/194/182 168/179/182 169/178/182
f 172/194/183 169/178/183 170/191/183
f 172/194/184 170/191/184 171/187/184
f 172/194/185 171/187/185 173/185/185
f 172/194/186 173/185/186 174/183/186
f 172/194/187 174/183/187 175/181/187
f 172/194/188 175/181/188 176/180/188
f 172/194/189 176/180/189 177/193/189
f 172/194/190 177/193/190 178/192/190
f 172/194/191 178/192/191 179/189/191
f 172/194/192 179/189/192 164/188/192
f 82/195/193 89/196/193 194/113/193 193/38/193
f 110/197/194 4/198/194 192/46/194 191/30/194
f 53/199/195 60/200/195 190/118/195 189/96/195
f 25/201/196 32/202/196 188/135/196 187/19/196
f 32/202/197 39/203/197 186/65/197 188/135/197
f 60/200/198 68/204/198 185/77/198 190/118/198
f 89/196/199 96/205/199 184/105/199 194/113/199
f 96/205/200 103/206/200 183/29/200 184/105/200
f 46/207/201 53/199/201 189/96/201 182/66/201
f 11/208/202 18/209/202 181/18/202 180/47/202
f 68/204/203 75/210/203 155/37/203 185/77/203
f 39/203/204 46/207/204 182/66/204 186/65/204
f 4/198/205 11/208/205 180/47/205 192/46/205
f 75/210/206 82/195/206 193/38/206 155/37/206
f 103/206/207 110/197/207 191/30/207 183/29/207
f 18/209/208 25/201/208 187/19/208 181/18/208
